G04 Layer: TopSilkLayer*
G04 EasyEDA v6.4.25, 2022-01-27T13:57:17+08:00*
G04 c860a57ab6e24c20a85ed983e1d1ab15,3b57db4a37c74da5bb1b5bc11455ab19,10*
G04 Gerber Generator version 0.2*
G04 Scale: 100 percent, Rotated: No, Reflected: No *
G04 Dimensions in inches *
G04 leading zeros omitted , absolute positions ,3 integer and 6 decimal *
%FSLAX36Y36*%
%MOIN*%

%ADD10C,0.0100*%
%ADD35C,0.0060*%
%ADD36C,0.0079*%
%ADD37C,0.0051*%

%LPD*%
G36*
X-4331380Y185620D02*
G01*
X-4331380Y147120D01*
X-4331280Y142420D01*
X-4330760Y138160D01*
X-4329860Y134300D01*
X-4328560Y130860D01*
X-4326840Y127840D01*
X-4324720Y125239D01*
X-4322200Y123059D01*
X-4319280Y121300D01*
X-4315960Y119940D01*
X-4312240Y119019D01*
X-4308100Y118500D01*
X-4298880Y118420D01*
X-4294620Y118859D01*
X-4290780Y119720D01*
X-4287380Y121020D01*
X-4284380Y122760D01*
X-4281820Y124940D01*
X-4279680Y127560D01*
X-4277980Y130600D01*
X-4276680Y134080D01*
X-4275820Y137980D01*
X-4275380Y142340D01*
X-4275380Y185620D01*
X-4284180Y185620D01*
X-4284180Y145220D01*
X-4284340Y140120D01*
X-4285140Y135720D01*
X-4286580Y132020D01*
X-4288640Y129019D01*
X-4291360Y126720D01*
X-4294700Y125120D01*
X-4298660Y124220D01*
X-4303280Y124019D01*
X-4307800Y124340D01*
X-4311720Y125340D01*
X-4315040Y127000D01*
X-4317740Y129320D01*
X-4319860Y132300D01*
X-4321360Y135940D01*
X-4322280Y140240D01*
X-4322580Y145220D01*
X-4322580Y185620D01*
G37*
G36*
X-4351680Y185620D02*
G01*
X-4353700Y181480D01*
X-4356280Y177700D01*
X-4359400Y174240D01*
X-4363060Y171119D01*
X-4367240Y168359D01*
X-4371980Y165920D01*
X-4371980Y160920D01*
X-4365680Y162960D01*
X-4360200Y165420D01*
X-4355520Y168260D01*
X-4351680Y171520D01*
X-4351680Y119320D01*
X-4342880Y119320D01*
X-4342880Y185620D01*
G37*
G36*
X-3583340Y185620D02*
G01*
X-3583340Y147120D01*
X-3583240Y142420D01*
X-3582740Y138160D01*
X-3581820Y134300D01*
X-3580520Y130860D01*
X-3578800Y127840D01*
X-3576700Y125239D01*
X-3574180Y123059D01*
X-3571259Y121300D01*
X-3567919Y119940D01*
X-3564200Y119019D01*
X-3560080Y118500D01*
X-3550860Y118420D01*
X-3546600Y118859D01*
X-3542760Y119720D01*
X-3539340Y121020D01*
X-3536360Y122760D01*
X-3533800Y124940D01*
X-3531660Y127560D01*
X-3529940Y130600D01*
X-3528660Y134080D01*
X-3527799Y137980D01*
X-3527360Y142340D01*
X-3527340Y185620D01*
X-3536139Y185620D01*
X-3536139Y145220D01*
X-3536300Y140120D01*
X-3537120Y135720D01*
X-3538540Y132020D01*
X-3540620Y129019D01*
X-3543320Y126720D01*
X-3546660Y125120D01*
X-3550640Y124220D01*
X-3555240Y124019D01*
X-3559760Y124340D01*
X-3563680Y125340D01*
X-3567000Y127000D01*
X-3569720Y129320D01*
X-3571820Y132300D01*
X-3573340Y135940D01*
X-3574240Y140240D01*
X-3574540Y145220D01*
X-3574540Y185620D01*
G37*
G36*
X-3603639Y185620D02*
G01*
X-3605680Y181480D01*
X-3608260Y177700D01*
X-3611360Y174240D01*
X-3615020Y171119D01*
X-3619220Y168359D01*
X-3623940Y165920D01*
X-3623940Y160920D01*
X-3617640Y162960D01*
X-3612160Y165420D01*
X-3607500Y168260D01*
X-3603639Y171520D01*
X-3603639Y119320D01*
X-3594840Y119320D01*
X-3594840Y185620D01*
G37*
G36*
X-2835299Y185620D02*
G01*
X-2835299Y147120D01*
X-2835200Y142420D01*
X-2834700Y138160D01*
X-2833800Y134300D01*
X-2832480Y130860D01*
X-2830779Y127840D01*
X-2828660Y125239D01*
X-2826139Y123059D01*
X-2823220Y121300D01*
X-2819900Y119940D01*
X-2816180Y119019D01*
X-2812040Y118500D01*
X-2802820Y118420D01*
X-2798560Y118859D01*
X-2794720Y119720D01*
X-2791320Y121020D01*
X-2788320Y122760D01*
X-2785760Y124940D01*
X-2783620Y127560D01*
X-2781920Y130600D01*
X-2780620Y134080D01*
X-2779760Y137980D01*
X-2779320Y142340D01*
X-2779320Y185620D01*
X-2788120Y185620D01*
X-2788120Y145220D01*
X-2788279Y140120D01*
X-2789080Y135720D01*
X-2790520Y132020D01*
X-2792580Y129019D01*
X-2795280Y126720D01*
X-2798620Y125120D01*
X-2802600Y124220D01*
X-2807220Y124019D01*
X-2811740Y124340D01*
X-2815659Y125340D01*
X-2818980Y127000D01*
X-2821680Y129320D01*
X-2823800Y132300D01*
X-2825299Y135940D01*
X-2826200Y140240D01*
X-2826500Y145220D01*
X-2826500Y185620D01*
G37*
G36*
X-2855620Y185620D02*
G01*
X-2857640Y181480D01*
X-2860220Y177700D01*
X-2863340Y174240D01*
X-2866980Y171119D01*
X-2871180Y168359D01*
X-2875920Y165920D01*
X-2875920Y160920D01*
X-2869620Y162960D01*
X-2864140Y165420D01*
X-2859460Y168260D01*
X-2855620Y171520D01*
X-2855620Y119320D01*
X-2846820Y119320D01*
X-2846820Y185620D01*
G37*
G36*
X-2087280Y185620D02*
G01*
X-2087280Y147120D01*
X-2087180Y142420D01*
X-2086680Y138160D01*
X-2085760Y134300D01*
X-2084460Y130860D01*
X-2082740Y127840D01*
X-2080620Y125239D01*
X-2078120Y123059D01*
X-2075200Y121300D01*
X-2071860Y119940D01*
X-2068140Y119019D01*
X-2064019Y118500D01*
X-2054800Y118420D01*
X-2050520Y118859D01*
X-2046699Y119720D01*
X-2043280Y121020D01*
X-2040300Y122760D01*
X-2037720Y124940D01*
X-2035600Y127560D01*
X-2033880Y130600D01*
X-2032600Y134080D01*
X-2031720Y137980D01*
X-2031300Y142340D01*
X-2031279Y185620D01*
X-2040080Y185620D01*
X-2040080Y145220D01*
X-2040240Y140120D01*
X-2041040Y135720D01*
X-2042480Y132020D01*
X-2044560Y129019D01*
X-2047260Y126720D01*
X-2050600Y125120D01*
X-2054580Y124220D01*
X-2059180Y124019D01*
X-2063700Y124340D01*
X-2067620Y125340D01*
X-2070940Y127000D01*
X-2073660Y129320D01*
X-2075760Y132300D01*
X-2077280Y135940D01*
X-2078180Y140240D01*
X-2078480Y145220D01*
X-2078480Y185620D01*
G37*
G36*
X-2107580Y185620D02*
G01*
X-2109620Y181480D01*
X-2112200Y177700D01*
X-2115300Y174240D01*
X-2118960Y171119D01*
X-2123140Y168359D01*
X-2127880Y165920D01*
X-2127880Y160920D01*
X-2121580Y162960D01*
X-2116100Y165420D01*
X-2111440Y168260D01*
X-2107580Y171520D01*
X-2107580Y119320D01*
X-2098780Y119320D01*
X-2098780Y185620D01*
G37*
G36*
X-1339240Y185620D02*
G01*
X-1339240Y147120D01*
X-1339139Y142420D01*
X-1338640Y138160D01*
X-1337740Y134300D01*
X-1336420Y130860D01*
X-1334720Y127840D01*
X-1332600Y125239D01*
X-1330080Y123059D01*
X-1327160Y121300D01*
X-1323839Y119940D01*
X-1320100Y119019D01*
X-1315980Y118500D01*
X-1306759Y118420D01*
X-1302500Y118859D01*
X-1298660Y119720D01*
X-1295240Y121020D01*
X-1292260Y122760D01*
X-1289700Y124940D01*
X-1287560Y127560D01*
X-1285840Y130600D01*
X-1284560Y134080D01*
X-1283700Y137980D01*
X-1283260Y142340D01*
X-1283240Y185620D01*
X-1292040Y185620D01*
X-1292040Y145220D01*
X-1292220Y140120D01*
X-1293020Y135720D01*
X-1294460Y132020D01*
X-1296519Y129019D01*
X-1299220Y126720D01*
X-1302560Y125120D01*
X-1306540Y124220D01*
X-1311140Y124019D01*
X-1315680Y124340D01*
X-1319600Y125340D01*
X-1322900Y127000D01*
X-1325620Y129320D01*
X-1327740Y132300D01*
X-1329240Y135940D01*
X-1330140Y140240D01*
X-1330440Y145220D01*
X-1330440Y185620D01*
G37*
G36*
X-1359540Y185620D02*
G01*
X-1361579Y181480D01*
X-1364160Y177700D01*
X-1367280Y174240D01*
X-1370920Y171119D01*
X-1375120Y168359D01*
X-1379840Y165920D01*
X-1379840Y160920D01*
X-1373560Y162960D01*
X-1368080Y165420D01*
X-1363400Y168260D01*
X-1359540Y171520D01*
X-1359540Y119320D01*
X-1350740Y119320D01*
X-1350740Y185620D01*
G37*
G36*
X904840Y185620D02*
G01*
X904840Y147120D01*
X904940Y142420D01*
X905460Y138160D01*
X906360Y134300D01*
X907660Y130860D01*
X909380Y127840D01*
X911500Y125239D01*
X914020Y123059D01*
X916940Y121300D01*
X920260Y119940D01*
X923980Y119019D01*
X928120Y118500D01*
X937340Y118420D01*
X941600Y118859D01*
X945440Y119720D01*
X948840Y121020D01*
X951840Y122760D01*
X954400Y124940D01*
X956540Y127560D01*
X958240Y130600D01*
X959539Y134080D01*
X960400Y137980D01*
X960840Y142340D01*
X960840Y185620D01*
X952039Y185620D01*
X952039Y145220D01*
X951880Y140120D01*
X951080Y135720D01*
X949640Y132020D01*
X947580Y129019D01*
X944860Y126720D01*
X941520Y125120D01*
X937560Y124220D01*
X932940Y124019D01*
X928420Y124340D01*
X924500Y125340D01*
X921180Y127000D01*
X918480Y129320D01*
X916360Y132300D01*
X914860Y135940D01*
X913940Y140240D01*
X913640Y145220D01*
X913640Y185620D01*
G37*
G36*
X884539Y185620D02*
G01*
X882520Y181480D01*
X879940Y177700D01*
X876820Y174240D01*
X873160Y171119D01*
X868980Y168359D01*
X864240Y165920D01*
X864240Y160920D01*
X870540Y162960D01*
X876020Y165420D01*
X880699Y168260D01*
X884539Y171520D01*
X884539Y119320D01*
X893340Y119320D01*
X893340Y185620D01*
G37*
G36*
X1652880Y185620D02*
G01*
X1652880Y147120D01*
X1652980Y142420D01*
X1653480Y138160D01*
X1654400Y134300D01*
X1655700Y130860D01*
X1657420Y127840D01*
X1659520Y125239D01*
X1662040Y123059D01*
X1664960Y121300D01*
X1668300Y119940D01*
X1672020Y119019D01*
X1676140Y118500D01*
X1685360Y118420D01*
X1689620Y118859D01*
X1693460Y119720D01*
X1696879Y121020D01*
X1699860Y122760D01*
X1702420Y124940D01*
X1704560Y127560D01*
X1706279Y130600D01*
X1707560Y134080D01*
X1708420Y137980D01*
X1708860Y142340D01*
X1708880Y185620D01*
X1700080Y185620D01*
X1700080Y145220D01*
X1699920Y140120D01*
X1699120Y135720D01*
X1697680Y132020D01*
X1695600Y129019D01*
X1692900Y126720D01*
X1689560Y125120D01*
X1685580Y124220D01*
X1680980Y124019D01*
X1676459Y124340D01*
X1672540Y125340D01*
X1669220Y127000D01*
X1666500Y129320D01*
X1664400Y132300D01*
X1662880Y135940D01*
X1661980Y140240D01*
X1661680Y145220D01*
X1661680Y185620D01*
G37*
G36*
X1632580Y185620D02*
G01*
X1630540Y181480D01*
X1627960Y177700D01*
X1624860Y174240D01*
X1621200Y171119D01*
X1617000Y168359D01*
X1612280Y165920D01*
X1612280Y160920D01*
X1618580Y162960D01*
X1624060Y165420D01*
X1628720Y168260D01*
X1632580Y171520D01*
X1632580Y119320D01*
X1641380Y119320D01*
X1641380Y185620D01*
G37*
G36*
X2400900Y185620D02*
G01*
X2400900Y147120D01*
X2401020Y142420D01*
X2401520Y138160D01*
X2402420Y134300D01*
X2403740Y130860D01*
X2405440Y127840D01*
X2407560Y125239D01*
X2410080Y123059D01*
X2413000Y121300D01*
X2416320Y119940D01*
X2420040Y119019D01*
X2424180Y118500D01*
X2433400Y118420D01*
X2437660Y118859D01*
X2441500Y119720D01*
X2444920Y121020D01*
X2447900Y122760D01*
X2450460Y124940D01*
X2452600Y127560D01*
X2454300Y130600D01*
X2455600Y134080D01*
X2456460Y137980D01*
X2456900Y142340D01*
X2456900Y185620D01*
X2448100Y185620D01*
X2448100Y145220D01*
X2447940Y140120D01*
X2447140Y135720D01*
X2445700Y132020D01*
X2443640Y129019D01*
X2440940Y126720D01*
X2437600Y125120D01*
X2433620Y124220D01*
X2429000Y124019D01*
X2424480Y124340D01*
X2420560Y125340D01*
X2417240Y127000D01*
X2414540Y129320D01*
X2412420Y132300D01*
X2410920Y135940D01*
X2410020Y140240D01*
X2409700Y145220D01*
X2409700Y185620D01*
G37*
G36*
X2380600Y185620D02*
G01*
X2378580Y181480D01*
X2376000Y177700D01*
X2372880Y174240D01*
X2369240Y171119D01*
X2365040Y168359D01*
X2360300Y165920D01*
X2360300Y160920D01*
X2366600Y162960D01*
X2372080Y165420D01*
X2376760Y168260D01*
X2380600Y171520D01*
X2380600Y119320D01*
X2389400Y119320D01*
X2389400Y185620D01*
G37*
G36*
X3148940Y185620D02*
G01*
X3148940Y147120D01*
X3149040Y142420D01*
X3149540Y138160D01*
X3150460Y134300D01*
X3151760Y130860D01*
X3153480Y127840D01*
X3155600Y125239D01*
X3158120Y123059D01*
X3161040Y121300D01*
X3164360Y119940D01*
X3168080Y119019D01*
X3172220Y118500D01*
X3181420Y118420D01*
X3185700Y118859D01*
X3189520Y119720D01*
X3192940Y121020D01*
X3195920Y122760D01*
X3198500Y124940D01*
X3200620Y127560D01*
X3202340Y130600D01*
X3203620Y134080D01*
X3204500Y137980D01*
X3204920Y142340D01*
X3204940Y185620D01*
X3196139Y185620D01*
X3196139Y145220D01*
X3195980Y140120D01*
X3195179Y135720D01*
X3193740Y132020D01*
X3191660Y129019D01*
X3188960Y126720D01*
X3185620Y125120D01*
X3181640Y124220D01*
X3177040Y124019D01*
X3172520Y124340D01*
X3168600Y125340D01*
X3165280Y127000D01*
X3162559Y129320D01*
X3160460Y132300D01*
X3158940Y135940D01*
X3158039Y140240D01*
X3157740Y145220D01*
X3157740Y185620D01*
G37*
G36*
X3128639Y185620D02*
G01*
X3126600Y181480D01*
X3124040Y177700D01*
X3120920Y174240D01*
X3117260Y171119D01*
X3113080Y168359D01*
X3108340Y165920D01*
X3108340Y160920D01*
X3114640Y162960D01*
X3120120Y165420D01*
X3124780Y168260D01*
X3128639Y171520D01*
X3128639Y119320D01*
X3137440Y119320D01*
X3137440Y185620D01*
G37*
G36*
X3896980Y185620D02*
G01*
X3896980Y147120D01*
X3897080Y142420D01*
X3897580Y138160D01*
X3898480Y134300D01*
X3899800Y130860D01*
X3901500Y127840D01*
X3903620Y125239D01*
X3906139Y123059D01*
X3909060Y121300D01*
X3912380Y119940D01*
X3916120Y119019D01*
X3920240Y118500D01*
X3929460Y118420D01*
X3933720Y118859D01*
X3937559Y119720D01*
X3940980Y121020D01*
X3943960Y122760D01*
X3946520Y124940D01*
X3948660Y127560D01*
X3950380Y130600D01*
X3951660Y134080D01*
X3952520Y137980D01*
X3952960Y142340D01*
X3952980Y185620D01*
X3944180Y185620D01*
X3944180Y145220D01*
X3944000Y140120D01*
X3943200Y135720D01*
X3941760Y132020D01*
X3939700Y129019D01*
X3937000Y126720D01*
X3933660Y125120D01*
X3929680Y124220D01*
X3925080Y124019D01*
X3920539Y124340D01*
X3916620Y125340D01*
X3913320Y127000D01*
X3910600Y129320D01*
X3908480Y132300D01*
X3906980Y135940D01*
X3906080Y140240D01*
X3905779Y145220D01*
X3905779Y185620D01*
G37*
G36*
X3876680Y185620D02*
G01*
X3874640Y181480D01*
X3872060Y177700D01*
X3868940Y174240D01*
X3865299Y171119D01*
X3861100Y168359D01*
X3856380Y165920D01*
X3856380Y160920D01*
X3862660Y162960D01*
X3868140Y165420D01*
X3872820Y168260D01*
X3876680Y171520D01*
X3876680Y119320D01*
X3885480Y119320D01*
X3885480Y185620D01*
G37*
G36*
X-3929460Y-118420D02*
G01*
X-3933720Y-118859D01*
X-3937559Y-119720D01*
X-3940980Y-121020D01*
X-3943960Y-122760D01*
X-3946520Y-124940D01*
X-3948660Y-127560D01*
X-3950380Y-130600D01*
X-3951660Y-134080D01*
X-3952520Y-137980D01*
X-3952960Y-142340D01*
X-3952980Y-185620D01*
X-3944180Y-185620D01*
X-3944180Y-145220D01*
X-3944000Y-140120D01*
X-3943200Y-135720D01*
X-3941760Y-132020D01*
X-3939700Y-129019D01*
X-3937000Y-126720D01*
X-3933660Y-125120D01*
X-3929680Y-124220D01*
X-3925080Y-124019D01*
X-3920539Y-124340D01*
X-3916620Y-125340D01*
X-3913320Y-127000D01*
X-3910600Y-129320D01*
X-3908480Y-132300D01*
X-3906980Y-135940D01*
X-3906080Y-140240D01*
X-3905779Y-145220D01*
X-3905779Y-185620D01*
X-3896980Y-185620D01*
X-3896980Y-147120D01*
X-3897080Y-142420D01*
X-3897580Y-138160D01*
X-3898480Y-134300D01*
X-3899800Y-130860D01*
X-3901500Y-127840D01*
X-3903620Y-125239D01*
X-3906139Y-123059D01*
X-3909060Y-121300D01*
X-3912380Y-119940D01*
X-3916120Y-119019D01*
X-3920240Y-118500D01*
G37*
G36*
X-3885480Y-119320D02*
G01*
X-3885480Y-185620D01*
X-3876680Y-185620D01*
X-3874640Y-181480D01*
X-3872060Y-177700D01*
X-3868940Y-174240D01*
X-3865299Y-171119D01*
X-3861100Y-168359D01*
X-3856380Y-165920D01*
X-3856380Y-160920D01*
X-3862660Y-162960D01*
X-3868140Y-165420D01*
X-3872820Y-168260D01*
X-3876680Y-171520D01*
X-3876680Y-119320D01*
G37*
G36*
X-3181420Y-118420D02*
G01*
X-3185700Y-118859D01*
X-3189520Y-119720D01*
X-3192940Y-121020D01*
X-3195920Y-122760D01*
X-3198500Y-124940D01*
X-3200620Y-127560D01*
X-3202340Y-130600D01*
X-3203620Y-134080D01*
X-3204500Y-137980D01*
X-3204920Y-142340D01*
X-3204940Y-185620D01*
X-3196139Y-185620D01*
X-3196139Y-145220D01*
X-3195980Y-140120D01*
X-3195179Y-135720D01*
X-3193740Y-132020D01*
X-3191660Y-129019D01*
X-3188960Y-126720D01*
X-3185620Y-125120D01*
X-3181640Y-124220D01*
X-3177040Y-124019D01*
X-3172520Y-124340D01*
X-3168600Y-125340D01*
X-3165280Y-127000D01*
X-3162559Y-129320D01*
X-3160460Y-132300D01*
X-3158940Y-135940D01*
X-3158039Y-140240D01*
X-3157740Y-145220D01*
X-3157740Y-185620D01*
X-3148940Y-185620D01*
X-3148940Y-147120D01*
X-3149040Y-142420D01*
X-3149540Y-138160D01*
X-3150460Y-134300D01*
X-3151760Y-130860D01*
X-3153480Y-127840D01*
X-3155600Y-125239D01*
X-3158120Y-123059D01*
X-3161040Y-121300D01*
X-3164360Y-119940D01*
X-3168080Y-119019D01*
X-3172220Y-118500D01*
G37*
G36*
X-3137440Y-119320D02*
G01*
X-3137440Y-185620D01*
X-3128639Y-185620D01*
X-3126600Y-181480D01*
X-3124040Y-177700D01*
X-3120920Y-174240D01*
X-3117260Y-171119D01*
X-3113080Y-168359D01*
X-3108340Y-165920D01*
X-3108340Y-160920D01*
X-3114640Y-162960D01*
X-3120120Y-165420D01*
X-3124780Y-168260D01*
X-3128639Y-171520D01*
X-3128639Y-119320D01*
G37*
G36*
X-2433400Y-118420D02*
G01*
X-2437660Y-118859D01*
X-2441500Y-119720D01*
X-2444900Y-121020D01*
X-2447900Y-122760D01*
X-2450460Y-124940D01*
X-2452600Y-127560D01*
X-2454300Y-130600D01*
X-2455600Y-134080D01*
X-2456460Y-137980D01*
X-2456900Y-142340D01*
X-2456920Y-185620D01*
X-2448120Y-185620D01*
X-2448120Y-145220D01*
X-2447940Y-140120D01*
X-2447140Y-135720D01*
X-2445700Y-132020D01*
X-2443640Y-129019D01*
X-2440940Y-126720D01*
X-2437600Y-125120D01*
X-2433620Y-124220D01*
X-2429000Y-124019D01*
X-2424480Y-124340D01*
X-2420560Y-125340D01*
X-2417240Y-127000D01*
X-2414540Y-129320D01*
X-2412420Y-132300D01*
X-2410920Y-135940D01*
X-2410020Y-140240D01*
X-2409720Y-145220D01*
X-2409720Y-185620D01*
X-2400920Y-185620D01*
X-2400920Y-147120D01*
X-2401020Y-142420D01*
X-2401520Y-138160D01*
X-2402420Y-134300D01*
X-2403740Y-130860D01*
X-2405440Y-127840D01*
X-2407560Y-125239D01*
X-2410080Y-123059D01*
X-2413000Y-121300D01*
X-2416320Y-119940D01*
X-2420040Y-119019D01*
X-2424180Y-118500D01*
G37*
G36*
X-2389420Y-119320D02*
G01*
X-2389420Y-185620D01*
X-2380620Y-185620D01*
X-2378580Y-181480D01*
X-2376000Y-177700D01*
X-2372880Y-174240D01*
X-2369240Y-171119D01*
X-2365040Y-168359D01*
X-2360300Y-165920D01*
X-2360300Y-160920D01*
X-2366600Y-162960D01*
X-2372080Y-165420D01*
X-2376760Y-168260D01*
X-2380620Y-171520D01*
X-2380620Y-119320D01*
G37*
G36*
X-1685360Y-118420D02*
G01*
X-1689620Y-118859D01*
X-1693460Y-119720D01*
X-1696879Y-121020D01*
X-1699860Y-122760D01*
X-1702420Y-124940D01*
X-1704560Y-127560D01*
X-1706279Y-130600D01*
X-1707560Y-134080D01*
X-1708420Y-137980D01*
X-1708860Y-142340D01*
X-1708880Y-185620D01*
X-1700080Y-185620D01*
X-1700080Y-145220D01*
X-1699920Y-140120D01*
X-1699120Y-135720D01*
X-1697680Y-132020D01*
X-1695600Y-129019D01*
X-1692900Y-126720D01*
X-1689560Y-125120D01*
X-1685580Y-124220D01*
X-1680980Y-124019D01*
X-1676459Y-124340D01*
X-1672540Y-125340D01*
X-1669220Y-127000D01*
X-1666500Y-129320D01*
X-1664400Y-132300D01*
X-1662880Y-135940D01*
X-1661980Y-140240D01*
X-1661680Y-145220D01*
X-1661680Y-185620D01*
X-1652880Y-185620D01*
X-1652880Y-147120D01*
X-1652980Y-142420D01*
X-1653480Y-138160D01*
X-1654400Y-134300D01*
X-1655700Y-130860D01*
X-1657420Y-127840D01*
X-1659520Y-125239D01*
X-1662040Y-123059D01*
X-1664960Y-121300D01*
X-1668300Y-119940D01*
X-1672020Y-119019D01*
X-1676140Y-118500D01*
G37*
G36*
X-1641380Y-119320D02*
G01*
X-1641380Y-185620D01*
X-1632580Y-185620D01*
X-1630540Y-181480D01*
X-1627960Y-177700D01*
X-1624860Y-174240D01*
X-1621200Y-171119D01*
X-1617000Y-168359D01*
X-1612280Y-165920D01*
X-1612280Y-160920D01*
X-1618580Y-162960D01*
X-1624060Y-165420D01*
X-1628720Y-168260D01*
X-1632580Y-171520D01*
X-1632580Y-119320D01*
G37*
G36*
X-937340Y-118420D02*
G01*
X-941600Y-118859D01*
X-945440Y-119720D01*
X-948840Y-121020D01*
X-951840Y-122760D01*
X-954400Y-124940D01*
X-956540Y-127560D01*
X-958240Y-130600D01*
X-959539Y-134080D01*
X-960400Y-137980D01*
X-960840Y-142340D01*
X-960840Y-185620D01*
X-952039Y-185620D01*
X-952039Y-145220D01*
X-951880Y-140120D01*
X-951080Y-135720D01*
X-949640Y-132020D01*
X-947580Y-129019D01*
X-944860Y-126720D01*
X-941520Y-125120D01*
X-937560Y-124220D01*
X-932940Y-124019D01*
X-928420Y-124340D01*
X-924500Y-125340D01*
X-921180Y-127000D01*
X-918480Y-129320D01*
X-916360Y-132300D01*
X-914860Y-135940D01*
X-913940Y-140240D01*
X-913640Y-145220D01*
X-913640Y-185620D01*
X-904840Y-185620D01*
X-904840Y-147120D01*
X-904940Y-142420D01*
X-905460Y-138160D01*
X-906360Y-134300D01*
X-907660Y-130860D01*
X-909380Y-127840D01*
X-911500Y-125239D01*
X-914020Y-123059D01*
X-916940Y-121300D01*
X-920260Y-119940D01*
X-923980Y-119019D01*
X-928120Y-118500D01*
G37*
G36*
X-893340Y-119320D02*
G01*
X-893340Y-185620D01*
X-884539Y-185620D01*
X-882520Y-181480D01*
X-879940Y-177700D01*
X-876820Y-174240D01*
X-873160Y-171119D01*
X-868980Y-168359D01*
X-864240Y-165920D01*
X-864240Y-160920D01*
X-870540Y-162960D01*
X-876020Y-165420D01*
X-880699Y-168260D01*
X-884539Y-171520D01*
X-884539Y-119320D01*
G37*
G36*
X1306759Y-118420D02*
G01*
X1302500Y-118859D01*
X1298660Y-119720D01*
X1295240Y-121020D01*
X1292260Y-122760D01*
X1289700Y-124940D01*
X1287560Y-127560D01*
X1285840Y-130600D01*
X1284560Y-134080D01*
X1283700Y-137980D01*
X1283260Y-142340D01*
X1283240Y-185620D01*
X1292040Y-185620D01*
X1292040Y-145220D01*
X1292220Y-140120D01*
X1293020Y-135720D01*
X1294460Y-132020D01*
X1296519Y-129019D01*
X1299220Y-126720D01*
X1302560Y-125120D01*
X1306540Y-124220D01*
X1311140Y-124019D01*
X1315680Y-124340D01*
X1319600Y-125340D01*
X1322900Y-127000D01*
X1325620Y-129320D01*
X1327740Y-132300D01*
X1329240Y-135940D01*
X1330140Y-140240D01*
X1330440Y-145220D01*
X1330440Y-185620D01*
X1339240Y-185620D01*
X1339240Y-147120D01*
X1339139Y-142420D01*
X1338640Y-138160D01*
X1337740Y-134300D01*
X1336420Y-130860D01*
X1334720Y-127840D01*
X1332600Y-125239D01*
X1330080Y-123059D01*
X1327160Y-121300D01*
X1323839Y-119940D01*
X1320100Y-119019D01*
X1315980Y-118500D01*
G37*
G36*
X1350740Y-119320D02*
G01*
X1350740Y-185620D01*
X1359540Y-185620D01*
X1361579Y-181480D01*
X1364160Y-177700D01*
X1367280Y-174240D01*
X1370920Y-171119D01*
X1375120Y-168359D01*
X1379840Y-165920D01*
X1379840Y-160920D01*
X1373560Y-162960D01*
X1368080Y-165420D01*
X1363400Y-168260D01*
X1359540Y-171520D01*
X1359540Y-119320D01*
G37*
G36*
X2054800Y-118420D02*
G01*
X2050520Y-118859D01*
X2046699Y-119720D01*
X2043280Y-121020D01*
X2040300Y-122760D01*
X2037720Y-124940D01*
X2035600Y-127560D01*
X2033880Y-130600D01*
X2032600Y-134080D01*
X2031720Y-137980D01*
X2031300Y-142340D01*
X2031279Y-185620D01*
X2040080Y-185620D01*
X2040080Y-145220D01*
X2040240Y-140120D01*
X2041040Y-135720D01*
X2042480Y-132020D01*
X2044560Y-129019D01*
X2047260Y-126720D01*
X2050600Y-125120D01*
X2054580Y-124220D01*
X2059180Y-124019D01*
X2063700Y-124340D01*
X2067620Y-125340D01*
X2070940Y-127000D01*
X2073660Y-129320D01*
X2075760Y-132300D01*
X2077280Y-135940D01*
X2078180Y-140240D01*
X2078480Y-145220D01*
X2078480Y-185620D01*
X2087280Y-185620D01*
X2087280Y-147120D01*
X2087180Y-142420D01*
X2086680Y-138160D01*
X2085760Y-134300D01*
X2084460Y-130860D01*
X2082740Y-127840D01*
X2080620Y-125239D01*
X2078120Y-123059D01*
X2075200Y-121300D01*
X2071860Y-119940D01*
X2068140Y-119019D01*
X2064019Y-118500D01*
G37*
G36*
X2098780Y-119320D02*
G01*
X2098780Y-185620D01*
X2107580Y-185620D01*
X2109620Y-181480D01*
X2112200Y-177700D01*
X2115300Y-174240D01*
X2118960Y-171119D01*
X2123140Y-168359D01*
X2127880Y-165920D01*
X2127880Y-160920D01*
X2121580Y-162960D01*
X2116100Y-165420D01*
X2111440Y-168260D01*
X2107580Y-171520D01*
X2107580Y-119320D01*
G37*
G36*
X2802820Y-118420D02*
G01*
X2798560Y-118859D01*
X2794720Y-119720D01*
X2791320Y-121020D01*
X2788320Y-122760D01*
X2785760Y-124940D01*
X2783620Y-127560D01*
X2781920Y-130600D01*
X2780620Y-134080D01*
X2779760Y-137980D01*
X2779320Y-142340D01*
X2779300Y-185620D01*
X2788100Y-185620D01*
X2788100Y-145220D01*
X2788279Y-140120D01*
X2789080Y-135720D01*
X2790520Y-132020D01*
X2792580Y-129019D01*
X2795280Y-126720D01*
X2798620Y-125120D01*
X2802600Y-124220D01*
X2807200Y-124019D01*
X2811740Y-124340D01*
X2815659Y-125340D01*
X2818980Y-127000D01*
X2821680Y-129320D01*
X2823800Y-132300D01*
X2825299Y-135940D01*
X2826200Y-140240D01*
X2826500Y-145220D01*
X2826500Y-185620D01*
X2835299Y-185620D01*
X2835299Y-147120D01*
X2835200Y-142420D01*
X2834700Y-138160D01*
X2833800Y-134300D01*
X2832480Y-130860D01*
X2830779Y-127840D01*
X2828660Y-125239D01*
X2826139Y-123059D01*
X2823220Y-121300D01*
X2819900Y-119940D01*
X2816180Y-119019D01*
X2812040Y-118500D01*
G37*
G36*
X2846800Y-119320D02*
G01*
X2846800Y-185620D01*
X2855600Y-185620D01*
X2857640Y-181480D01*
X2860220Y-177700D01*
X2863340Y-174240D01*
X2866980Y-171119D01*
X2871180Y-168359D01*
X2875899Y-165920D01*
X2875899Y-160920D01*
X2869620Y-162960D01*
X2864140Y-165420D01*
X2859460Y-168260D01*
X2855600Y-171520D01*
X2855600Y-119320D01*
G37*
G36*
X3550860Y-118420D02*
G01*
X3546600Y-118859D01*
X3542760Y-119720D01*
X3539340Y-121020D01*
X3536360Y-122760D01*
X3533800Y-124940D01*
X3531660Y-127560D01*
X3529940Y-130600D01*
X3528660Y-134080D01*
X3527799Y-137980D01*
X3527360Y-142340D01*
X3527340Y-185620D01*
X3536139Y-185620D01*
X3536139Y-145220D01*
X3536300Y-140120D01*
X3537120Y-135720D01*
X3538540Y-132020D01*
X3540620Y-129019D01*
X3543320Y-126720D01*
X3546660Y-125120D01*
X3550640Y-124220D01*
X3555240Y-124019D01*
X3559760Y-124340D01*
X3563680Y-125340D01*
X3567000Y-127000D01*
X3569720Y-129320D01*
X3571820Y-132300D01*
X3573340Y-135940D01*
X3574240Y-140240D01*
X3574540Y-145220D01*
X3574540Y-185620D01*
X3583340Y-185620D01*
X3583340Y-147120D01*
X3583240Y-142420D01*
X3582740Y-138160D01*
X3581820Y-134300D01*
X3580520Y-130860D01*
X3578800Y-127840D01*
X3576700Y-125239D01*
X3574180Y-123059D01*
X3571259Y-121300D01*
X3567919Y-119940D01*
X3564200Y-119019D01*
X3560080Y-118500D01*
G37*
G36*
X3594840Y-119320D02*
G01*
X3594840Y-185620D01*
X3603639Y-185620D01*
X3605680Y-181480D01*
X3608260Y-177700D01*
X3611360Y-174240D01*
X3615020Y-171119D01*
X3619220Y-168359D01*
X3623940Y-165920D01*
X3623940Y-160920D01*
X3617640Y-162960D01*
X3612160Y-165420D01*
X3607500Y-168260D01*
X3603639Y-171520D01*
X3603639Y-119320D01*
G37*
G36*
X4298880Y-118420D02*
G01*
X4294620Y-118859D01*
X4290780Y-119720D01*
X4287380Y-121020D01*
X4284380Y-122760D01*
X4281820Y-124940D01*
X4279680Y-127560D01*
X4277980Y-130600D01*
X4276680Y-134080D01*
X4275820Y-137980D01*
X4275380Y-142340D01*
X4275380Y-185620D01*
X4284180Y-185620D01*
X4284180Y-145220D01*
X4284340Y-140120D01*
X4285140Y-135720D01*
X4286580Y-132020D01*
X4288640Y-129019D01*
X4291360Y-126720D01*
X4294700Y-125120D01*
X4298660Y-124220D01*
X4303280Y-124019D01*
X4307800Y-124340D01*
X4311720Y-125340D01*
X4315040Y-127000D01*
X4317740Y-129320D01*
X4319860Y-132300D01*
X4321360Y-135940D01*
X4322280Y-140240D01*
X4322580Y-145220D01*
X4322580Y-185620D01*
X4331380Y-185620D01*
X4331380Y-147120D01*
X4331280Y-142420D01*
X4330760Y-138160D01*
X4329860Y-134300D01*
X4328560Y-130860D01*
X4326840Y-127840D01*
X4324720Y-125239D01*
X4322200Y-123059D01*
X4319280Y-121300D01*
X4315960Y-119940D01*
X4312240Y-119019D01*
X4308100Y-118500D01*
G37*
G36*
X4342880Y-119320D02*
G01*
X4342880Y-185620D01*
X4351680Y-185620D01*
X4353700Y-181480D01*
X4356280Y-177700D01*
X4359400Y-174240D01*
X4363060Y-171119D01*
X4367240Y-168359D01*
X4371980Y-165920D01*
X4371980Y-160920D01*
X4365680Y-162960D01*
X4360200Y-165420D01*
X4355520Y-168260D01*
X4351680Y-171520D01*
X4351680Y-119320D01*
G37*
G36*
X-3929460Y-866440D02*
G01*
X-3933720Y-866880D01*
X-3937559Y-867760D01*
X-3940980Y-869060D01*
X-3943960Y-870800D01*
X-3946520Y-872980D01*
X-3948660Y-875580D01*
X-3950380Y-878620D01*
X-3951660Y-882099D01*
X-3952520Y-886020D01*
X-3952960Y-890360D01*
X-3952980Y-933640D01*
X-3944180Y-933640D01*
X-3944180Y-893240D01*
X-3944000Y-888139D01*
X-3943200Y-883740D01*
X-3941760Y-880040D01*
X-3939700Y-877039D01*
X-3937000Y-874740D01*
X-3933660Y-873139D01*
X-3929680Y-872240D01*
X-3925080Y-872039D01*
X-3920539Y-872380D01*
X-3916620Y-873379D01*
X-3913320Y-875020D01*
X-3910600Y-877340D01*
X-3908480Y-880320D01*
X-3906980Y-883980D01*
X-3906080Y-888280D01*
X-3905779Y-893240D01*
X-3905779Y-933640D01*
X-3896980Y-933640D01*
X-3896980Y-895140D01*
X-3897080Y-890460D01*
X-3897580Y-886180D01*
X-3898480Y-882320D01*
X-3899800Y-878900D01*
X-3901500Y-875879D01*
X-3903620Y-873280D01*
X-3906139Y-871080D01*
X-3909060Y-869320D01*
X-3912380Y-867980D01*
X-3916120Y-867039D01*
X-3920240Y-866540D01*
X-3924780Y-866440D01*
G37*
G36*
X-3885480Y-867340D02*
G01*
X-3885480Y-933640D01*
X-3876680Y-933640D01*
X-3874640Y-929520D01*
X-3872060Y-925720D01*
X-3868940Y-922280D01*
X-3865299Y-919160D01*
X-3861100Y-916380D01*
X-3856380Y-913940D01*
X-3856380Y-908940D01*
X-3862660Y-911000D01*
X-3868140Y-913439D01*
X-3872820Y-916300D01*
X-3876680Y-919539D01*
X-3876680Y-867340D01*
G37*
G36*
X-3181420Y-866440D02*
G01*
X-3185700Y-866880D01*
X-3189520Y-867760D01*
X-3192940Y-869060D01*
X-3195920Y-870800D01*
X-3198500Y-872980D01*
X-3200620Y-875580D01*
X-3202340Y-878620D01*
X-3203620Y-882099D01*
X-3204500Y-886020D01*
X-3204920Y-890360D01*
X-3204940Y-933640D01*
X-3196139Y-933640D01*
X-3196139Y-893240D01*
X-3195980Y-888139D01*
X-3195179Y-883740D01*
X-3193740Y-880040D01*
X-3191660Y-877039D01*
X-3188960Y-874740D01*
X-3185620Y-873139D01*
X-3181640Y-872240D01*
X-3177040Y-872039D01*
X-3172520Y-872380D01*
X-3168600Y-873379D01*
X-3165280Y-875020D01*
X-3162559Y-877340D01*
X-3160460Y-880320D01*
X-3158940Y-883980D01*
X-3158039Y-888280D01*
X-3157740Y-893240D01*
X-3157740Y-933640D01*
X-3148940Y-933640D01*
X-3148940Y-895140D01*
X-3149040Y-890460D01*
X-3149540Y-886180D01*
X-3150460Y-882320D01*
X-3151760Y-878900D01*
X-3153480Y-875879D01*
X-3155600Y-873280D01*
X-3158120Y-871080D01*
X-3161040Y-869320D01*
X-3164360Y-867980D01*
X-3168080Y-867039D01*
X-3172220Y-866540D01*
X-3176740Y-866440D01*
G37*
G36*
X-3137440Y-867340D02*
G01*
X-3137440Y-933640D01*
X-3128639Y-933640D01*
X-3126600Y-929520D01*
X-3124040Y-925720D01*
X-3120920Y-922280D01*
X-3117260Y-919160D01*
X-3113080Y-916380D01*
X-3108340Y-913940D01*
X-3108340Y-908940D01*
X-3114640Y-911000D01*
X-3120120Y-913439D01*
X-3124780Y-916300D01*
X-3128639Y-919539D01*
X-3128639Y-867340D01*
G37*
G36*
X-2433400Y-866440D02*
G01*
X-2437660Y-866880D01*
X-2441500Y-867760D01*
X-2444900Y-869060D01*
X-2447900Y-870800D01*
X-2450460Y-872980D01*
X-2452600Y-875580D01*
X-2454300Y-878620D01*
X-2455600Y-882099D01*
X-2456460Y-886020D01*
X-2456900Y-890360D01*
X-2456920Y-933640D01*
X-2448120Y-933640D01*
X-2448120Y-893240D01*
X-2447940Y-888139D01*
X-2447140Y-883740D01*
X-2445700Y-880040D01*
X-2443640Y-877039D01*
X-2440940Y-874740D01*
X-2437600Y-873139D01*
X-2433620Y-872240D01*
X-2429000Y-872039D01*
X-2424480Y-872380D01*
X-2420560Y-873379D01*
X-2417240Y-875020D01*
X-2414540Y-877340D01*
X-2412420Y-880320D01*
X-2410920Y-883980D01*
X-2410020Y-888280D01*
X-2409720Y-893240D01*
X-2409720Y-933640D01*
X-2400920Y-933640D01*
X-2400920Y-895140D01*
X-2401020Y-890460D01*
X-2401520Y-886180D01*
X-2402420Y-882320D01*
X-2403740Y-878900D01*
X-2405440Y-875879D01*
X-2407560Y-873280D01*
X-2410080Y-871080D01*
X-2413000Y-869320D01*
X-2416320Y-867980D01*
X-2420040Y-867039D01*
X-2424180Y-866540D01*
X-2428720Y-866440D01*
G37*
G36*
X-2389420Y-867340D02*
G01*
X-2389420Y-933640D01*
X-2380620Y-933640D01*
X-2378580Y-929520D01*
X-2376000Y-925720D01*
X-2372880Y-922280D01*
X-2369240Y-919160D01*
X-2365040Y-916380D01*
X-2360300Y-913940D01*
X-2360300Y-908940D01*
X-2366600Y-911000D01*
X-2372080Y-913439D01*
X-2376760Y-916300D01*
X-2380620Y-919539D01*
X-2380620Y-867340D01*
G37*
G36*
X-1685360Y-866440D02*
G01*
X-1689620Y-866880D01*
X-1693460Y-867760D01*
X-1696879Y-869060D01*
X-1699860Y-870800D01*
X-1702420Y-872980D01*
X-1704560Y-875580D01*
X-1706279Y-878620D01*
X-1707560Y-882099D01*
X-1708420Y-886020D01*
X-1708860Y-890360D01*
X-1708880Y-933640D01*
X-1700080Y-933640D01*
X-1700080Y-893240D01*
X-1699920Y-888139D01*
X-1699120Y-883740D01*
X-1697680Y-880040D01*
X-1695600Y-877039D01*
X-1692900Y-874740D01*
X-1689560Y-873139D01*
X-1685580Y-872240D01*
X-1680980Y-872039D01*
X-1676459Y-872380D01*
X-1672540Y-873379D01*
X-1669220Y-875020D01*
X-1666500Y-877340D01*
X-1664400Y-880320D01*
X-1662880Y-883980D01*
X-1661980Y-888280D01*
X-1661680Y-893240D01*
X-1661680Y-933640D01*
X-1652880Y-933640D01*
X-1652880Y-895140D01*
X-1652980Y-890460D01*
X-1653480Y-886180D01*
X-1654400Y-882320D01*
X-1655700Y-878900D01*
X-1657420Y-875879D01*
X-1659520Y-873280D01*
X-1662040Y-871080D01*
X-1664960Y-869320D01*
X-1668300Y-867980D01*
X-1672020Y-867039D01*
X-1676140Y-866540D01*
X-1680680Y-866440D01*
G37*
G36*
X-1641380Y-867340D02*
G01*
X-1641380Y-933640D01*
X-1632580Y-933640D01*
X-1630540Y-929520D01*
X-1627960Y-925720D01*
X-1624860Y-922280D01*
X-1621200Y-919160D01*
X-1617000Y-916380D01*
X-1612280Y-913940D01*
X-1612280Y-908940D01*
X-1618580Y-911000D01*
X-1624060Y-913439D01*
X-1628720Y-916300D01*
X-1632580Y-919539D01*
X-1632580Y-867340D01*
G37*
G36*
X-937340Y-866440D02*
G01*
X-941600Y-866880D01*
X-945440Y-867760D01*
X-948840Y-869060D01*
X-951840Y-870800D01*
X-954400Y-872980D01*
X-956540Y-875580D01*
X-958240Y-878620D01*
X-959539Y-882099D01*
X-960400Y-886020D01*
X-960840Y-890360D01*
X-960840Y-933640D01*
X-952039Y-933640D01*
X-952039Y-893240D01*
X-951880Y-888139D01*
X-951080Y-883740D01*
X-949640Y-880040D01*
X-947580Y-877039D01*
X-944860Y-874740D01*
X-941520Y-873139D01*
X-937560Y-872240D01*
X-932940Y-872039D01*
X-928420Y-872380D01*
X-924500Y-873379D01*
X-921180Y-875020D01*
X-918480Y-877340D01*
X-916360Y-880320D01*
X-914860Y-883980D01*
X-913940Y-888280D01*
X-913640Y-893240D01*
X-913640Y-933640D01*
X-904840Y-933640D01*
X-904840Y-895140D01*
X-904940Y-890460D01*
X-905460Y-886180D01*
X-906360Y-882320D01*
X-907660Y-878900D01*
X-909380Y-875879D01*
X-911500Y-873280D01*
X-914020Y-871080D01*
X-916940Y-869320D01*
X-920260Y-867980D01*
X-923980Y-867039D01*
X-928120Y-866540D01*
X-932640Y-866440D01*
G37*
G36*
X-893340Y-867340D02*
G01*
X-893340Y-933640D01*
X-884539Y-933640D01*
X-882520Y-929520D01*
X-879940Y-925720D01*
X-876820Y-922280D01*
X-873160Y-919160D01*
X-868980Y-916380D01*
X-864240Y-913940D01*
X-864240Y-908940D01*
X-870540Y-911000D01*
X-876020Y-913439D01*
X-880699Y-916300D01*
X-884539Y-919539D01*
X-884539Y-867340D01*
G37*
G36*
X-189300Y-866440D02*
G01*
X-193560Y-866880D01*
X-197399Y-867760D01*
X-200820Y-869060D01*
X-203800Y-870800D01*
X-206360Y-872980D01*
X-208500Y-875580D01*
X-210219Y-878620D01*
X-211500Y-882099D01*
X-212360Y-886020D01*
X-212800Y-890360D01*
X-212820Y-933640D01*
X-204020Y-933640D01*
X-204020Y-893240D01*
X-203840Y-888139D01*
X-203039Y-883740D01*
X-201620Y-880040D01*
X-199540Y-877039D01*
X-196840Y-874740D01*
X-193500Y-873139D01*
X-189520Y-872240D01*
X-184920Y-872039D01*
X-180400Y-872380D01*
X-176480Y-873379D01*
X-173160Y-875020D01*
X-170440Y-877340D01*
X-168340Y-880320D01*
X-166820Y-883980D01*
X-165920Y-888280D01*
X-165620Y-893240D01*
X-165620Y-933640D01*
X-156820Y-933640D01*
X-156820Y-895140D01*
X-156920Y-890460D01*
X-157420Y-886180D01*
X-158320Y-882320D01*
X-159640Y-878900D01*
X-161360Y-875879D01*
X-163460Y-873280D01*
X-165980Y-871080D01*
X-168900Y-869320D01*
X-172220Y-867980D01*
X-175960Y-867039D01*
X-180080Y-866540D01*
X-184620Y-866440D01*
G37*
G36*
X-145320Y-867340D02*
G01*
X-145320Y-933640D01*
X-136520Y-933640D01*
X-134480Y-929520D01*
X-131900Y-925720D01*
X-128800Y-922280D01*
X-125140Y-919160D01*
X-120940Y-916380D01*
X-116220Y-913940D01*
X-116220Y-908940D01*
X-122500Y-911000D01*
X-128000Y-913439D01*
X-132660Y-916300D01*
X-136520Y-919539D01*
X-136520Y-867340D01*
G37*
G36*
X558720Y-866440D02*
G01*
X554460Y-866880D01*
X550620Y-867760D01*
X547220Y-869060D01*
X544220Y-870800D01*
X541660Y-872980D01*
X539520Y-875580D01*
X537820Y-878620D01*
X536520Y-882099D01*
X535660Y-886020D01*
X535220Y-890360D01*
X535220Y-933640D01*
X544020Y-933640D01*
X544020Y-893240D01*
X544180Y-888139D01*
X544980Y-883740D01*
X546420Y-880040D01*
X548500Y-877039D01*
X551200Y-874740D01*
X554540Y-873139D01*
X558500Y-872240D01*
X563120Y-872039D01*
X567640Y-872380D01*
X571560Y-873379D01*
X574880Y-875020D01*
X577600Y-877340D01*
X579700Y-880320D01*
X581200Y-883980D01*
X582120Y-888280D01*
X582420Y-893240D01*
X582420Y-933640D01*
X591220Y-933640D01*
X591220Y-895140D01*
X591120Y-890460D01*
X590620Y-886180D01*
X589700Y-882320D01*
X588400Y-878900D01*
X586680Y-875879D01*
X584560Y-873280D01*
X582040Y-871080D01*
X579120Y-869320D01*
X575800Y-867980D01*
X572080Y-867039D01*
X567940Y-866540D01*
X563420Y-866440D01*
G37*
G36*
X602720Y-867340D02*
G01*
X602720Y-933640D01*
X611520Y-933640D01*
X613560Y-929520D01*
X616120Y-925720D01*
X619240Y-922280D01*
X622900Y-919160D01*
X627080Y-916380D01*
X631820Y-913940D01*
X631820Y-908940D01*
X625520Y-911000D01*
X620040Y-913439D01*
X615380Y-916300D01*
X611520Y-919539D01*
X611520Y-867340D01*
G37*
G36*
X1306759Y-866440D02*
G01*
X1302500Y-866880D01*
X1298660Y-867760D01*
X1295240Y-869060D01*
X1292260Y-870800D01*
X1289700Y-872980D01*
X1287560Y-875580D01*
X1285840Y-878620D01*
X1284560Y-882099D01*
X1283700Y-886020D01*
X1283260Y-890360D01*
X1283240Y-933640D01*
X1292040Y-933640D01*
X1292040Y-893240D01*
X1292220Y-888139D01*
X1293020Y-883740D01*
X1294460Y-880040D01*
X1296519Y-877039D01*
X1299220Y-874740D01*
X1302560Y-873139D01*
X1306540Y-872240D01*
X1311140Y-872039D01*
X1315680Y-872380D01*
X1319600Y-873379D01*
X1322900Y-875020D01*
X1325620Y-877340D01*
X1327740Y-880320D01*
X1329240Y-883980D01*
X1330140Y-888280D01*
X1330440Y-893240D01*
X1330440Y-933640D01*
X1339240Y-933640D01*
X1339240Y-895140D01*
X1339139Y-890460D01*
X1338640Y-886180D01*
X1337740Y-882320D01*
X1336420Y-878900D01*
X1334720Y-875879D01*
X1332600Y-873280D01*
X1330080Y-871080D01*
X1327160Y-869320D01*
X1323839Y-867980D01*
X1320100Y-867039D01*
X1315980Y-866540D01*
X1311440Y-866440D01*
G37*
G36*
X1350740Y-867340D02*
G01*
X1350740Y-933640D01*
X1359540Y-933640D01*
X1361579Y-929520D01*
X1364160Y-925720D01*
X1367280Y-922280D01*
X1370920Y-919160D01*
X1375120Y-916380D01*
X1379840Y-913940D01*
X1379840Y-908940D01*
X1373560Y-911000D01*
X1368080Y-913439D01*
X1363400Y-916300D01*
X1359540Y-919539D01*
X1359540Y-867340D01*
G37*
G36*
X2054800Y-866440D02*
G01*
X2050520Y-866880D01*
X2046699Y-867760D01*
X2043280Y-869060D01*
X2040300Y-870800D01*
X2037720Y-872980D01*
X2035600Y-875580D01*
X2033880Y-878620D01*
X2032600Y-882099D01*
X2031720Y-886020D01*
X2031300Y-890360D01*
X2031279Y-933640D01*
X2040080Y-933640D01*
X2040080Y-893240D01*
X2040240Y-888139D01*
X2041040Y-883740D01*
X2042480Y-880040D01*
X2044560Y-877039D01*
X2047260Y-874740D01*
X2050600Y-873139D01*
X2054580Y-872240D01*
X2059180Y-872039D01*
X2063700Y-872380D01*
X2067620Y-873379D01*
X2070940Y-875020D01*
X2073660Y-877340D01*
X2075760Y-880320D01*
X2077280Y-883980D01*
X2078180Y-888280D01*
X2078480Y-893240D01*
X2078480Y-933640D01*
X2087280Y-933640D01*
X2087280Y-895140D01*
X2087180Y-890460D01*
X2086680Y-886180D01*
X2085760Y-882320D01*
X2084460Y-878900D01*
X2082740Y-875879D01*
X2080620Y-873280D01*
X2078120Y-871080D01*
X2075200Y-869320D01*
X2071860Y-867980D01*
X2068140Y-867039D01*
X2064019Y-866540D01*
X2059480Y-866440D01*
G37*
G36*
X2098780Y-867340D02*
G01*
X2098780Y-933640D01*
X2107580Y-933640D01*
X2109620Y-929520D01*
X2112200Y-925720D01*
X2115300Y-922280D01*
X2118960Y-919160D01*
X2123140Y-916380D01*
X2127880Y-913940D01*
X2127880Y-908940D01*
X2121580Y-911000D01*
X2116100Y-913439D01*
X2111440Y-916300D01*
X2107580Y-919539D01*
X2107580Y-867340D01*
G37*
G36*
X2802820Y-866440D02*
G01*
X2798560Y-866880D01*
X2794720Y-867760D01*
X2791320Y-869060D01*
X2788320Y-870800D01*
X2785760Y-872980D01*
X2783620Y-875580D01*
X2781920Y-878620D01*
X2780620Y-882099D01*
X2779760Y-886020D01*
X2779320Y-890360D01*
X2779300Y-933640D01*
X2788100Y-933640D01*
X2788100Y-893240D01*
X2788279Y-888139D01*
X2789080Y-883740D01*
X2790520Y-880040D01*
X2792580Y-877039D01*
X2795280Y-874740D01*
X2798620Y-873139D01*
X2802600Y-872240D01*
X2807200Y-872039D01*
X2811740Y-872380D01*
X2815659Y-873379D01*
X2818980Y-875020D01*
X2821680Y-877340D01*
X2823800Y-880320D01*
X2825299Y-883980D01*
X2826200Y-888280D01*
X2826500Y-893240D01*
X2826500Y-933640D01*
X2835299Y-933640D01*
X2835299Y-895140D01*
X2835200Y-890460D01*
X2834700Y-886180D01*
X2833800Y-882320D01*
X2832480Y-878900D01*
X2830779Y-875879D01*
X2828660Y-873280D01*
X2826139Y-871080D01*
X2823220Y-869320D01*
X2819900Y-867980D01*
X2816180Y-867039D01*
X2812040Y-866540D01*
X2807500Y-866440D01*
G37*
G36*
X2846800Y-867340D02*
G01*
X2846800Y-933640D01*
X2855600Y-933640D01*
X2857640Y-929520D01*
X2860220Y-925720D01*
X2863340Y-922280D01*
X2866980Y-919160D01*
X2871180Y-916380D01*
X2875899Y-913940D01*
X2875899Y-908940D01*
X2869620Y-911000D01*
X2864140Y-913439D01*
X2859460Y-916300D01*
X2855600Y-919539D01*
X2855600Y-867340D01*
G37*
G36*
X3550860Y-866440D02*
G01*
X3546600Y-866880D01*
X3542760Y-867760D01*
X3539340Y-869060D01*
X3536360Y-870800D01*
X3533800Y-872980D01*
X3531660Y-875580D01*
X3529940Y-878620D01*
X3528660Y-882099D01*
X3527799Y-886020D01*
X3527360Y-890360D01*
X3527340Y-933640D01*
X3536139Y-933640D01*
X3536139Y-893240D01*
X3536300Y-888139D01*
X3537120Y-883740D01*
X3538540Y-880040D01*
X3540620Y-877039D01*
X3543320Y-874740D01*
X3546660Y-873139D01*
X3550640Y-872240D01*
X3555240Y-872039D01*
X3559760Y-872380D01*
X3563680Y-873379D01*
X3567000Y-875020D01*
X3569720Y-877340D01*
X3571820Y-880320D01*
X3573340Y-883980D01*
X3574240Y-888280D01*
X3574540Y-893240D01*
X3574540Y-933640D01*
X3583340Y-933640D01*
X3583340Y-895140D01*
X3583240Y-890460D01*
X3582740Y-886180D01*
X3581820Y-882320D01*
X3580520Y-878900D01*
X3578800Y-875879D01*
X3576700Y-873280D01*
X3574180Y-871080D01*
X3571259Y-869320D01*
X3567919Y-867980D01*
X3564200Y-867039D01*
X3560080Y-866540D01*
X3555539Y-866440D01*
G37*
G36*
X3594840Y-867340D02*
G01*
X3594840Y-933640D01*
X3603639Y-933640D01*
X3605680Y-929520D01*
X3608260Y-925720D01*
X3611360Y-922280D01*
X3615020Y-919160D01*
X3619220Y-916380D01*
X3623940Y-913940D01*
X3623940Y-908940D01*
X3617640Y-911000D01*
X3612160Y-913439D01*
X3607500Y-916300D01*
X3603639Y-919539D01*
X3603639Y-867340D01*
G37*
G36*
X4298880Y-866440D02*
G01*
X4294620Y-866880D01*
X4290780Y-867760D01*
X4287380Y-869060D01*
X4284380Y-870800D01*
X4281820Y-872980D01*
X4279680Y-875580D01*
X4277980Y-878620D01*
X4276680Y-882099D01*
X4275820Y-886020D01*
X4275380Y-890360D01*
X4275380Y-933640D01*
X4284180Y-933640D01*
X4284180Y-893240D01*
X4284340Y-888139D01*
X4285140Y-883740D01*
X4286580Y-880040D01*
X4288640Y-877039D01*
X4291360Y-874740D01*
X4294700Y-873139D01*
X4298660Y-872240D01*
X4303280Y-872039D01*
X4307800Y-872380D01*
X4311720Y-873379D01*
X4315040Y-875020D01*
X4317740Y-877340D01*
X4319860Y-880320D01*
X4321360Y-883980D01*
X4322280Y-888280D01*
X4322580Y-893240D01*
X4322580Y-933640D01*
X4331380Y-933640D01*
X4331380Y-895140D01*
X4331280Y-890460D01*
X4330760Y-886180D01*
X4329860Y-882320D01*
X4328560Y-878900D01*
X4326840Y-875879D01*
X4324720Y-873280D01*
X4322200Y-871080D01*
X4319280Y-869320D01*
X4315960Y-867980D01*
X4312240Y-867039D01*
X4308100Y-866540D01*
X4303580Y-866440D01*
G37*
G36*
X4342880Y-867340D02*
G01*
X4342880Y-933640D01*
X4351680Y-933640D01*
X4353700Y-929520D01*
X4356280Y-925720D01*
X4359400Y-922280D01*
X4363060Y-919160D01*
X4367240Y-916380D01*
X4371980Y-913940D01*
X4371980Y-908940D01*
X4365680Y-911000D01*
X4360200Y-913439D01*
X4355520Y-916300D01*
X4351680Y-919539D01*
X4351680Y-867340D01*
G37*
D35*
X214952Y-352815D02*
G01*
X219052Y-350715D01*
X225252Y-344616D01*
X225252Y-387516D01*
X238752Y-344616D02*
G01*
X238752Y-387516D01*
X259152Y-358915D02*
G01*
X238752Y-379315D01*
X246952Y-371215D02*
G01*
X261252Y-387516D01*
X-165047Y-357815D02*
G01*
X-160947Y-355715D01*
X-154747Y-349616D01*
X-154747Y-392516D01*
X-141247Y-349616D02*
G01*
X-141247Y-392516D01*
X-120847Y-363915D02*
G01*
X-141247Y-384315D01*
X-133047Y-376215D02*
G01*
X-118747Y-392516D01*
X-165047Y-412815D02*
G01*
X-160947Y-410715D01*
X-154747Y-404616D01*
X-154747Y-447516D01*
X-141247Y-404616D02*
G01*
X-141247Y-447516D01*
X-120847Y-418915D02*
G01*
X-141247Y-439315D01*
X-133047Y-431215D02*
G01*
X-118747Y-447516D01*
X-590384Y424953D02*
G01*
X-547484Y424953D01*
X-590384Y424953D02*
G01*
X-590384Y443452D01*
X-588384Y449553D01*
X-586284Y451552D01*
X-582184Y453652D01*
X-578184Y453652D01*
X-574084Y451552D01*
X-571984Y449553D01*
X-569984Y443452D01*
X-569984Y424953D01*
X-569984Y439353D02*
G01*
X-547484Y453652D01*
X-584284Y495752D02*
G01*
X-588384Y491653D01*
X-590384Y485552D01*
X-590384Y477352D01*
X-588384Y471253D01*
X-584284Y467152D01*
X-580183Y467152D01*
X-576084Y469153D01*
X-574084Y471253D01*
X-571984Y475353D01*
X-567884Y487553D01*
X-565884Y491653D01*
X-563784Y493753D01*
X-559684Y495752D01*
X-553584Y495752D01*
X-549484Y491653D01*
X-547484Y485552D01*
X-547484Y477352D01*
X-549484Y471253D01*
X-553584Y467152D01*
X-590384Y523553D02*
G01*
X-547484Y523553D01*
X-590384Y509252D02*
G01*
X-590384Y537953D01*
X4359952Y-262815D02*
G01*
X4364052Y-260715D01*
X4370252Y-254616D01*
X4370252Y-297516D01*
X4357052Y-439816D02*
G01*
X4357052Y-437815D01*
X4359052Y-433715D01*
X4361152Y-431615D01*
X4365252Y-429616D01*
X4373452Y-429616D01*
X4377452Y-431615D01*
X4379552Y-433715D01*
X4381552Y-437815D01*
X4381552Y-441815D01*
X4379552Y-445915D01*
X4375452Y-452116D01*
X4354952Y-472516D01*
X4383652Y-472516D01*
X4359052Y-494616D02*
G01*
X4381552Y-494616D01*
X4369353Y-510915D01*
X4375452Y-510915D01*
X4379552Y-513015D01*
X4381552Y-515016D01*
X4383652Y-521215D01*
X4383652Y-525315D01*
X4381552Y-531415D01*
X4377452Y-535515D01*
X4371352Y-537516D01*
X4365252Y-537516D01*
X4359052Y-535515D01*
X4357052Y-533415D01*
X4354952Y-529315D01*
X-3335047Y-702815D02*
G01*
X-3330947Y-700715D01*
X-3324747Y-694616D01*
X-3324747Y-737516D01*
X-3237947Y-704816D02*
G01*
X-3237947Y-702815D01*
X-3235947Y-698715D01*
X-3233847Y-696615D01*
X-3229747Y-694616D01*
X-3221547Y-694616D01*
X-3217547Y-696615D01*
X-3215447Y-698715D01*
X-3213447Y-702815D01*
X-3213447Y-706815D01*
X-3215447Y-710915D01*
X-3219547Y-717116D01*
X-3240047Y-737516D01*
X-3211347Y-737516D01*
X-3135947Y-694616D02*
G01*
X-3113447Y-694616D01*
X-3125646Y-710915D01*
X-3119547Y-710915D01*
X-3115447Y-713015D01*
X-3113447Y-715016D01*
X-3111347Y-721215D01*
X-3111347Y-725315D01*
X-3113447Y-731415D01*
X-3117547Y-735515D01*
X-3123647Y-737516D01*
X-3129747Y-737516D01*
X-3135947Y-735515D01*
X-3137947Y-733415D01*
X-3140047Y-729315D01*
X-3019547Y-689616D02*
G01*
X-3040047Y-718215D01*
X-3009347Y-718215D01*
X-3019547Y-689616D02*
G01*
X-3019547Y-732516D01*
X-2915447Y-689616D02*
G01*
X-2935947Y-689616D01*
X-2937947Y-708015D01*
X-2935947Y-705915D01*
X-2929747Y-703915D01*
X-2923647Y-703915D01*
X-2917547Y-705915D01*
X-2913447Y-710016D01*
X-2911347Y-716215D01*
X-2911347Y-720315D01*
X-2913447Y-726415D01*
X-2917547Y-730515D01*
X-2923647Y-732516D01*
X-2929747Y-732516D01*
X-2935947Y-730515D01*
X-2937947Y-728415D01*
X-2940047Y-724315D01*
X2473652Y-699616D02*
G01*
X2453152Y-742516D01*
X2445052Y-699616D02*
G01*
X2473652Y-699616D01*
X2555249Y-699619D02*
G01*
X2549049Y-701619D01*
X2547049Y-705720D01*
X2547049Y-709819D01*
X2549049Y-713919D01*
X2553149Y-715920D01*
X2561349Y-718020D01*
X2567550Y-720019D01*
X2571549Y-724119D01*
X2573649Y-728220D01*
X2573649Y-734319D01*
X2571549Y-738420D01*
X2569549Y-740520D01*
X2563449Y-742519D01*
X2555249Y-742519D01*
X2549049Y-740520D01*
X2547049Y-738420D01*
X2545050Y-734319D01*
X2545050Y-728220D01*
X2547049Y-724119D01*
X2551149Y-720019D01*
X2557249Y-718020D01*
X2565450Y-715920D01*
X2569549Y-713919D01*
X2571549Y-709819D01*
X2571549Y-705720D01*
X2569549Y-701619D01*
X2563449Y-699619D01*
X2555249Y-699619D01*
X2671552Y-713915D02*
G01*
X2669552Y-720016D01*
X2665452Y-724115D01*
X2659353Y-726215D01*
X2657253Y-726215D01*
X2651152Y-724115D01*
X2647052Y-720016D01*
X2645052Y-713915D01*
X2645052Y-711815D01*
X2647052Y-705715D01*
X2651152Y-701615D01*
X2657253Y-699616D01*
X2659353Y-699616D01*
X2665452Y-701615D01*
X2669552Y-705715D01*
X2671552Y-713915D01*
X2671552Y-724115D01*
X2669552Y-734315D01*
X2665452Y-740515D01*
X2659353Y-742516D01*
X2655252Y-742516D01*
X2649052Y-740515D01*
X2647052Y-736415D01*
X2730050Y-707820D02*
G01*
X2734049Y-705720D01*
X2740249Y-699619D01*
X2740249Y-742519D01*
X2766049Y-699619D02*
G01*
X2759849Y-701619D01*
X2755749Y-707820D01*
X2753750Y-718020D01*
X2753750Y-724119D01*
X2755749Y-734319D01*
X2759849Y-740520D01*
X2766049Y-742519D01*
X2770050Y-742519D01*
X2776250Y-740520D01*
X2780349Y-734319D01*
X2782349Y-724119D01*
X2782349Y-718020D01*
X2780349Y-707820D01*
X2776250Y-701619D01*
X2770050Y-699619D01*
X2766049Y-699619D01*
X2835052Y-707815D02*
G01*
X2839052Y-705715D01*
X2845252Y-699616D01*
X2845252Y-742516D01*
X2858752Y-707815D02*
G01*
X2862852Y-705715D01*
X2868953Y-699616D01*
X2868953Y-742516D01*
X2930050Y-707820D02*
G01*
X2934049Y-705720D01*
X2940249Y-699619D01*
X2940249Y-742519D01*
X2955749Y-709819D02*
G01*
X2955749Y-707820D01*
X2957849Y-703719D01*
X2959849Y-701619D01*
X2963949Y-699619D01*
X2972150Y-699619D01*
X2976250Y-701619D01*
X2978249Y-703719D01*
X2980349Y-707820D01*
X2980349Y-711819D01*
X2978249Y-715920D01*
X2974149Y-722119D01*
X2953750Y-742519D01*
X2982349Y-742519D01*
X3050652Y-774816D02*
G01*
X3048652Y-770715D01*
X3044552Y-766615D01*
X3040452Y-764616D01*
X3032253Y-764616D01*
X3028152Y-766615D01*
X3024052Y-770715D01*
X3022052Y-774816D01*
X3019952Y-780915D01*
X3019952Y-791215D01*
X3022052Y-797316D01*
X3024052Y-801415D01*
X3028152Y-805515D01*
X3032253Y-807516D01*
X3040452Y-807516D01*
X3044552Y-805515D01*
X3048652Y-801415D01*
X3050652Y-797316D01*
X3076453Y-764616D02*
G01*
X3072352Y-766615D01*
X3068252Y-770715D01*
X3066252Y-774816D01*
X3064152Y-780915D01*
X3064152Y-791215D01*
X3066252Y-797316D01*
X3068252Y-801415D01*
X3072352Y-805515D01*
X3076453Y-807516D01*
X3084652Y-807516D01*
X3088752Y-805515D01*
X3092852Y-801415D01*
X3094852Y-797316D01*
X3096952Y-791215D01*
X3096952Y-780915D01*
X3094852Y-774816D01*
X3092852Y-770715D01*
X3088752Y-766615D01*
X3084652Y-764616D01*
X3076453Y-764616D01*
X3110452Y-764616D02*
G01*
X3110452Y-807516D01*
X3110452Y-807516D02*
G01*
X3134952Y-807516D01*
X-2724350Y-774819D02*
G01*
X-2726350Y-770720D01*
X-2730450Y-766619D01*
X-2734549Y-764619D01*
X-2742750Y-764619D01*
X-2746850Y-766619D01*
X-2750950Y-770720D01*
X-2752950Y-774819D01*
X-2755050Y-780920D01*
X-2755050Y-791219D01*
X-2752950Y-797319D01*
X-2750950Y-801419D01*
X-2746850Y-805520D01*
X-2742750Y-807519D01*
X-2734549Y-807519D01*
X-2730450Y-805520D01*
X-2726350Y-801419D01*
X-2724350Y-797319D01*
X-2698550Y-764619D02*
G01*
X-2702650Y-766619D01*
X-2706750Y-770720D01*
X-2708750Y-774819D01*
X-2710850Y-780920D01*
X-2710850Y-791219D01*
X-2708750Y-797319D01*
X-2706750Y-801419D01*
X-2702650Y-805520D01*
X-2698550Y-807519D01*
X-2690349Y-807519D01*
X-2686250Y-805520D01*
X-2682150Y-801419D01*
X-2680150Y-797319D01*
X-2678050Y-791219D01*
X-2678050Y-780920D01*
X-2680150Y-774819D01*
X-2682150Y-770720D01*
X-2686250Y-766619D01*
X-2690349Y-764619D01*
X-2698550Y-764619D01*
X-2664549Y-764619D02*
G01*
X-2664549Y-807519D01*
X-2664549Y-807519D02*
G01*
X-2640050Y-807519D01*
X4460383Y-544953D02*
G01*
X4417483Y-544953D01*
X4460383Y-544953D02*
G01*
X4460383Y-563452D01*
X4458383Y-569553D01*
X4456283Y-571552D01*
X4452183Y-573652D01*
X4448184Y-573652D01*
X4444083Y-571552D01*
X4441983Y-569553D01*
X4439983Y-563452D01*
X4439983Y-544953D01*
X4439983Y-559353D02*
G01*
X4417483Y-573652D01*
X4460383Y-599452D02*
G01*
X4458383Y-595353D01*
X4454283Y-591253D01*
X4450183Y-589153D01*
X4444083Y-587152D01*
X4433783Y-587152D01*
X4427683Y-589153D01*
X4423584Y-591253D01*
X4419483Y-595353D01*
X4417483Y-599452D01*
X4417483Y-607552D01*
X4419483Y-611653D01*
X4423584Y-615752D01*
X4427683Y-617853D01*
X4433783Y-619852D01*
X4444083Y-619852D01*
X4450183Y-617853D01*
X4454283Y-615752D01*
X4458383Y-611653D01*
X4460383Y-607552D01*
X4460383Y-599452D01*
X4460383Y-633353D02*
G01*
X4417483Y-643553D01*
X4460383Y-653852D02*
G01*
X4417483Y-643553D01*
X4460383Y-653852D02*
G01*
X4417483Y-664052D01*
X4460383Y-674252D02*
G01*
X4417483Y-664052D01*
X4450183Y-1310652D02*
G01*
X4454283Y-1308652D01*
X4458383Y-1304553D01*
X4460383Y-1300452D01*
X4460383Y-1292253D01*
X4458383Y-1288152D01*
X4454283Y-1284052D01*
X4450183Y-1282053D01*
X4444083Y-1279953D01*
X4433783Y-1279953D01*
X4427683Y-1282053D01*
X4423584Y-1284052D01*
X4419483Y-1288152D01*
X4417483Y-1292253D01*
X4417483Y-1300452D01*
X4419483Y-1304553D01*
X4423584Y-1308652D01*
X4427683Y-1310652D01*
X4433783Y-1310652D01*
X4433783Y-1300452D02*
G01*
X4433783Y-1310652D01*
X4460383Y-1324153D02*
G01*
X4417483Y-1324153D01*
X4460383Y-1324153D02*
G01*
X4417483Y-1352853D01*
X4460383Y-1352853D02*
G01*
X4417483Y-1352853D01*
X4460383Y-1366352D02*
G01*
X4417483Y-1366352D01*
X4460383Y-1366352D02*
G01*
X4460383Y-1380652D01*
X4458383Y-1386752D01*
X4454283Y-1390853D01*
X4450183Y-1392952D01*
X4444083Y-1394953D01*
X4433783Y-1394953D01*
X4427683Y-1392952D01*
X4423584Y-1390853D01*
X4419483Y-1386752D01*
X4417483Y-1380652D01*
X4417483Y-1366352D01*
X4460383Y-839953D02*
G01*
X4417483Y-856352D01*
X4460383Y-872752D02*
G01*
X4417483Y-856352D01*
X4450183Y-916952D02*
G01*
X4454283Y-914852D01*
X4458383Y-910752D01*
X4460383Y-906653D01*
X4460383Y-898452D01*
X4458383Y-894452D01*
X4454283Y-890353D01*
X4450183Y-888252D01*
X4444083Y-886253D01*
X4433783Y-886253D01*
X4427683Y-888252D01*
X4423584Y-890353D01*
X4419483Y-894452D01*
X4417483Y-898452D01*
X4417483Y-906653D01*
X4419483Y-910752D01*
X4423584Y-914852D01*
X4427683Y-916952D01*
X4450183Y-961053D02*
G01*
X4454283Y-959052D01*
X4458383Y-954953D01*
X4460383Y-950853D01*
X4460383Y-942653D01*
X4458383Y-938553D01*
X4454283Y-934452D01*
X4450183Y-932453D01*
X4444083Y-930452D01*
X4433783Y-930452D01*
X4427683Y-932453D01*
X4423584Y-934452D01*
X4419483Y-938553D01*
X4417483Y-942653D01*
X4417483Y-950853D01*
X4419483Y-954953D01*
X4423584Y-959052D01*
X4427683Y-961053D01*
X4375383Y-1184953D02*
G01*
X4332483Y-1184953D01*
X4375383Y-1184953D02*
G01*
X4375383Y-1203452D01*
X4373383Y-1209553D01*
X4371283Y-1211552D01*
X4367183Y-1213652D01*
X4363184Y-1213652D01*
X4359083Y-1211552D01*
X4356983Y-1209553D01*
X4354983Y-1203452D01*
X4354983Y-1184953D01*
X4354983Y-1199353D02*
G01*
X4332483Y-1213652D01*
X4365183Y-1257853D02*
G01*
X4369283Y-1255752D01*
X4373383Y-1251653D01*
X4375383Y-1247552D01*
X4375383Y-1239452D01*
X4373383Y-1235353D01*
X4369283Y-1231253D01*
X4365183Y-1229153D01*
X4359083Y-1227152D01*
X4348783Y-1227152D01*
X4342683Y-1229153D01*
X4338584Y-1231253D01*
X4334483Y-1235353D01*
X4332483Y-1239452D01*
X4332483Y-1247552D01*
X4334483Y-1251653D01*
X4338584Y-1255752D01*
X4342683Y-1257853D01*
X4348783Y-1257853D01*
X4348783Y-1247552D02*
G01*
X4348783Y-1257853D01*
X4375383Y-1271352D02*
G01*
X4332483Y-1271352D01*
X4375383Y-1271352D02*
G01*
X4375383Y-1289753D01*
X4373383Y-1295853D01*
X4371283Y-1297952D01*
X4367183Y-1299953D01*
X4363184Y-1299953D01*
X4359083Y-1297952D01*
X4356983Y-1295853D01*
X4354983Y-1289753D01*
X4354983Y-1271352D02*
G01*
X4354983Y-1289753D01*
X4352883Y-1295853D01*
X4350883Y-1297952D01*
X4346783Y-1299953D01*
X4340684Y-1299953D01*
X4336583Y-1297952D01*
X4334483Y-1295853D01*
X4332483Y-1289753D01*
X4332483Y-1271352D01*
X4290383Y-1197253D02*
G01*
X4288383Y-1193152D01*
X4284283Y-1189052D01*
X4280183Y-1187053D01*
X4274083Y-1184953D01*
X4263783Y-1184953D01*
X4257683Y-1187053D01*
X4253584Y-1189052D01*
X4249483Y-1193152D01*
X4247483Y-1197253D01*
X4247483Y-1205452D01*
X4249483Y-1209553D01*
X4253584Y-1213652D01*
X4257683Y-1215652D01*
X4263783Y-1217752D01*
X4274083Y-1217752D01*
X4280183Y-1215652D01*
X4284283Y-1213652D01*
X4288383Y-1209553D01*
X4290383Y-1205452D01*
X4290383Y-1197253D01*
X4290383Y-1231253D02*
G01*
X4259683Y-1231253D01*
X4253584Y-1233252D01*
X4249483Y-1237352D01*
X4247483Y-1243452D01*
X4247483Y-1247552D01*
X4249483Y-1253753D01*
X4253584Y-1257853D01*
X4259683Y-1259852D01*
X4290383Y-1259852D01*
X4290383Y-1287653D02*
G01*
X4247483Y-1287653D01*
X4290383Y-1273353D02*
G01*
X4290383Y-1301952D01*
X1674952Y20383D02*
G01*
X1691352Y-22516D01*
X1707752Y20383D02*
G01*
X1691352Y-22516D01*
X1751952Y10183D02*
G01*
X1749852Y14284D01*
X1745752Y18384D01*
X1741652Y20383D01*
X1733452Y20383D01*
X1729452Y18384D01*
X1725352Y14284D01*
X1723252Y10183D01*
X1721252Y4084D01*
X1721252Y-6215D01*
X1723252Y-12316D01*
X1725352Y-16415D01*
X1729452Y-20515D01*
X1733452Y-22516D01*
X1741652Y-22516D01*
X1745752Y-20515D01*
X1749852Y-16415D01*
X1751952Y-12316D01*
X1796053Y10183D02*
G01*
X1794052Y14284D01*
X1789952Y18384D01*
X1785852Y20383D01*
X1777653Y20383D01*
X1773553Y18384D01*
X1769452Y14284D01*
X1767452Y10183D01*
X1765452Y4084D01*
X1765452Y-6215D01*
X1767452Y-12316D01*
X1769452Y-16415D01*
X1773553Y-20515D01*
X1777653Y-22516D01*
X1785852Y-22516D01*
X1789952Y-20515D01*
X1794052Y-16415D01*
X1796053Y-12316D01*
X1889952Y85383D02*
G01*
X1889952Y42483D01*
X1889952Y85383D02*
G01*
X1906352Y42483D01*
X1922752Y85383D02*
G01*
X1906352Y42483D01*
X1922752Y85383D02*
G01*
X1922752Y42483D01*
X1948452Y85383D02*
G01*
X1944452Y83384D01*
X1940352Y79284D01*
X1938252Y75183D01*
X1936252Y69084D01*
X1936252Y58784D01*
X1938252Y52683D01*
X1940352Y48584D01*
X1944452Y44484D01*
X1948452Y42483D01*
X1956652Y42483D01*
X1960752Y44484D01*
X1964852Y48584D01*
X1966952Y52683D01*
X1968953Y58784D01*
X1968953Y69084D01*
X1966952Y75183D01*
X1964852Y79284D01*
X1960752Y83384D01*
X1956652Y85383D01*
X1948452Y85383D01*
X2011053Y79284D02*
G01*
X2006952Y83384D01*
X2000852Y85383D01*
X1992653Y85383D01*
X1986552Y83384D01*
X1982452Y79284D01*
X1982452Y75183D01*
X1984452Y71084D01*
X1986552Y69084D01*
X1990652Y66984D01*
X2002952Y62883D01*
X2006952Y60884D01*
X2009052Y58784D01*
X2011053Y54684D01*
X2011053Y48584D01*
X2006952Y44484D01*
X2000852Y42483D01*
X1992653Y42483D01*
X1986552Y44484D01*
X1982452Y48584D01*
X2024552Y85383D02*
G01*
X2024552Y42483D01*
X1994952Y-44616D02*
G01*
X1994952Y-87516D01*
X1994952Y-44616D02*
G01*
X2011352Y-87516D01*
X2027752Y-44616D02*
G01*
X2011352Y-87516D01*
X2027752Y-44616D02*
G01*
X2027752Y-87516D01*
X2041252Y-44616D02*
G01*
X2041252Y-87516D01*
X2083352Y-50715D02*
G01*
X2079252Y-46615D01*
X2073152Y-44616D01*
X2064952Y-44616D01*
X2058852Y-46615D01*
X2054753Y-50715D01*
X2054753Y-54816D01*
X2056752Y-58915D01*
X2058852Y-60915D01*
X2062952Y-63015D01*
X2075153Y-67116D01*
X2079252Y-69115D01*
X2081352Y-71215D01*
X2083352Y-75315D01*
X2083352Y-81415D01*
X2079252Y-85515D01*
X2073152Y-87516D01*
X2064952Y-87516D01*
X2058852Y-85515D01*
X2054753Y-81415D01*
X2109152Y-44616D02*
G01*
X2105052Y-46615D01*
X2100952Y-50715D01*
X2098953Y-54816D01*
X2096853Y-60915D01*
X2096853Y-71215D01*
X2098953Y-77316D01*
X2100952Y-81415D01*
X2105052Y-85515D01*
X2109152Y-87516D01*
X2117352Y-87516D01*
X2121453Y-85515D01*
X2125452Y-81415D01*
X2127552Y-77316D01*
X2129552Y-71215D01*
X2129552Y-60915D01*
X2127552Y-54816D01*
X2125452Y-50715D01*
X2121453Y-46615D01*
X2117352Y-44616D01*
X2109152Y-44616D01*
X2123652Y79284D02*
G01*
X2119552Y83384D01*
X2113452Y85383D01*
X2105252Y85383D01*
X2099052Y83384D01*
X2094952Y79284D01*
X2094952Y75183D01*
X2097052Y71084D01*
X2099052Y69084D01*
X2103152Y66984D01*
X2115452Y62883D01*
X2119552Y60884D01*
X2121552Y58784D01*
X2123652Y54684D01*
X2123652Y48584D01*
X2119552Y44484D01*
X2113452Y42483D01*
X2105252Y42483D01*
X2099052Y44484D01*
X2094952Y48584D01*
X2167852Y75183D02*
G01*
X2165752Y79284D01*
X2161652Y83384D01*
X2157552Y85383D01*
X2149452Y85383D01*
X2145352Y83384D01*
X2141252Y79284D01*
X2139152Y75183D01*
X2137152Y69084D01*
X2137152Y58784D01*
X2139152Y52683D01*
X2141252Y48584D01*
X2145352Y44484D01*
X2149452Y42483D01*
X2157552Y42483D01*
X2161652Y44484D01*
X2165752Y48584D01*
X2167852Y52683D01*
X2181352Y85383D02*
G01*
X2181352Y42483D01*
X2209952Y85383D02*
G01*
X2181352Y56784D01*
X2191552Y66984D02*
G01*
X2209952Y42483D01*
X2199952Y-44616D02*
G01*
X2199952Y-87516D01*
X2199952Y-44616D02*
G01*
X2218452Y-44616D01*
X2224552Y-46615D01*
X2226552Y-48715D01*
X2228652Y-52815D01*
X2228652Y-56815D01*
X2226552Y-60915D01*
X2224552Y-63015D01*
X2218452Y-65016D01*
X2199952Y-65016D01*
X2214353Y-65016D02*
G01*
X2228652Y-87516D01*
X2270752Y-50715D02*
G01*
X2266652Y-46615D01*
X2260553Y-44616D01*
X2252352Y-44616D01*
X2246252Y-46615D01*
X2242152Y-50715D01*
X2242152Y-54816D01*
X2244152Y-58915D01*
X2246252Y-60915D01*
X2250352Y-63015D01*
X2262552Y-67116D01*
X2266652Y-69115D01*
X2268752Y-71215D01*
X2270752Y-75315D01*
X2270752Y-81415D01*
X2266652Y-85515D01*
X2260553Y-87516D01*
X2252352Y-87516D01*
X2246252Y-85515D01*
X2242152Y-81415D01*
X2298553Y-44616D02*
G01*
X2298553Y-87516D01*
X2284252Y-44616D02*
G01*
X2312952Y-44616D01*
X2435652Y10183D02*
G01*
X2433652Y14284D01*
X2429552Y18384D01*
X2425452Y20383D01*
X2417253Y20383D01*
X2413152Y18384D01*
X2409052Y14284D01*
X2407052Y10183D01*
X2404952Y4084D01*
X2404952Y-6215D01*
X2407052Y-12316D01*
X2409052Y-16415D01*
X2413152Y-20515D01*
X2417253Y-22516D01*
X2425452Y-22516D01*
X2429552Y-20515D01*
X2433652Y-16415D01*
X2435652Y-12316D01*
X2435652Y-6215D01*
X2425452Y-6215D02*
G01*
X2435652Y-6215D01*
X2449152Y20383D02*
G01*
X2449152Y-22516D01*
X2449152Y20383D02*
G01*
X2477852Y-22516D01*
X2477852Y20383D02*
G01*
X2477852Y-22516D01*
X2491352Y20383D02*
G01*
X2491352Y-22516D01*
X2491352Y20383D02*
G01*
X2505652Y20383D01*
X2511752Y18384D01*
X2515852Y14284D01*
X2517952Y10183D01*
X2519952Y4084D01*
X2519952Y-6215D01*
X2517952Y-12316D01*
X2515852Y-16415D01*
X2511752Y-20515D01*
X2505652Y-22516D01*
X2491352Y-22516D01*
X-2815447Y-695715D02*
G01*
X-2817447Y-691615D01*
X-2823647Y-689616D01*
X-2827746Y-689616D01*
X-2833847Y-691615D01*
X-2837947Y-697815D01*
X-2839947Y-708015D01*
X-2839947Y-718215D01*
X-2837947Y-726415D01*
X-2833847Y-730515D01*
X-2827746Y-732516D01*
X-2825646Y-732516D01*
X-2819547Y-730515D01*
X-2815447Y-726415D01*
X-2813447Y-720315D01*
X-2813447Y-718215D01*
X-2815447Y-712116D01*
X-2819547Y-708015D01*
X-2825646Y-705915D01*
X-2827746Y-705915D01*
X-2833847Y-708015D01*
X-2837947Y-712116D01*
X-2839947Y-718215D01*
X-4385047Y315383D02*
G01*
X-4385047Y272483D01*
X-4385047Y315383D02*
G01*
X-4366547Y315383D01*
X-4360447Y313384D01*
X-4358447Y311284D01*
X-4356347Y307184D01*
X-4356347Y303184D01*
X-4358447Y299084D01*
X-4360447Y296984D01*
X-4366547Y294983D01*
X-4385047Y294983D01*
X-4370646Y294983D02*
G01*
X-4356347Y272483D01*
X-4312147Y305183D02*
G01*
X-4314247Y309284D01*
X-4318347Y313384D01*
X-4322447Y315383D01*
X-4330547Y315383D01*
X-4334647Y313384D01*
X-4338747Y309284D01*
X-4340847Y305183D01*
X-4342847Y299084D01*
X-4342847Y288784D01*
X-4340847Y282683D01*
X-4338747Y278584D01*
X-4334647Y274484D01*
X-4330547Y272483D01*
X-4322447Y272483D01*
X-4318347Y274484D01*
X-4314247Y278584D01*
X-4312147Y282683D01*
X-4312147Y288784D01*
X-4322447Y288784D02*
G01*
X-4312147Y288784D01*
X-4298647Y315383D02*
G01*
X-4298647Y272483D01*
X-4298647Y315383D02*
G01*
X-4280246Y315383D01*
X-4274147Y313384D01*
X-4272047Y311284D01*
X-4270047Y307184D01*
X-4270047Y303184D01*
X-4272047Y299084D01*
X-4274147Y296984D01*
X-4280246Y294983D01*
X-4298647Y294983D02*
G01*
X-4280246Y294983D01*
X-4274147Y292883D01*
X-4272047Y290884D01*
X-4270047Y286784D01*
X-4270047Y280684D01*
X-4272047Y276584D01*
X-4274147Y274484D01*
X-4280246Y272483D01*
X-4298647Y272483D01*
X-4429809Y189347D02*
G01*
X-4425709Y191347D01*
X-4421608Y195448D01*
X-4419609Y199547D01*
X-4419609Y207748D01*
X-4421608Y211847D01*
X-4425709Y215947D01*
X-4429809Y217948D01*
X-4435909Y219947D01*
X-4446208Y219947D01*
X-4452309Y217948D01*
X-4456409Y215947D01*
X-4460509Y211847D01*
X-4462509Y207748D01*
X-4462509Y199547D01*
X-4460509Y195448D01*
X-4456409Y191347D01*
X-4452309Y189347D01*
X-4446208Y189347D01*
X-4446208Y199547D02*
G01*
X-4446208Y189347D01*
X-4419609Y175848D02*
G01*
X-4462509Y175848D01*
X-4419609Y175848D02*
G01*
X-4462509Y147148D01*
X-4419609Y147148D02*
G01*
X-4462509Y147148D01*
X-4419609Y133647D02*
G01*
X-4462509Y133647D01*
X-4419609Y133647D02*
G01*
X-4419609Y119347D01*
X-4421608Y113247D01*
X-4425709Y109148D01*
X-4429809Y107047D01*
X-4435909Y105048D01*
X-4446208Y105048D01*
X-4452309Y107047D01*
X-4456409Y109148D01*
X-4460509Y113247D01*
X-4462509Y119347D01*
X-4462509Y133647D01*
X-4414609Y644947D02*
G01*
X-4457509Y628647D01*
X-4414609Y612247D02*
G01*
X-4457509Y628647D01*
X-4424809Y568047D02*
G01*
X-4420709Y570147D01*
X-4416608Y574248D01*
X-4414609Y578348D01*
X-4414609Y586448D01*
X-4416608Y590547D01*
X-4420709Y594648D01*
X-4424809Y596748D01*
X-4430909Y598748D01*
X-4441208Y598748D01*
X-4447309Y596748D01*
X-4451409Y594648D01*
X-4455509Y590547D01*
X-4457509Y586448D01*
X-4457509Y578348D01*
X-4455509Y574248D01*
X-4451409Y570147D01*
X-4447309Y568047D01*
X-4424809Y523948D02*
G01*
X-4420709Y525947D01*
X-4416608Y530048D01*
X-4414609Y534148D01*
X-4414609Y542348D01*
X-4416608Y546448D01*
X-4420709Y550448D01*
X-4424809Y552548D01*
X-4430909Y554547D01*
X-4441208Y554547D01*
X-4447309Y552548D01*
X-4451409Y550448D01*
X-4455509Y546448D01*
X-4457509Y542348D01*
X-4457509Y534148D01*
X-4455509Y530048D01*
X-4451409Y525947D01*
X-4447309Y523948D01*
X-65000Y-469600D02*
G01*
X-65000Y-512500D01*
X-65000Y-512500D02*
G01*
X-40500Y-512500D01*
X-26999Y-469600D02*
G01*
X-26999Y-512500D01*
X-26999Y-469600D02*
G01*
X-399Y-469600D01*
X-26999Y-490000D02*
G01*
X-10600Y-490000D01*
X-26999Y-512500D02*
G01*
X-399Y-512500D01*
X13099Y-469600D02*
G01*
X13099Y-512500D01*
X13099Y-469600D02*
G01*
X27500Y-469600D01*
X33599Y-471599D01*
X37699Y-475700D01*
X39699Y-479800D01*
X41799Y-485999D01*
X41799Y-496199D01*
X39699Y-502300D01*
X37699Y-506399D01*
X33599Y-510500D01*
X27500Y-512500D01*
X13099Y-512500D01*
X55299Y-477799D02*
G01*
X59399Y-475700D01*
X65500Y-469600D01*
X65500Y-512500D01*
X-380000Y-649600D02*
G01*
X-380000Y-692500D01*
X-380000Y-692500D02*
G01*
X-355500Y-692500D01*
X-341999Y-649600D02*
G01*
X-341999Y-692500D01*
X-341999Y-649600D02*
G01*
X-315399Y-649600D01*
X-341999Y-670000D02*
G01*
X-325600Y-670000D01*
X-341999Y-692500D02*
G01*
X-315399Y-692500D01*
X-301900Y-649600D02*
G01*
X-301900Y-692500D01*
X-301900Y-649600D02*
G01*
X-287500Y-649600D01*
X-281400Y-651599D01*
X-277300Y-655700D01*
X-275300Y-659800D01*
X-273200Y-665999D01*
X-273200Y-676199D01*
X-275300Y-682300D01*
X-277300Y-686399D01*
X-281400Y-690500D01*
X-287500Y-692500D01*
X-301900Y-692500D01*
X-257700Y-659800D02*
G01*
X-257700Y-657799D01*
X-255600Y-653699D01*
X-253600Y-651599D01*
X-249499Y-649600D01*
X-241300Y-649600D01*
X-237200Y-651599D01*
X-235200Y-653699D01*
X-233100Y-657799D01*
X-233100Y-661900D01*
X-235200Y-665999D01*
X-239300Y-672100D01*
X-259700Y-692500D01*
X-231100Y-692500D01*
X245000Y-649600D02*
G01*
X245000Y-692500D01*
X245000Y-692500D02*
G01*
X269499Y-692500D01*
X283000Y-649600D02*
G01*
X283000Y-692500D01*
X283000Y-649600D02*
G01*
X309600Y-649600D01*
X283000Y-670000D02*
G01*
X299399Y-670000D01*
X283000Y-692500D02*
G01*
X309600Y-692500D01*
X323099Y-649600D02*
G01*
X323099Y-692500D01*
X323099Y-649600D02*
G01*
X337500Y-649600D01*
X343599Y-651599D01*
X347699Y-655700D01*
X349699Y-659800D01*
X351799Y-665999D01*
X351799Y-676199D01*
X349699Y-682300D01*
X347699Y-686399D01*
X343599Y-690500D01*
X337500Y-692500D01*
X323099Y-692500D01*
X369399Y-649600D02*
G01*
X391899Y-649600D01*
X379600Y-665999D01*
X385699Y-665999D01*
X389799Y-668000D01*
X391899Y-670000D01*
X393899Y-676199D01*
X393899Y-680299D01*
X391899Y-686399D01*
X387799Y-690500D01*
X381599Y-692500D01*
X375500Y-692500D01*
X369399Y-690500D01*
X367299Y-688499D01*
X365299Y-684400D01*
G36*
X-3940Y-397640D02*
G01*
X-3940Y-429140D01*
X7860Y-413380D01*
G37*
G36*
X-318900Y-574800D02*
G01*
X-318900Y-606300D01*
X-307080Y-590560D01*
G37*
G36*
X311020Y-574800D02*
G01*
X311020Y-606300D01*
X322819Y-590560D01*
G37*
D10*
X-333391Y472440D02*
G01*
X-383391Y472440D01*
X-423391Y512440D01*
X-493391Y472440D02*
G01*
X-453391Y472440D01*
X-309059Y390282D02*
G01*
X-309059Y554600D01*
X-373276Y574803D02*
G01*
X-453506Y574803D01*
X-453506Y370079D02*
G01*
X-373276Y370079D01*
X-515753Y392717D02*
G01*
X-515753Y552165D01*
X-496060Y401570D02*
G01*
X-496060Y543301D01*
X-330711Y543301D01*
X-330711Y401570D01*
X-496060Y401570D01*
D35*
X-4239173Y259016D02*
G01*
X-4273614Y224567D01*
X-4183023Y244094D02*
G01*
X-4045322Y244094D01*
X-4182979Y133859D02*
G01*
X-4045279Y133859D01*
D10*
X-4319173Y649016D02*
G01*
X-4389173Y649016D01*
X-4389173Y579016D01*
X-3914173Y649016D02*
G01*
X-3839173Y649016D01*
X-3839173Y574016D01*
X-4389173Y174016D02*
G01*
X-4389173Y99016D01*
X-4314173Y99016D01*
X-3914173Y99016D02*
G01*
X-3839173Y99016D01*
X-3839173Y174016D01*
D35*
X-3491142Y259016D02*
G01*
X-3525583Y224567D01*
X-3434992Y244094D02*
G01*
X-3297292Y244094D01*
X-3434948Y133859D02*
G01*
X-3297247Y133859D01*
D10*
X-3571142Y649016D02*
G01*
X-3641142Y649016D01*
X-3641142Y579016D01*
X-3166142Y649016D02*
G01*
X-3091142Y649016D01*
X-3091142Y574016D01*
X-3641142Y174016D02*
G01*
X-3641142Y99016D01*
X-3566142Y99016D01*
X-3166142Y99016D02*
G01*
X-3091142Y99016D01*
X-3091142Y174016D01*
D35*
X-2743110Y259016D02*
G01*
X-2777551Y224567D01*
X-2686959Y244094D02*
G01*
X-2549260Y244094D01*
X-2686916Y133859D02*
G01*
X-2549216Y133859D01*
D10*
X-2823110Y649016D02*
G01*
X-2893110Y649016D01*
X-2893110Y579016D01*
X-2418110Y649016D02*
G01*
X-2343110Y649016D01*
X-2343110Y574016D01*
X-2893110Y174016D02*
G01*
X-2893110Y99016D01*
X-2818110Y99016D01*
X-2418110Y99016D02*
G01*
X-2343110Y99016D01*
X-2343110Y174016D01*
D35*
X-1995079Y259016D02*
G01*
X-2029520Y224567D01*
X-1938928Y244094D02*
G01*
X-1801229Y244094D01*
X-1938885Y133859D02*
G01*
X-1801185Y133859D01*
D10*
X-2075079Y649016D02*
G01*
X-2145079Y649016D01*
X-2145079Y579016D01*
X-1670079Y649016D02*
G01*
X-1595079Y649016D01*
X-1595079Y574016D01*
X-2145079Y174016D02*
G01*
X-2145079Y99016D01*
X-2070079Y99016D01*
X-1670079Y99016D02*
G01*
X-1595079Y99016D01*
X-1595079Y174016D01*
D35*
X-1247047Y259016D02*
G01*
X-1281487Y224567D01*
X-1190897Y244094D02*
G01*
X-1053197Y244094D01*
X-1190853Y133859D02*
G01*
X-1053153Y133859D01*
D10*
X-1327047Y649016D02*
G01*
X-1397047Y649016D01*
X-1397047Y579016D01*
X-922047Y649016D02*
G01*
X-847047Y649016D01*
X-847047Y574016D01*
X-1397047Y174016D02*
G01*
X-1397047Y99016D01*
X-1322047Y99016D01*
X-922047Y99016D02*
G01*
X-847047Y99016D01*
X-847047Y174016D01*
D35*
X997046Y259016D02*
G01*
X962605Y224567D01*
X1053197Y244094D02*
G01*
X1190896Y244094D01*
X1053240Y133859D02*
G01*
X1190940Y133859D01*
D10*
X917046Y649016D02*
G01*
X847046Y649016D01*
X847046Y579016D01*
X1322046Y649016D02*
G01*
X1397046Y649016D01*
X1397046Y574016D01*
X847046Y174016D02*
G01*
X847046Y99016D01*
X922046Y99016D01*
X1322046Y99016D02*
G01*
X1397046Y99016D01*
X1397046Y174016D01*
D35*
X1745078Y259016D02*
G01*
X1710637Y224567D01*
X1801228Y244094D02*
G01*
X1938928Y244094D01*
X1801273Y133859D02*
G01*
X1938972Y133859D01*
D10*
X1665078Y649016D02*
G01*
X1595078Y649016D01*
X1595078Y579016D01*
X2070078Y649016D02*
G01*
X2145078Y649016D01*
X2145078Y574016D01*
X1595078Y174016D02*
G01*
X1595078Y99016D01*
X1670078Y99016D01*
X2070078Y99016D02*
G01*
X2145078Y99016D01*
X2145078Y174016D01*
D35*
X2493109Y259016D02*
G01*
X2458669Y224567D01*
X2549259Y244094D02*
G01*
X2686959Y244094D01*
X2549303Y133859D02*
G01*
X2687003Y133859D01*
D10*
X2413109Y649016D02*
G01*
X2343109Y649016D01*
X2343109Y579016D01*
X2818109Y649016D02*
G01*
X2893109Y649016D01*
X2893109Y574016D01*
X2343109Y174016D02*
G01*
X2343109Y99016D01*
X2418109Y99016D01*
X2818109Y99016D02*
G01*
X2893109Y99016D01*
X2893109Y174016D01*
D35*
X3241142Y259016D02*
G01*
X3206700Y224567D01*
X3297291Y244094D02*
G01*
X3434991Y244094D01*
X3297335Y133859D02*
G01*
X3435036Y133859D01*
D10*
X3161142Y649016D02*
G01*
X3091142Y649016D01*
X3091142Y579016D01*
X3566142Y649016D02*
G01*
X3641142Y649016D01*
X3641142Y574016D01*
X3091142Y174016D02*
G01*
X3091142Y99016D01*
X3166142Y99016D01*
X3566142Y99016D02*
G01*
X3641142Y99016D01*
X3641142Y174016D01*
D35*
X3989173Y259016D02*
G01*
X3954731Y224567D01*
X4045322Y244094D02*
G01*
X4183022Y244094D01*
X4045366Y133859D02*
G01*
X4183067Y133859D01*
D10*
X3909173Y649016D02*
G01*
X3839173Y649016D01*
X3839173Y579016D01*
X4314173Y649016D02*
G01*
X4389173Y649016D01*
X4389173Y574016D01*
X3839173Y174016D02*
G01*
X3839173Y99016D01*
X3914173Y99016D01*
X4314173Y99016D02*
G01*
X4389173Y99016D01*
X4389173Y174016D01*
D35*
X-3989173Y-259016D02*
G01*
X-3954732Y-224567D01*
X-4045322Y-244094D02*
G01*
X-4183023Y-244094D01*
X-4045367Y-133859D02*
G01*
X-4183067Y-133859D01*
D10*
X-3909173Y-649016D02*
G01*
X-3839173Y-649016D01*
X-3839173Y-579016D01*
X-4314173Y-649016D02*
G01*
X-4389173Y-649016D01*
X-4389173Y-574016D01*
X-3839173Y-174016D02*
G01*
X-3839173Y-99016D01*
X-3914173Y-99016D01*
X-4314173Y-99016D02*
G01*
X-4389173Y-99016D01*
X-4389173Y-174016D01*
D35*
X-3241142Y-259016D02*
G01*
X-3206701Y-224567D01*
X-3297292Y-244094D02*
G01*
X-3434992Y-244094D01*
X-3297336Y-133859D02*
G01*
X-3435036Y-133859D01*
D10*
X-3161142Y-649016D02*
G01*
X-3091142Y-649016D01*
X-3091142Y-579016D01*
X-3566142Y-649016D02*
G01*
X-3641142Y-649016D01*
X-3641142Y-574016D01*
X-3091142Y-174016D02*
G01*
X-3091142Y-99016D01*
X-3166142Y-99016D01*
X-3566142Y-99016D02*
G01*
X-3641142Y-99016D01*
X-3641142Y-174016D01*
D35*
X-2493110Y-259016D02*
G01*
X-2458669Y-224567D01*
X-2549260Y-244094D02*
G01*
X-2686959Y-244094D01*
X-2549304Y-133859D02*
G01*
X-2687004Y-133859D01*
D10*
X-2413110Y-649016D02*
G01*
X-2343110Y-649016D01*
X-2343110Y-579016D01*
X-2818110Y-649016D02*
G01*
X-2893110Y-649016D01*
X-2893110Y-574016D01*
X-2343110Y-174016D02*
G01*
X-2343110Y-99016D01*
X-2418110Y-99016D01*
X-2818110Y-99016D02*
G01*
X-2893110Y-99016D01*
X-2893110Y-174016D01*
D35*
X-1745079Y-259016D02*
G01*
X-1710637Y-224567D01*
X-1801229Y-244094D02*
G01*
X-1938928Y-244094D01*
X-1801273Y-133859D02*
G01*
X-1938973Y-133859D01*
D10*
X-1665079Y-649016D02*
G01*
X-1595079Y-649016D01*
X-1595079Y-579016D01*
X-2070079Y-649016D02*
G01*
X-2145079Y-649016D01*
X-2145079Y-574016D01*
X-1595079Y-174016D02*
G01*
X-1595079Y-99016D01*
X-1670079Y-99016D01*
X-2070079Y-99016D02*
G01*
X-2145079Y-99016D01*
X-2145079Y-174016D01*
D35*
X-997047Y-259016D02*
G01*
X-962606Y-224567D01*
X-1053197Y-244094D02*
G01*
X-1190897Y-244094D01*
X-1053240Y-133859D02*
G01*
X-1190941Y-133859D01*
D10*
X-917047Y-649016D02*
G01*
X-847047Y-649016D01*
X-847047Y-579016D01*
X-1322047Y-649016D02*
G01*
X-1397047Y-649016D01*
X-1397047Y-574016D01*
X-847047Y-174016D02*
G01*
X-847047Y-99016D01*
X-922047Y-99016D01*
X-1322047Y-99016D02*
G01*
X-1397047Y-99016D01*
X-1397047Y-174016D01*
D35*
X1247046Y-259016D02*
G01*
X1281487Y-224567D01*
X1190896Y-244094D02*
G01*
X1053197Y-244094D01*
X1190852Y-133859D02*
G01*
X1053152Y-133859D01*
D10*
X1327046Y-649016D02*
G01*
X1397046Y-649016D01*
X1397046Y-579016D01*
X922046Y-649016D02*
G01*
X847046Y-649016D01*
X847046Y-574016D01*
X1397046Y-174016D02*
G01*
X1397046Y-99016D01*
X1322046Y-99016D01*
X922046Y-99016D02*
G01*
X847046Y-99016D01*
X847046Y-174016D01*
D35*
X1995078Y-259016D02*
G01*
X2029519Y-224567D01*
X1938928Y-244094D02*
G01*
X1801228Y-244094D01*
X1938885Y-133859D02*
G01*
X1801184Y-133859D01*
D10*
X2075078Y-649016D02*
G01*
X2145078Y-649016D01*
X2145078Y-579016D01*
X1670078Y-649016D02*
G01*
X1595078Y-649016D01*
X1595078Y-574016D01*
X2145078Y-174016D02*
G01*
X2145078Y-99016D01*
X2070078Y-99016D01*
X1670078Y-99016D02*
G01*
X1595078Y-99016D01*
X1595078Y-174016D01*
D35*
X2743109Y-259016D02*
G01*
X2777550Y-224567D01*
X2686959Y-244094D02*
G01*
X2549259Y-244094D01*
X2686916Y-133859D02*
G01*
X2549215Y-133859D01*
D10*
X2823109Y-649016D02*
G01*
X2893109Y-649016D01*
X2893109Y-579016D01*
X2418109Y-649016D02*
G01*
X2343109Y-649016D01*
X2343109Y-574016D01*
X2893109Y-174016D02*
G01*
X2893109Y-99016D01*
X2818109Y-99016D01*
X2418109Y-99016D02*
G01*
X2343109Y-99016D01*
X2343109Y-174016D01*
D35*
X3491142Y-259016D02*
G01*
X3525582Y-224567D01*
X3434991Y-244094D02*
G01*
X3297291Y-244094D01*
X3434947Y-133859D02*
G01*
X3297247Y-133859D01*
D10*
X3571142Y-649016D02*
G01*
X3641142Y-649016D01*
X3641142Y-579016D01*
X3166142Y-649016D02*
G01*
X3091142Y-649016D01*
X3091142Y-574016D01*
X3641142Y-174016D02*
G01*
X3641142Y-99016D01*
X3566142Y-99016D01*
X3166142Y-99016D02*
G01*
X3091142Y-99016D01*
X3091142Y-174016D01*
D35*
X4239173Y-259016D02*
G01*
X4273613Y-224567D01*
X4183022Y-244094D02*
G01*
X4045322Y-244094D01*
X4182978Y-133859D02*
G01*
X4045279Y-133859D01*
D10*
X4319173Y-649016D02*
G01*
X4389173Y-649016D01*
X4389173Y-579016D01*
X3914173Y-649016D02*
G01*
X3839173Y-649016D01*
X3839173Y-574016D01*
X4389173Y-174016D02*
G01*
X4389173Y-99016D01*
X4314173Y-99016D01*
X3914173Y-99016D02*
G01*
X3839173Y-99016D01*
X3839173Y-174016D01*
D35*
X-4234173Y-867046D02*
G01*
X-4268612Y-901494D01*
X-4045322Y-992125D02*
G01*
X-4183023Y-992125D01*
X-4045367Y-881891D02*
G01*
X-4183067Y-881891D01*
D10*
X-3909173Y-1397046D02*
G01*
X-3839173Y-1397046D01*
X-3839173Y-1327046D01*
X-4314173Y-1397046D02*
G01*
X-4389173Y-1397046D01*
X-4389173Y-1322046D01*
X-3839173Y-922046D02*
G01*
X-3839173Y-847046D01*
X-3914173Y-847046D01*
X-4314173Y-847046D02*
G01*
X-4389173Y-847046D01*
X-4389173Y-922046D01*
D35*
X-3486142Y-867046D02*
G01*
X-3520581Y-901494D01*
X-3297292Y-992125D02*
G01*
X-3434992Y-992125D01*
X-3297336Y-881891D02*
G01*
X-3435036Y-881891D01*
D10*
X-3161142Y-1397046D02*
G01*
X-3091142Y-1397046D01*
X-3091142Y-1327046D01*
X-3566142Y-1397046D02*
G01*
X-3641142Y-1397046D01*
X-3641142Y-1322046D01*
X-3091142Y-922046D02*
G01*
X-3091142Y-847046D01*
X-3166142Y-847046D01*
X-3566142Y-847046D02*
G01*
X-3641142Y-847046D01*
X-3641142Y-922046D01*
D35*
X-2738110Y-867046D02*
G01*
X-2772548Y-901494D01*
X-2549260Y-992125D02*
G01*
X-2686959Y-992125D01*
X-2549304Y-881891D02*
G01*
X-2687004Y-881891D01*
D10*
X-2413110Y-1397046D02*
G01*
X-2343110Y-1397046D01*
X-2343110Y-1327046D01*
X-2818110Y-1397046D02*
G01*
X-2893110Y-1397046D01*
X-2893110Y-1322046D01*
X-2343110Y-922046D02*
G01*
X-2343110Y-847046D01*
X-2418110Y-847046D01*
X-2818110Y-847046D02*
G01*
X-2893110Y-847046D01*
X-2893110Y-922046D01*
D35*
X-1990079Y-867046D02*
G01*
X-2024517Y-901494D01*
X-1801229Y-992125D02*
G01*
X-1938928Y-992125D01*
X-1801273Y-881891D02*
G01*
X-1938973Y-881891D01*
D10*
X-1665079Y-1397046D02*
G01*
X-1595079Y-1397046D01*
X-1595079Y-1327046D01*
X-2070079Y-1397046D02*
G01*
X-2145079Y-1397046D01*
X-2145079Y-1322046D01*
X-1595079Y-922046D02*
G01*
X-1595079Y-847046D01*
X-1670079Y-847046D01*
X-2070079Y-847046D02*
G01*
X-2145079Y-847046D01*
X-2145079Y-922046D01*
D35*
X-1242047Y-867046D02*
G01*
X-1276486Y-901494D01*
X-1053197Y-992125D02*
G01*
X-1190897Y-992125D01*
X-1053240Y-881891D02*
G01*
X-1190941Y-881891D01*
D10*
X-917047Y-1397046D02*
G01*
X-847047Y-1397046D01*
X-847047Y-1327046D01*
X-1322047Y-1397046D02*
G01*
X-1397047Y-1397046D01*
X-1397047Y-1322046D01*
X-847047Y-922046D02*
G01*
X-847047Y-847046D01*
X-922047Y-847046D01*
X-1322047Y-847046D02*
G01*
X-1397047Y-847046D01*
X-1397047Y-922046D01*
D35*
X-494016Y-867046D02*
G01*
X-528455Y-901494D01*
X-305165Y-992125D02*
G01*
X-442866Y-992125D01*
X-305210Y-881891D02*
G01*
X-442910Y-881891D01*
D10*
X-169016Y-1397046D02*
G01*
X-99016Y-1397046D01*
X-99016Y-1327046D01*
X-574016Y-1397046D02*
G01*
X-649016Y-1397046D01*
X-649016Y-1322046D01*
X-99016Y-922046D02*
G01*
X-99016Y-847046D01*
X-174016Y-847046D01*
X-574016Y-847046D02*
G01*
X-649016Y-847046D01*
X-649016Y-922046D01*
D35*
X254016Y-867046D02*
G01*
X219576Y-901494D01*
X442865Y-992125D02*
G01*
X305165Y-992125D01*
X442821Y-881891D02*
G01*
X305122Y-881891D01*
D10*
X579016Y-1397046D02*
G01*
X649016Y-1397046D01*
X649016Y-1327046D01*
X174016Y-1397046D02*
G01*
X99016Y-1397046D01*
X99016Y-1322046D01*
X649016Y-922046D02*
G01*
X649016Y-847046D01*
X574016Y-847046D01*
X174016Y-847046D02*
G01*
X99016Y-847046D01*
X99016Y-922046D01*
D35*
X1002046Y-867046D02*
G01*
X967608Y-901494D01*
X1190896Y-992125D02*
G01*
X1053197Y-992125D01*
X1190852Y-881891D02*
G01*
X1053152Y-881891D01*
D10*
X1327046Y-1397046D02*
G01*
X1397046Y-1397046D01*
X1397046Y-1327046D01*
X922046Y-1397046D02*
G01*
X847046Y-1397046D01*
X847046Y-1322046D01*
X1397046Y-922046D02*
G01*
X1397046Y-847046D01*
X1322046Y-847046D01*
X922046Y-847046D02*
G01*
X847046Y-847046D01*
X847046Y-922046D01*
D35*
X1750078Y-867046D02*
G01*
X1715639Y-901494D01*
X1938928Y-992125D02*
G01*
X1801228Y-992125D01*
X1938885Y-881891D02*
G01*
X1801184Y-881891D01*
D10*
X2075078Y-1397046D02*
G01*
X2145078Y-1397046D01*
X2145078Y-1327046D01*
X1670078Y-1397046D02*
G01*
X1595078Y-1397046D01*
X1595078Y-1322046D01*
X2145078Y-922046D02*
G01*
X2145078Y-847046D01*
X2070078Y-847046D01*
X1670078Y-847046D02*
G01*
X1595078Y-847046D01*
X1595078Y-922046D01*
D35*
X2498109Y-867046D02*
G01*
X2463670Y-901494D01*
X2686959Y-992125D02*
G01*
X2549259Y-992125D01*
X2686916Y-881891D02*
G01*
X2549215Y-881891D01*
D10*
X2823109Y-1397046D02*
G01*
X2893109Y-1397046D01*
X2893109Y-1327046D01*
X2418109Y-1397046D02*
G01*
X2343109Y-1397046D01*
X2343109Y-1322046D01*
X2893109Y-922046D02*
G01*
X2893109Y-847046D01*
X2818109Y-847046D01*
X2418109Y-847046D02*
G01*
X2343109Y-847046D01*
X2343109Y-922046D01*
D35*
X3246142Y-867046D02*
G01*
X3211702Y-901494D01*
X3434991Y-992125D02*
G01*
X3297291Y-992125D01*
X3434947Y-881891D02*
G01*
X3297247Y-881891D01*
D10*
X3571142Y-1397046D02*
G01*
X3641142Y-1397046D01*
X3641142Y-1327046D01*
X3166142Y-1397046D02*
G01*
X3091142Y-1397046D01*
X3091142Y-1322046D01*
X3641142Y-922046D02*
G01*
X3641142Y-847046D01*
X3566142Y-847046D01*
X3166142Y-847046D02*
G01*
X3091142Y-847046D01*
X3091142Y-922046D01*
D35*
X3994173Y-867046D02*
G01*
X3959733Y-901494D01*
X4183022Y-992125D02*
G01*
X4045322Y-992125D01*
X4182978Y-881891D02*
G01*
X4045279Y-881891D01*
D10*
X4319173Y-1397046D02*
G01*
X4389173Y-1397046D01*
X4389173Y-1327046D01*
X3914173Y-1397046D02*
G01*
X3839173Y-1397046D01*
X3839173Y-1322046D01*
X4389173Y-922046D02*
G01*
X4389173Y-847046D01*
X4314173Y-847046D01*
X3914173Y-847046D02*
G01*
X3839173Y-847046D01*
X3839173Y-922046D01*
D36*
X15747Y-374016D02*
G01*
X78739Y-374016D01*
X78739Y-452755D01*
X15747Y-452755D01*
X-15748Y-452755D02*
G01*
X-78740Y-452755D01*
X-78740Y-374016D01*
X-15748Y-374016D01*
X78739Y-374016D02*
G01*
X78739Y-374016D01*
X90550Y-385826D01*
X90550Y-440945D01*
X90550Y-440945D01*
X78739Y-452755D01*
X-299212Y-551181D02*
G01*
X-236220Y-551181D01*
X-236220Y-629920D01*
X-299212Y-629920D01*
X-330708Y-629920D02*
G01*
X-393699Y-629920D01*
X-393699Y-551181D01*
X-330708Y-551181D01*
X-236220Y-551181D02*
G01*
X-236220Y-551181D01*
X-224409Y-562991D01*
X-224409Y-618110D01*
X-224409Y-618110D01*
X-236220Y-629920D01*
X330707Y-551181D02*
G01*
X393699Y-551181D01*
X393699Y-629920D01*
X330707Y-629920D01*
X299211Y-629920D02*
G01*
X236219Y-629920D01*
X236219Y-551181D01*
X299211Y-551181D01*
X393699Y-551181D02*
G01*
X393699Y-551181D01*
X405510Y-562991D01*
X405510Y-618110D01*
X405510Y-618110D01*
X393699Y-629920D01*
D37*
X-212600Y-391300D02*
G01*
X-212600Y-358699D01*
X-257400Y-359800D02*
G01*
X-257400Y-391300D01*
X-267500Y-358699D02*
G01*
X-202500Y-358699D01*
X-202500Y-358699D02*
G01*
X-202500Y-391300D01*
X-202500Y-391300D02*
G01*
X-267500Y-391300D01*
X-267500Y-391300D02*
G01*
X-267500Y-358699D01*
X-212600Y-441300D02*
G01*
X-212600Y-408699D01*
X-257400Y-409800D02*
G01*
X-257400Y-441300D01*
X-267500Y-408699D02*
G01*
X-202500Y-408699D01*
X-202500Y-408699D02*
G01*
X-202500Y-441300D01*
X-202500Y-441300D02*
G01*
X-267500Y-441300D01*
X-267500Y-441300D02*
G01*
X-267500Y-408699D01*
X258620Y-441300D02*
G01*
X258620Y-408699D01*
X213819Y-409800D02*
G01*
X213819Y-441300D01*
X203719Y-408699D02*
G01*
X268719Y-408699D01*
X268719Y-408699D02*
G01*
X268719Y-441300D01*
X268719Y-441300D02*
G01*
X203719Y-441300D01*
X203719Y-441300D02*
G01*
X203719Y-408699D01*
M02*
