G04 Layer: TopPasteMaskLayer*
G04 EasyEDA v6.4.25, 2022-01-27T13:57:17+08:00*
G04 c860a57ab6e24c20a85ed983e1d1ab15,3b57db4a37c74da5bb1b5bc11455ab19,10*
G04 Gerber Generator version 0.2*
G04 Scale: 100 percent, Rotated: No, Reflected: No *
G04 Dimensions in inches *
G04 leading zeros omitted , absolute positions ,3 integer and 6 decimal *
%FSLAX36Y36*%
%MOIN*%

%ADD14R,0.0472X0.0709*%
%ADD15R,0.0945X0.0315*%

%LPD*%
D14*
G01*
X-486226Y350394D03*
G01*
X-340556Y350394D03*
G01*
X-486226Y594484D03*
G01*
X-340556Y594484D03*
G36*
X-4240156Y230859D02*
G01*
X-4145669Y230859D01*
X-4145669Y199362D01*
X-4240156Y199362D01*
G37*
G36*
X-4082677Y230859D02*
G01*
X-3988189Y230859D01*
X-3988189Y199362D01*
X-4082677Y199362D01*
G37*
G36*
X-4082677Y179859D02*
G01*
X-3988189Y179859D01*
X-3988189Y148362D01*
X-4082677Y148362D01*
G37*
G36*
X-4240156Y179859D02*
G01*
X-4145669Y179859D01*
X-4145669Y148362D01*
X-4240156Y148362D01*
G37*
G36*
X-3492125Y230859D02*
G01*
X-3397638Y230859D01*
X-3397638Y199362D01*
X-3492125Y199362D01*
G37*
G36*
X-3334646Y230859D02*
G01*
X-3240158Y230859D01*
X-3240158Y199362D01*
X-3334646Y199362D01*
G37*
G36*
X-3334646Y179859D02*
G01*
X-3240158Y179859D01*
X-3240158Y148362D01*
X-3334646Y148362D01*
G37*
G36*
X-3492125Y179859D02*
G01*
X-3397638Y179859D01*
X-3397638Y148362D01*
X-3492125Y148362D01*
G37*
G36*
X-2744093Y230859D02*
G01*
X-2649606Y230859D01*
X-2649606Y199362D01*
X-2744093Y199362D01*
G37*
G36*
X-2586613Y230859D02*
G01*
X-2492125Y230859D01*
X-2492125Y199362D01*
X-2586613Y199362D01*
G37*
G36*
X-2586613Y179859D02*
G01*
X-2492125Y179859D01*
X-2492125Y148362D01*
X-2586613Y148362D01*
G37*
G36*
X-2744093Y179859D02*
G01*
X-2649606Y179859D01*
X-2649606Y148362D01*
X-2744093Y148362D01*
G37*
G36*
X-1996063Y230859D02*
G01*
X-1901575Y230859D01*
X-1901575Y199362D01*
X-1996063Y199362D01*
G37*
G36*
X-1838582Y230859D02*
G01*
X-1744094Y230859D01*
X-1744094Y199362D01*
X-1838582Y199362D01*
G37*
G36*
X-1838582Y179859D02*
G01*
X-1744094Y179859D01*
X-1744094Y148362D01*
X-1838582Y148362D01*
G37*
G36*
X-1996063Y179859D02*
G01*
X-1901575Y179859D01*
X-1901575Y148362D01*
X-1996063Y148362D01*
G37*
G36*
X-1248031Y230859D02*
G01*
X-1153542Y230859D01*
X-1153542Y199362D01*
X-1248031Y199362D01*
G37*
G36*
X-1090551Y230859D02*
G01*
X-996063Y230859D01*
X-996063Y199362D01*
X-1090551Y199362D01*
G37*
G36*
X-1090551Y179859D02*
G01*
X-996063Y179859D01*
X-996063Y148362D01*
X-1090551Y148362D01*
G37*
G36*
X-1248031Y179859D02*
G01*
X-1153542Y179859D01*
X-1153542Y148362D01*
X-1248031Y148362D01*
G37*
G36*
X996062Y230859D02*
G01*
X1090550Y230859D01*
X1090550Y199362D01*
X996062Y199362D01*
G37*
G36*
X1153542Y230859D02*
G01*
X1248031Y230859D01*
X1248031Y199362D01*
X1153542Y199362D01*
G37*
G36*
X1153542Y179859D02*
G01*
X1248031Y179859D01*
X1248031Y148362D01*
X1153542Y148362D01*
G37*
G36*
X996062Y179859D02*
G01*
X1090550Y179859D01*
X1090550Y148362D01*
X996062Y148362D01*
G37*
G36*
X1744094Y230859D02*
G01*
X1838582Y230859D01*
X1838582Y199362D01*
X1744094Y199362D01*
G37*
G36*
X1901574Y230859D02*
G01*
X1996062Y230859D01*
X1996062Y199362D01*
X1901574Y199362D01*
G37*
G36*
X1901574Y179859D02*
G01*
X1996062Y179859D01*
X1996062Y148362D01*
X1901574Y148362D01*
G37*
G36*
X1744094Y179859D02*
G01*
X1838582Y179859D01*
X1838582Y148362D01*
X1744094Y148362D01*
G37*
G36*
X2492125Y230859D02*
G01*
X2586613Y230859D01*
X2586613Y199362D01*
X2492125Y199362D01*
G37*
G36*
X2649606Y230859D02*
G01*
X2744094Y230859D01*
X2744094Y199362D01*
X2649606Y199362D01*
G37*
G36*
X2649606Y179859D02*
G01*
X2744094Y179859D01*
X2744094Y148362D01*
X2649606Y148362D01*
G37*
G36*
X2492125Y179859D02*
G01*
X2586613Y179859D01*
X2586613Y148362D01*
X2492125Y148362D01*
G37*
G36*
X3240158Y230859D02*
G01*
X3334645Y230859D01*
X3334645Y199362D01*
X3240158Y199362D01*
G37*
G36*
X3397637Y230859D02*
G01*
X3492125Y230859D01*
X3492125Y199362D01*
X3397637Y199362D01*
G37*
G36*
X3397637Y179859D02*
G01*
X3492125Y179859D01*
X3492125Y148362D01*
X3397637Y148362D01*
G37*
G36*
X3240158Y179859D02*
G01*
X3334645Y179859D01*
X3334645Y148362D01*
X3240158Y148362D01*
G37*
G36*
X3988188Y230859D02*
G01*
X4082676Y230859D01*
X4082676Y199362D01*
X3988188Y199362D01*
G37*
G36*
X4145668Y230859D02*
G01*
X4240156Y230859D01*
X4240156Y199362D01*
X4145668Y199362D01*
G37*
G36*
X4145668Y179859D02*
G01*
X4240156Y179859D01*
X4240156Y148362D01*
X4145668Y148362D01*
G37*
G36*
X3988188Y179859D02*
G01*
X4082676Y179859D01*
X4082676Y148362D01*
X3988188Y148362D01*
G37*
D15*
G01*
X-4035437Y-215106D03*
G01*
X-4192917Y-215106D03*
G01*
X-4192917Y-164115D03*
G01*
X-4035437Y-164115D03*
G01*
X-3287397Y-215106D03*
G01*
X-3444877Y-215106D03*
G01*
X-3444877Y-164115D03*
G01*
X-3287397Y-164115D03*
G01*
X-2539367Y-215106D03*
G01*
X-2696847Y-215106D03*
G01*
X-2696847Y-164115D03*
G01*
X-2539367Y-164115D03*
G01*
X-1791337Y-215106D03*
G01*
X-1948816Y-215106D03*
G01*
X-1948816Y-164115D03*
G01*
X-1791337Y-164115D03*
G01*
X-1043307Y-215106D03*
G01*
X-1200787Y-215106D03*
G01*
X-1200787Y-164115D03*
G01*
X-1043307Y-164115D03*
G01*
X1200783Y-215106D03*
G01*
X1043302Y-215106D03*
G01*
X1043302Y-164115D03*
G01*
X1200783Y-164115D03*
G01*
X1948822Y-215106D03*
G01*
X1791342Y-215106D03*
G01*
X1791342Y-164115D03*
G01*
X1948822Y-164115D03*
G01*
X2696853Y-215106D03*
G01*
X2539372Y-215106D03*
G01*
X2539372Y-164115D03*
G01*
X2696853Y-164115D03*
G01*
X3444883Y-215106D03*
G01*
X3287402Y-215106D03*
G01*
X3287402Y-164115D03*
G01*
X3444883Y-164115D03*
G01*
X4192912Y-215106D03*
G01*
X4035432Y-215106D03*
G01*
X4035432Y-164115D03*
G01*
X4192912Y-164115D03*
G01*
X-4035437Y-963146D03*
G01*
X-4192917Y-963146D03*
G01*
X-4192917Y-912145D03*
G01*
X-4035437Y-912145D03*
G01*
X-3287397Y-963146D03*
G01*
X-3444877Y-963146D03*
G01*
X-3444877Y-912145D03*
G01*
X-3287397Y-912145D03*
G01*
X-2539367Y-963146D03*
G01*
X-2696847Y-963146D03*
G01*
X-2696847Y-912145D03*
G01*
X-2539367Y-912145D03*
G01*
X-1791337Y-963146D03*
G01*
X-1948816Y-963146D03*
G01*
X-1948816Y-912145D03*
G01*
X-1791337Y-912145D03*
G01*
X-1043307Y-963146D03*
G01*
X-1200787Y-963146D03*
G01*
X-1200787Y-912145D03*
G01*
X-1043307Y-912145D03*
G01*
X-295277Y-963146D03*
G01*
X-452757Y-963146D03*
G01*
X-452757Y-912145D03*
G01*
X-295277Y-912145D03*
G01*
X452752Y-963146D03*
G01*
X295272Y-963146D03*
G01*
X295272Y-912145D03*
G01*
X452752Y-912145D03*
G01*
X1200783Y-963146D03*
G01*
X1043302Y-963146D03*
G01*
X1043302Y-912145D03*
G01*
X1200783Y-912145D03*
G01*
X1948822Y-963146D03*
G01*
X1791342Y-963146D03*
G01*
X1791342Y-912145D03*
G01*
X1948822Y-912145D03*
G01*
X2696853Y-963146D03*
G01*
X2539372Y-963146D03*
G01*
X2539372Y-912145D03*
G01*
X2696853Y-912145D03*
G01*
X3444883Y-963146D03*
G01*
X3287402Y-963146D03*
G01*
X3287402Y-912145D03*
G01*
X3444883Y-912145D03*
G01*
X4192912Y-963146D03*
G01*
X4035432Y-963146D03*
G01*
X4035432Y-912145D03*
G01*
X4192912Y-912145D03*
G36*
X-66950Y-385835D02*
G01*
X-15749Y-385835D01*
X-15749Y-440936D01*
X-66950Y-440936D01*
G37*
G36*
X15749Y-385835D02*
G01*
X66949Y-385835D01*
X66949Y-440936D01*
X15749Y-440936D01*
G37*
G36*
X-381910Y-563000D02*
G01*
X-330709Y-563000D01*
X-330709Y-618101D01*
X-381910Y-618101D01*
G37*
G36*
X-299210Y-563000D02*
G01*
X-248010Y-563000D01*
X-248010Y-618101D01*
X-299210Y-618101D01*
G37*
G36*
X248009Y-563000D02*
G01*
X299209Y-563000D01*
X299209Y-618101D01*
X248009Y-618101D01*
G37*
G36*
X330710Y-563000D02*
G01*
X381910Y-563000D01*
X381910Y-618101D01*
X330710Y-618101D01*
G37*
G36*
X-222900Y-355000D02*
G01*
X-186900Y-355000D01*
X-186900Y-395000D01*
X-222900Y-395000D01*
G37*
G36*
X-283100Y-355000D02*
G01*
X-247100Y-355000D01*
X-247100Y-395000D01*
X-283100Y-395000D01*
G37*
G36*
X-222900Y-405000D02*
G01*
X-186900Y-405000D01*
X-186900Y-445000D01*
X-222900Y-445000D01*
G37*
G36*
X-283100Y-405000D02*
G01*
X-247100Y-405000D01*
X-247100Y-445000D01*
X-283100Y-445000D01*
G37*
G36*
X248319Y-405000D02*
G01*
X284319Y-405000D01*
X284319Y-445000D01*
X248319Y-445000D01*
G37*
G36*
X188119Y-405000D02*
G01*
X224119Y-405000D01*
X224119Y-445000D01*
X188119Y-445000D01*
G37*
M02*
