G04 Layer: BottomSilkLayer*
G04 EasyEDA v6.4.25, 2022-01-27T13:57:17+08:00*
G04 c860a57ab6e24c20a85ed983e1d1ab15,3b57db4a37c74da5bb1b5bc11455ab19,10*
G04 Gerber Generator version 0.2*
G04 Scale: 100 percent, Rotated: No, Reflected: No *
G04 Dimensions in inches *
G04 leading zeros omitted , absolute positions ,3 integer and 6 decimal *
%FSLAX36Y36*%
%MOIN*%

%ADD10C,0.0100*%
%ADD24C,0.0236*%
%ADD25C,0.0118*%
%ADD35C,0.0060*%
%ADD36C,0.0079*%
%ADD37C,0.0051*%
%ADD38C,0.0024*%

%LPD*%
D35*
X-1465459Y50412D02*
G01*
X-1445003Y21775D01*
X-1475686Y21775D01*
X-1465459Y50412D02*
G01*
X-1465459Y7458D01*
X-1489185Y50412D02*
G01*
X-1489185Y7458D01*
X-1509639Y36093D02*
G01*
X-1489185Y15639D01*
X-1497368Y23821D02*
G01*
X-1511685Y7458D01*
X-1553822Y50412D02*
G01*
X-1533368Y7458D01*
X-1525186Y50412D02*
G01*
X-1553822Y50412D01*
X-1465459Y-124587D02*
G01*
X-1445003Y-153224D01*
X-1475686Y-153224D01*
X-1465459Y-124587D02*
G01*
X-1465459Y-167541D01*
X-1489185Y-124587D02*
G01*
X-1489185Y-167541D01*
X-1509639Y-138906D02*
G01*
X-1489185Y-159360D01*
X-1497368Y-151178D02*
G01*
X-1511685Y-167541D01*
X-1553822Y-124587D02*
G01*
X-1533368Y-167541D01*
X-1525186Y-124587D02*
G01*
X-1553822Y-124587D01*
X-1445003Y-17770D02*
G01*
X-1449095Y-15724D01*
X-1455231Y-9587D01*
X-1455231Y-52541D01*
X-1481004Y-9587D02*
G01*
X-1474868Y-11633D01*
X-1470776Y-17770D01*
X-1468731Y-27997D01*
X-1468731Y-34133D01*
X-1470776Y-44360D01*
X-1474868Y-50497D01*
X-1481004Y-52541D01*
X-1485095Y-52541D01*
X-1491231Y-50497D01*
X-1495322Y-44360D01*
X-1497368Y-34133D01*
X-1497368Y-27997D01*
X-1495322Y-17770D01*
X-1491231Y-11633D01*
X-1485095Y-9587D01*
X-1481004Y-9587D01*
X-1510868Y-9587D02*
G01*
X-1510868Y-52541D01*
X-1531322Y-23906D02*
G01*
X-1510868Y-44360D01*
X-1519049Y-36178D02*
G01*
X-1533368Y-52541D01*
X-1457277Y-64587D02*
G01*
X-1451140Y-66633D01*
X-1447049Y-72770D01*
X-1445003Y-82997D01*
X-1445003Y-89133D01*
X-1447049Y-99360D01*
X-1451140Y-105497D01*
X-1457277Y-107541D01*
X-1461368Y-107541D01*
X-1467503Y-105497D01*
X-1471595Y-99360D01*
X-1473640Y-89133D01*
X-1473640Y-82997D01*
X-1471595Y-72770D01*
X-1467503Y-66633D01*
X-1461368Y-64587D01*
X-1457277Y-64587D01*
X-1489185Y-97314D02*
G01*
X-1487139Y-99360D01*
X-1489185Y-101406D01*
X-1491231Y-99360D01*
X-1489185Y-97314D01*
X-1504731Y-72770D02*
G01*
X-1508822Y-70724D01*
X-1514958Y-64587D01*
X-1514958Y-107541D01*
X-1528459Y-78906D02*
G01*
X-1528459Y-99360D01*
X-1530504Y-105497D01*
X-1534594Y-107541D01*
X-1540731Y-107541D01*
X-1544822Y-105497D01*
X-1550959Y-99360D01*
X-1550959Y-78906D02*
G01*
X-1550959Y-107541D01*
X-901264Y-224935D02*
G01*
X-944218Y-224935D01*
X-901264Y-224935D02*
G01*
X-944218Y-208571D01*
X-901264Y-192208D02*
G01*
X-944218Y-208571D01*
X-901264Y-192208D02*
G01*
X-944218Y-192208D01*
X-901264Y-178708D02*
G01*
X-944218Y-150072D01*
X-901264Y-150072D02*
G01*
X-944218Y-178708D01*
X-909446Y-136572D02*
G01*
X-907400Y-132480D01*
X-901264Y-126345D01*
X-944218Y-126345D01*
X-933991Y-110799D02*
G01*
X-936037Y-112844D01*
X-938082Y-110799D01*
X-936037Y-108753D01*
X-933991Y-110799D01*
X-911491Y-93209D02*
G01*
X-909446Y-93209D01*
X-905354Y-91163D01*
X-903308Y-89117D01*
X-901264Y-85027D01*
X-901264Y-76844D01*
X-903308Y-72753D01*
X-905354Y-70709D01*
X-909446Y-68663D01*
X-913537Y-68663D01*
X-917628Y-70709D01*
X-923764Y-74800D01*
X-944218Y-95253D01*
X-944218Y-66617D01*
X-901264Y-28571D02*
G01*
X-901264Y-49027D01*
X-919673Y-51071D01*
X-917628Y-49027D01*
X-915582Y-42890D01*
X-915582Y-36754D01*
X-917628Y-30617D01*
X-921718Y-26527D01*
X-927854Y-24481D01*
X-931946Y-24481D01*
X-938082Y-26527D01*
X-942173Y-30617D01*
X-944218Y-36754D01*
X-944218Y-42890D01*
X-942173Y-49027D01*
X-940128Y-51071D01*
X-936037Y-53117D01*
X-958537Y-10981D02*
G01*
X-958537Y25837D01*
X-901264Y63881D02*
G01*
X-901264Y43427D01*
X-919673Y41381D01*
X-917628Y43427D01*
X-915582Y49564D01*
X-915582Y55700D01*
X-917628Y61837D01*
X-921718Y65927D01*
X-927854Y67973D01*
X-931946Y67973D01*
X-938082Y65927D01*
X-942173Y61837D01*
X-944218Y55700D01*
X-944218Y49564D01*
X-942173Y43427D01*
X-940128Y41381D01*
X-936037Y39337D01*
X-915582Y81473D02*
G01*
X-958537Y81473D01*
X-921718Y81473D02*
G01*
X-917628Y85563D01*
X-915582Y89655D01*
X-915582Y95790D01*
X-917628Y99882D01*
X-921718Y103973D01*
X-927854Y106019D01*
X-931946Y106019D01*
X-938082Y103973D01*
X-942173Y99882D01*
X-944218Y95790D01*
X-944218Y89655D01*
X-942173Y85563D01*
X-938082Y81473D01*
X-777227Y-585000D02*
G01*
X-779273Y-589090D01*
X-785408Y-595226D01*
X-742454Y-595226D01*
X-771091Y-608726D02*
G01*
X-750636Y-608726D01*
X-744499Y-610772D01*
X-742454Y-614863D01*
X-742454Y-620999D01*
X-744499Y-625090D01*
X-750636Y-631226D01*
X-771091Y-631226D02*
G01*
X-742454Y-631226D01*
X-860408Y-597273D02*
G01*
X-858364Y-591136D01*
X-852227Y-587044D01*
X-841999Y-585000D01*
X-835864Y-585000D01*
X-825636Y-587044D01*
X-819499Y-591136D01*
X-817454Y-597273D01*
X-817454Y-601363D01*
X-819499Y-607500D01*
X-825636Y-611590D01*
X-835864Y-613636D01*
X-841999Y-613636D01*
X-852227Y-611590D01*
X-858364Y-607500D01*
X-860408Y-601363D01*
X-860408Y-597273D01*
X-827682Y-629182D02*
G01*
X-825636Y-627136D01*
X-823591Y-629182D01*
X-825636Y-631226D01*
X-827682Y-629182D01*
X-852227Y-644726D02*
G01*
X-854273Y-648818D01*
X-860408Y-654954D01*
X-817454Y-654954D01*
X-846091Y-668454D02*
G01*
X-825636Y-668454D01*
X-819499Y-670500D01*
X-817454Y-674591D01*
X-817454Y-680727D01*
X-819499Y-684818D01*
X-825636Y-690954D01*
X-846091Y-690954D02*
G01*
X-817454Y-690954D01*
X27772Y-915000D02*
G01*
X25726Y-919090D01*
X19591Y-925226D01*
X62545Y-925226D01*
X33908Y-938726D02*
G01*
X54363Y-938726D01*
X60500Y-940772D01*
X62545Y-944863D01*
X62545Y-950999D01*
X60500Y-955090D01*
X54363Y-961226D01*
X33908Y-961226D02*
G01*
X62545Y-961226D01*
X-60408Y-867273D02*
G01*
X-58364Y-861136D01*
X-52227Y-857044D01*
X-41999Y-855000D01*
X-35864Y-855000D01*
X-25636Y-857044D01*
X-19499Y-861136D01*
X-17454Y-867273D01*
X-17454Y-871363D01*
X-19499Y-877500D01*
X-25636Y-881590D01*
X-35864Y-883636D01*
X-41999Y-883636D01*
X-52227Y-881590D01*
X-58364Y-877500D01*
X-60408Y-871363D01*
X-60408Y-867273D01*
X-27682Y-899182D02*
G01*
X-25636Y-897136D01*
X-23591Y-899182D01*
X-25636Y-901226D01*
X-27682Y-899182D01*
X-52227Y-914726D02*
G01*
X-54273Y-918818D01*
X-60408Y-924954D01*
X-17454Y-924954D01*
X-46091Y-938454D02*
G01*
X-25636Y-938454D01*
X-19499Y-940500D01*
X-17454Y-944591D01*
X-17454Y-950727D01*
X-19499Y-954818D01*
X-25636Y-960954D01*
X-46091Y-960954D02*
G01*
X-17454Y-960954D01*
X-1454293Y172844D02*
G01*
X-1458384Y174890D01*
X-1464520Y181026D01*
X-1464520Y138072D01*
X-1478020Y166707D02*
G01*
X-1478020Y146253D01*
X-1480066Y140117D01*
X-1484157Y138072D01*
X-1490293Y138072D01*
X-1494384Y140117D01*
X-1500520Y146253D01*
X-1500520Y166707D02*
G01*
X-1500520Y138072D01*
X-1461566Y106026D02*
G01*
X-1455429Y103980D01*
X-1451338Y97844D01*
X-1449293Y87617D01*
X-1449293Y81480D01*
X-1451338Y71253D01*
X-1455429Y65117D01*
X-1461566Y63072D01*
X-1465657Y63072D01*
X-1471793Y65117D01*
X-1475884Y71253D01*
X-1477929Y81480D01*
X-1477929Y87617D01*
X-1475884Y97844D01*
X-1471793Y103980D01*
X-1465657Y106026D01*
X-1461566Y106026D01*
X-1493474Y73299D02*
G01*
X-1491428Y71253D01*
X-1493474Y69207D01*
X-1495520Y71253D01*
X-1493474Y73299D01*
X-1509020Y97844D02*
G01*
X-1513110Y99890D01*
X-1519248Y106026D01*
X-1519248Y63072D01*
X-1532748Y91707D02*
G01*
X-1532748Y71253D01*
X-1534792Y65117D01*
X-1538883Y63072D01*
X-1545020Y63072D01*
X-1549111Y65117D01*
X-1555248Y71253D01*
X-1555248Y91707D02*
G01*
X-1555248Y63072D01*
X-300408Y390455D02*
G01*
X-300408Y410909D01*
X-281999Y412955D01*
X-284045Y410909D01*
X-286091Y404773D01*
X-286091Y398636D01*
X-284045Y392500D01*
X-279954Y388409D01*
X-273818Y386363D01*
X-269727Y386363D01*
X-263591Y388409D01*
X-259499Y392500D01*
X-257454Y398636D01*
X-257454Y404773D01*
X-259499Y410909D01*
X-261545Y412955D01*
X-265636Y415000D01*
X-300408Y372863D02*
G01*
X-257454Y372863D01*
X-286091Y352409D02*
G01*
X-265636Y372863D01*
X-273818Y364682D02*
G01*
X-257454Y350363D01*
X-292227Y336864D02*
G01*
X-294273Y332773D01*
X-300408Y326635D01*
X-257454Y326635D01*
X-352227Y410000D02*
G01*
X-354273Y405909D01*
X-360408Y399773D01*
X-317454Y399773D01*
X-360408Y374000D02*
G01*
X-358364Y380136D01*
X-352227Y384227D01*
X-341999Y386273D01*
X-335864Y386273D01*
X-325636Y384227D01*
X-319499Y380136D01*
X-317454Y374000D01*
X-317454Y369909D01*
X-319499Y363773D01*
X-325636Y359682D01*
X-335864Y357636D01*
X-341999Y357636D01*
X-352227Y359682D01*
X-358364Y363773D01*
X-360408Y369909D01*
X-360408Y374000D01*
X-360408Y344135D02*
G01*
X-317454Y344135D01*
X-346091Y323681D02*
G01*
X-325636Y344135D01*
X-333818Y335954D02*
G01*
X-317454Y321635D01*
X279591Y545455D02*
G01*
X279591Y565909D01*
X298000Y567955D01*
X295954Y565909D01*
X293908Y559773D01*
X293908Y553636D01*
X295954Y547500D01*
X300045Y543409D01*
X306181Y541363D01*
X310272Y541363D01*
X316408Y543409D01*
X320500Y547500D01*
X322545Y553636D01*
X322545Y559773D01*
X320500Y565909D01*
X318454Y567955D01*
X314363Y570000D01*
X279591Y527863D02*
G01*
X322545Y527863D01*
X293908Y507409D02*
G01*
X314363Y527863D01*
X306181Y519682D02*
G01*
X322545Y505363D01*
X287772Y491864D02*
G01*
X285726Y487773D01*
X279591Y481635D01*
X322545Y481635D01*
X347772Y530000D02*
G01*
X345726Y525909D01*
X339591Y519773D01*
X382545Y519773D01*
X353908Y506273D02*
G01*
X374363Y506273D01*
X380500Y504227D01*
X382545Y500136D01*
X382545Y494000D01*
X380500Y489909D01*
X374363Y483773D01*
X353908Y483773D02*
G01*
X382545Y483773D01*
X414591Y577726D02*
G01*
X416635Y583863D01*
X422772Y587955D01*
X433000Y590000D01*
X439135Y590000D01*
X449363Y587955D01*
X455500Y583863D01*
X457545Y577726D01*
X457545Y573636D01*
X455500Y567500D01*
X449363Y563409D01*
X439135Y561363D01*
X433000Y561363D01*
X422772Y563409D01*
X416635Y567500D01*
X414591Y573636D01*
X414591Y577726D01*
X447317Y545817D02*
G01*
X449363Y547863D01*
X451408Y545817D01*
X449363Y543773D01*
X447317Y545817D01*
X422772Y530273D02*
G01*
X420726Y526181D01*
X414591Y520045D01*
X457545Y520045D01*
X428908Y506545D02*
G01*
X449363Y506545D01*
X455500Y504499D01*
X457545Y500408D01*
X457545Y494272D01*
X455500Y490181D01*
X449363Y484045D01*
X428908Y484045D02*
G01*
X457545Y484045D01*
X587955Y505181D02*
G01*
X587955Y507227D01*
X585909Y511318D01*
X583863Y513364D01*
X579772Y515408D01*
X571590Y515408D01*
X567500Y513364D01*
X565455Y511318D01*
X563409Y507227D01*
X563409Y503135D01*
X565455Y499045D01*
X569544Y492908D01*
X590000Y472454D01*
X561363Y472454D01*
X545817Y505181D02*
G01*
X545817Y507227D01*
X543773Y511318D01*
X541727Y513364D01*
X537635Y515408D01*
X529454Y515408D01*
X525363Y513364D01*
X523317Y511318D01*
X521273Y507227D01*
X521273Y503135D01*
X523317Y499045D01*
X527408Y492908D01*
X547863Y472454D01*
X519227Y472454D01*
X505726Y501091D02*
G01*
X505726Y472454D01*
X505726Y488818D02*
G01*
X503681Y494954D01*
X499591Y499045D01*
X495500Y501091D01*
X489363Y501091D01*
X637772Y530000D02*
G01*
X635726Y525909D01*
X629591Y519773D01*
X672545Y519773D01*
X643908Y506273D02*
G01*
X664363Y506273D01*
X670500Y504227D01*
X672545Y500136D01*
X672545Y494000D01*
X670500Y489909D01*
X664363Y483773D01*
X643908Y483773D02*
G01*
X672545Y483773D01*
X704591Y577726D02*
G01*
X706635Y583863D01*
X712772Y587955D01*
X723000Y590000D01*
X729135Y590000D01*
X739363Y587955D01*
X745500Y583863D01*
X747545Y577726D01*
X747545Y573636D01*
X745500Y567500D01*
X739363Y563409D01*
X729135Y561363D01*
X723000Y561363D01*
X712772Y563409D01*
X706635Y567500D01*
X704591Y573636D01*
X704591Y577726D01*
X737317Y545817D02*
G01*
X739363Y547863D01*
X741408Y545817D01*
X739363Y543773D01*
X737317Y545817D01*
X712772Y530273D02*
G01*
X710726Y526181D01*
X704591Y520045D01*
X747545Y520045D01*
X718908Y506545D02*
G01*
X739363Y506545D01*
X745500Y504499D01*
X747545Y500408D01*
X747545Y494272D01*
X745500Y490181D01*
X739363Y484045D01*
X718908Y484045D02*
G01*
X747545Y484045D01*
X811319Y370538D02*
G01*
X853263Y351736D01*
X811319Y370538D02*
G01*
X830122Y328593D01*
X838800Y357521D02*
G01*
X824336Y343056D01*
X780078Y339297D02*
G01*
X810451Y308924D01*
X790203Y349421D02*
G01*
X769953Y329171D01*
X760407Y319627D02*
G01*
X790781Y289252D01*
X760407Y319627D02*
G01*
X779210Y277681D01*
X737267Y296485D02*
G01*
X779210Y277681D01*
X737267Y296485D02*
G01*
X767640Y266111D01*
X727721Y286939D02*
G01*
X758094Y256565D01*
X727721Y286939D02*
G01*
X708917Y268135D01*
X742183Y272474D02*
G01*
X730612Y260905D01*
X758094Y256565D02*
G01*
X739291Y237762D01*
X684908Y229663D02*
G01*
X683461Y234002D01*
X683461Y239787D01*
X684908Y244126D01*
X690693Y249911D01*
X695032Y251359D01*
X700819Y251359D01*
X705158Y249911D01*
X710942Y247020D01*
X718175Y239787D01*
X721067Y234002D01*
X722514Y229663D01*
X722514Y223877D01*
X721067Y219538D01*
X715281Y213753D01*
X710942Y212307D01*
X705158Y212307D01*
X700819Y213753D01*
X696480Y218092D01*
X703710Y225324D02*
G01*
X696480Y218092D01*
X656559Y215778D02*
G01*
X698503Y196975D01*
X656559Y215778D02*
G01*
X675362Y173834D01*
X684040Y202761D02*
G01*
X669576Y188297D01*
X632550Y191768D02*
G01*
X616640Y175859D01*
X636889Y172966D01*
X632550Y168627D01*
X631103Y164288D01*
X631103Y161395D01*
X633996Y155610D01*
X636889Y152717D01*
X642674Y149823D01*
X648460Y149823D01*
X654245Y152717D01*
X658584Y157056D01*
X661477Y162842D01*
X661477Y165734D01*
X660030Y170073D01*
X611433Y156188D02*
G01*
X609987Y157635D01*
X605648Y159081D01*
X602755Y159081D01*
X598416Y157635D01*
X592631Y151849D01*
X591184Y147510D01*
X591184Y144618D01*
X592631Y140279D01*
X595523Y137386D01*
X599862Y135938D01*
X607094Y134493D01*
X636021Y134493D01*
X615772Y114243D01*
X575853Y135072D02*
G01*
X597548Y113375D01*
X600441Y107591D01*
X600441Y101806D01*
X597548Y96019D01*
X594655Y93126D01*
X588870Y90235D01*
X583085Y90235D01*
X577299Y93126D01*
X555604Y114823D01*
X531594Y90812D02*
G01*
X566307Y85028D01*
X544611Y63332D01*
X531594Y90812D02*
G01*
X561968Y60439D01*
X1607226Y45000D02*
G01*
X1609272Y49090D01*
X1615408Y55226D01*
X1572455Y55226D01*
X1609272Y93272D02*
G01*
X1613364Y91226D01*
X1615408Y85091D01*
X1615408Y80999D01*
X1613364Y74864D01*
X1607226Y70772D01*
X1596999Y68726D01*
X1586772Y68726D01*
X1578590Y70772D01*
X1574499Y74864D01*
X1572455Y80999D01*
X1572455Y83045D01*
X1574499Y89182D01*
X1578590Y93272D01*
X1584726Y95318D01*
X1586772Y95318D01*
X1592908Y93272D01*
X1596999Y89182D01*
X1599044Y83045D01*
X1599044Y80999D01*
X1596999Y74864D01*
X1592908Y70772D01*
X1586772Y68726D01*
X1615408Y108818D02*
G01*
X1572455Y108818D01*
X1615408Y108818D02*
G01*
X1572455Y125181D01*
X1615408Y141545D02*
G01*
X1572455Y125181D01*
X1615408Y141545D02*
G01*
X1572455Y141545D01*
X1615408Y155045D02*
G01*
X1572455Y155045D01*
X1592908Y155045D02*
G01*
X1599044Y161181D01*
X1601090Y165273D01*
X1601090Y171408D01*
X1599044Y175500D01*
X1592908Y177545D01*
X1572455Y177545D01*
X1601090Y213544D02*
G01*
X1572455Y191044D01*
X1601090Y191044D02*
G01*
X1601090Y213544D01*
X1572455Y191044D02*
G01*
X1572455Y213544D01*
X1254817Y172955D02*
G01*
X1252772Y172955D01*
X1248681Y170909D01*
X1246635Y168863D01*
X1244591Y164773D01*
X1244591Y156590D01*
X1246635Y152500D01*
X1248681Y150455D01*
X1252772Y148409D01*
X1256863Y148409D01*
X1260954Y150455D01*
X1267091Y154544D01*
X1287545Y175000D01*
X1287545Y146363D01*
X1254817Y130817D02*
G01*
X1252772Y130817D01*
X1248681Y128773D01*
X1246635Y126727D01*
X1244591Y122636D01*
X1244591Y114454D01*
X1246635Y110363D01*
X1248681Y108317D01*
X1252772Y106273D01*
X1256863Y106273D01*
X1260954Y108317D01*
X1267091Y112409D01*
X1287545Y132863D01*
X1287545Y104227D01*
X1258908Y90727D02*
G01*
X1301863Y90727D01*
X1265045Y90727D02*
G01*
X1260954Y86635D01*
X1258908Y82545D01*
X1258908Y76408D01*
X1260954Y72318D01*
X1265045Y68227D01*
X1271181Y66181D01*
X1275272Y66181D01*
X1281408Y68227D01*
X1285500Y72318D01*
X1287545Y76408D01*
X1287545Y82545D01*
X1285500Y86635D01*
X1281408Y90727D01*
X569591Y-322273D02*
G01*
X571635Y-316136D01*
X577772Y-312044D01*
X588000Y-310000D01*
X594135Y-310000D01*
X604363Y-312044D01*
X610500Y-316136D01*
X612545Y-322273D01*
X612545Y-326363D01*
X610500Y-332500D01*
X604363Y-336590D01*
X594135Y-338636D01*
X588000Y-338636D01*
X577772Y-336590D01*
X571635Y-332500D01*
X569591Y-326363D01*
X569591Y-322273D01*
X602317Y-354182D02*
G01*
X604363Y-352136D01*
X606408Y-354182D01*
X604363Y-356226D01*
X602317Y-354182D01*
X577772Y-369726D02*
G01*
X575726Y-373818D01*
X569591Y-379954D01*
X612545Y-379954D01*
X583908Y-393454D02*
G01*
X604363Y-393454D01*
X610500Y-395500D01*
X612545Y-399591D01*
X612545Y-405727D01*
X610500Y-409818D01*
X604363Y-415954D01*
X583908Y-415954D02*
G01*
X612545Y-415954D01*
X649591Y-337273D02*
G01*
X651635Y-331136D01*
X657772Y-327044D01*
X668000Y-325000D01*
X674135Y-325000D01*
X684363Y-327044D01*
X690500Y-331136D01*
X692545Y-337273D01*
X692545Y-341363D01*
X690500Y-347500D01*
X684363Y-351590D01*
X674135Y-353636D01*
X668000Y-353636D01*
X657772Y-351590D01*
X651635Y-347500D01*
X649591Y-341363D01*
X649591Y-337273D01*
X682317Y-369182D02*
G01*
X684363Y-367136D01*
X686408Y-369182D01*
X684363Y-371226D01*
X682317Y-369182D01*
X657772Y-384726D02*
G01*
X655726Y-388818D01*
X649591Y-394954D01*
X692545Y-394954D01*
X663908Y-408454D02*
G01*
X684363Y-408454D01*
X690500Y-410500D01*
X692545Y-414591D01*
X692545Y-420727D01*
X690500Y-424818D01*
X684363Y-430954D01*
X663908Y-430954D02*
G01*
X692545Y-430954D01*
X1002226Y-410000D02*
G01*
X1004272Y-405909D01*
X1010408Y-399773D01*
X967454Y-399773D01*
X1010408Y-374000D02*
G01*
X1008364Y-380135D01*
X1002226Y-384227D01*
X991999Y-386273D01*
X985864Y-386273D01*
X975635Y-384227D01*
X969499Y-380135D01*
X967454Y-374000D01*
X967454Y-369908D01*
X969499Y-363773D01*
X975635Y-359681D01*
X985864Y-357635D01*
X991999Y-357635D01*
X1002226Y-359681D01*
X1008364Y-363773D01*
X1010408Y-369908D01*
X1010408Y-374000D01*
X1010408Y-344135D02*
G01*
X967454Y-344135D01*
X996090Y-323681D02*
G01*
X975635Y-344135D01*
X983818Y-335954D02*
G01*
X967454Y-321635D01*
D38*
X-4028627Y597595D02*
G01*
X-4006078Y597595D01*
X-4021111Y586858D02*
G01*
X-4010374Y597595D01*
X-4014669Y593301D02*
G01*
X-4006078Y585785D01*
X-4021111Y565814D02*
G01*
X-4006078Y565814D01*
X-4017890Y565814D02*
G01*
X-4020037Y567961D01*
X-4021111Y570109D01*
X-4021111Y573330D01*
X-4020037Y575477D01*
X-4017890Y577624D01*
X-4014669Y578697D01*
X-4012521Y578697D01*
X-4009300Y577624D01*
X-4007152Y575477D01*
X-4006078Y573330D01*
X-4006078Y570109D01*
X-4007152Y567961D01*
X-4009300Y565814D01*
X-4028627Y558726D02*
G01*
X-4027553Y557653D01*
X-4028627Y556579D01*
X-4029701Y557653D01*
X-4028627Y558726D01*
X-4021111Y557653D02*
G01*
X-4006078Y557653D01*
X-4028627Y549493D02*
G01*
X-4006078Y549493D01*
X-4028627Y542406D02*
G01*
X-4006078Y542406D01*
X-4016815Y542406D02*
G01*
X-4020037Y539185D01*
X-4021111Y537038D01*
X-4021111Y533816D01*
X-4020037Y531669D01*
X-4016815Y530594D01*
X-4006078Y530594D01*
X-3280596Y597595D02*
G01*
X-3258047Y597595D01*
X-3273080Y586858D02*
G01*
X-3262343Y597595D01*
X-3266638Y593301D02*
G01*
X-3258047Y585785D01*
X-3273080Y565814D02*
G01*
X-3258047Y565814D01*
X-3269859Y565814D02*
G01*
X-3272006Y567961D01*
X-3273080Y570109D01*
X-3273080Y573330D01*
X-3272006Y575477D01*
X-3269859Y577624D01*
X-3266638Y578697D01*
X-3264490Y578697D01*
X-3261269Y577624D01*
X-3259122Y575477D01*
X-3258047Y573330D01*
X-3258047Y570109D01*
X-3259122Y567961D01*
X-3261269Y565814D01*
X-3280596Y558726D02*
G01*
X-3279522Y557653D01*
X-3280596Y556579D01*
X-3281670Y557653D01*
X-3280596Y558726D01*
X-3273080Y557653D02*
G01*
X-3258047Y557653D01*
X-3280596Y549493D02*
G01*
X-3258047Y549493D01*
X-3280596Y542406D02*
G01*
X-3258047Y542406D01*
X-3268785Y542406D02*
G01*
X-3272006Y539185D01*
X-3273080Y537038D01*
X-3273080Y533816D01*
X-3272006Y531669D01*
X-3268785Y530594D01*
X-3258047Y530594D01*
X-2532564Y597595D02*
G01*
X-2510016Y597595D01*
X-2525048Y586858D02*
G01*
X-2514311Y597595D01*
X-2518606Y593301D02*
G01*
X-2510016Y585785D01*
X-2525048Y565814D02*
G01*
X-2510016Y565814D01*
X-2521827Y565814D02*
G01*
X-2523973Y567961D01*
X-2525048Y570109D01*
X-2525048Y573330D01*
X-2523973Y575477D01*
X-2521827Y577624D01*
X-2518606Y578697D01*
X-2516458Y578697D01*
X-2513236Y577624D01*
X-2511090Y575477D01*
X-2510016Y573330D01*
X-2510016Y570109D01*
X-2511090Y567961D01*
X-2513236Y565814D01*
X-2532564Y558726D02*
G01*
X-2531490Y557653D01*
X-2532564Y556579D01*
X-2533638Y557653D01*
X-2532564Y558726D01*
X-2525048Y557653D02*
G01*
X-2510016Y557653D01*
X-2532564Y549493D02*
G01*
X-2510016Y549493D01*
X-2532564Y542406D02*
G01*
X-2510016Y542406D01*
X-2520753Y542406D02*
G01*
X-2523973Y539185D01*
X-2525048Y537038D01*
X-2525048Y533816D01*
X-2523973Y531669D01*
X-2520753Y530594D01*
X-2510016Y530594D01*
X-1784533Y597595D02*
G01*
X-1761985Y597595D01*
X-1777017Y586858D02*
G01*
X-1766280Y597595D01*
X-1770574Y593301D02*
G01*
X-1761985Y585785D01*
X-1777017Y565814D02*
G01*
X-1761985Y565814D01*
X-1773796Y565814D02*
G01*
X-1775943Y567961D01*
X-1777017Y570109D01*
X-1777017Y573330D01*
X-1775943Y575477D01*
X-1773796Y577624D01*
X-1770574Y578697D01*
X-1768427Y578697D01*
X-1765205Y577624D01*
X-1763059Y575477D01*
X-1761985Y573330D01*
X-1761985Y570109D01*
X-1763059Y567961D01*
X-1765205Y565814D01*
X-1784533Y558726D02*
G01*
X-1783459Y557653D01*
X-1784533Y556579D01*
X-1785607Y557653D01*
X-1784533Y558726D01*
X-1777017Y557653D02*
G01*
X-1761985Y557653D01*
X-1784533Y549493D02*
G01*
X-1761985Y549493D01*
X-1784533Y542406D02*
G01*
X-1761985Y542406D01*
X-1772722Y542406D02*
G01*
X-1775943Y539185D01*
X-1777017Y537038D01*
X-1777017Y533816D01*
X-1775943Y531669D01*
X-1772722Y530594D01*
X-1761985Y530594D01*
X-1036500Y597595D02*
G01*
X-1013953Y597595D01*
X-1028985Y586858D02*
G01*
X-1018248Y597595D01*
X-1022543Y593301D02*
G01*
X-1013953Y585785D01*
X-1028985Y565814D02*
G01*
X-1013953Y565814D01*
X-1025763Y565814D02*
G01*
X-1027911Y567961D01*
X-1028985Y570109D01*
X-1028985Y573330D01*
X-1027911Y575477D01*
X-1025763Y577624D01*
X-1022543Y578697D01*
X-1020394Y578697D01*
X-1017174Y577624D01*
X-1015027Y575477D01*
X-1013953Y573330D01*
X-1013953Y570109D01*
X-1015027Y567961D01*
X-1017174Y565814D01*
X-1036500Y558726D02*
G01*
X-1035426Y557653D01*
X-1036500Y556579D01*
X-1037575Y557653D01*
X-1036500Y558726D01*
X-1028985Y557653D02*
G01*
X-1013953Y557653D01*
X-1036500Y549493D02*
G01*
X-1013953Y549493D01*
X-1036500Y542406D02*
G01*
X-1013953Y542406D01*
X-1024690Y542406D02*
G01*
X-1027911Y539185D01*
X-1028985Y537038D01*
X-1028985Y533816D01*
X-1027911Y531669D01*
X-1024690Y530594D01*
X-1013953Y530594D01*
X1207592Y597595D02*
G01*
X1230140Y597595D01*
X1215108Y586858D02*
G01*
X1225846Y597595D01*
X1221550Y593301D02*
G01*
X1230140Y585785D01*
X1215108Y565814D02*
G01*
X1230140Y565814D01*
X1218329Y565814D02*
G01*
X1216183Y567961D01*
X1215108Y570109D01*
X1215108Y573330D01*
X1216183Y575477D01*
X1218329Y577624D01*
X1221550Y578697D01*
X1223698Y578697D01*
X1226920Y577624D01*
X1229066Y575477D01*
X1230140Y573330D01*
X1230140Y570109D01*
X1229066Y567961D01*
X1226920Y565814D01*
X1207592Y558726D02*
G01*
X1208666Y557653D01*
X1207592Y556579D01*
X1206518Y557653D01*
X1207592Y558726D01*
X1215108Y557653D02*
G01*
X1230140Y557653D01*
X1207592Y549493D02*
G01*
X1230140Y549493D01*
X1207592Y542406D02*
G01*
X1230140Y542406D01*
X1219403Y542406D02*
G01*
X1216183Y539185D01*
X1215108Y537038D01*
X1215108Y533816D01*
X1216183Y531669D01*
X1219403Y530594D01*
X1230140Y530594D01*
X1955625Y597595D02*
G01*
X1978172Y597595D01*
X1963140Y586858D02*
G01*
X1973877Y597595D01*
X1969582Y593301D02*
G01*
X1978172Y585785D01*
X1963140Y565814D02*
G01*
X1978172Y565814D01*
X1966361Y565814D02*
G01*
X1964214Y567961D01*
X1963140Y570109D01*
X1963140Y573330D01*
X1964214Y575477D01*
X1966361Y577624D01*
X1969582Y578697D01*
X1971730Y578697D01*
X1974951Y577624D01*
X1977098Y575477D01*
X1978172Y573330D01*
X1978172Y570109D01*
X1977098Y567961D01*
X1974951Y565814D01*
X1955625Y558726D02*
G01*
X1956698Y557653D01*
X1955625Y556579D01*
X1954551Y557653D01*
X1955625Y558726D01*
X1963140Y557653D02*
G01*
X1978172Y557653D01*
X1955625Y549493D02*
G01*
X1978172Y549493D01*
X1955625Y542406D02*
G01*
X1978172Y542406D01*
X1967435Y542406D02*
G01*
X1964214Y539185D01*
X1963140Y537038D01*
X1963140Y533816D01*
X1964214Y531669D01*
X1967435Y530594D01*
X1978172Y530594D01*
X2703656Y597595D02*
G01*
X2726203Y597595D01*
X2711171Y586858D02*
G01*
X2721908Y597595D01*
X2717613Y593301D02*
G01*
X2726203Y585785D01*
X2711171Y565814D02*
G01*
X2726203Y565814D01*
X2714393Y565814D02*
G01*
X2712245Y567961D01*
X2711171Y570109D01*
X2711171Y573330D01*
X2712245Y575477D01*
X2714393Y577624D01*
X2717613Y578697D01*
X2719762Y578697D01*
X2722982Y577624D01*
X2725129Y575477D01*
X2726203Y573330D01*
X2726203Y570109D01*
X2725129Y567961D01*
X2722982Y565814D01*
X2703656Y558726D02*
G01*
X2704729Y557653D01*
X2703656Y556579D01*
X2702581Y557653D01*
X2703656Y558726D01*
X2711171Y557653D02*
G01*
X2726203Y557653D01*
X2703656Y549493D02*
G01*
X2726203Y549493D01*
X2703656Y542406D02*
G01*
X2726203Y542406D01*
X2715466Y542406D02*
G01*
X2712245Y539185D01*
X2711171Y537038D01*
X2711171Y533816D01*
X2712245Y531669D01*
X2715466Y530594D01*
X2726203Y530594D01*
X3451687Y597595D02*
G01*
X3474236Y597595D01*
X3459203Y586858D02*
G01*
X3469940Y597595D01*
X3465645Y593301D02*
G01*
X3474236Y585785D01*
X3459203Y565814D02*
G01*
X3474236Y565814D01*
X3462424Y565814D02*
G01*
X3460277Y567961D01*
X3459203Y570109D01*
X3459203Y573330D01*
X3460277Y575477D01*
X3462424Y577624D01*
X3465645Y578697D01*
X3467793Y578697D01*
X3471014Y577624D01*
X3473161Y575477D01*
X3474236Y573330D01*
X3474236Y570109D01*
X3473161Y567961D01*
X3471014Y565814D01*
X3451687Y558726D02*
G01*
X3452761Y557653D01*
X3451687Y556579D01*
X3450613Y557653D01*
X3451687Y558726D01*
X3459203Y557653D02*
G01*
X3474236Y557653D01*
X3451687Y549493D02*
G01*
X3474236Y549493D01*
X3451687Y542406D02*
G01*
X3474236Y542406D01*
X3463499Y542406D02*
G01*
X3460277Y539185D01*
X3459203Y537038D01*
X3459203Y533816D01*
X3460277Y531669D01*
X3463499Y530594D01*
X3474236Y530594D01*
X4199718Y597595D02*
G01*
X4222267Y597595D01*
X4207235Y586858D02*
G01*
X4217972Y597595D01*
X4213676Y593301D02*
G01*
X4222267Y585785D01*
X4207235Y565814D02*
G01*
X4222267Y565814D01*
X4210455Y565814D02*
G01*
X4208308Y567961D01*
X4207235Y570109D01*
X4207235Y573330D01*
X4208308Y575477D01*
X4210455Y577624D01*
X4213676Y578697D01*
X4215824Y578697D01*
X4219045Y577624D01*
X4221192Y575477D01*
X4222267Y573330D01*
X4222267Y570109D01*
X4221192Y567961D01*
X4219045Y565814D01*
X4199718Y558726D02*
G01*
X4200792Y557653D01*
X4199718Y556579D01*
X4198644Y557653D01*
X4199718Y558726D01*
X4207235Y557653D02*
G01*
X4222267Y557653D01*
X4199718Y549493D02*
G01*
X4222267Y549493D01*
X4199718Y542406D02*
G01*
X4222267Y542406D01*
X4211529Y542406D02*
G01*
X4208308Y539185D01*
X4207235Y537038D01*
X4207235Y533816D01*
X4208308Y531669D01*
X4211529Y530594D01*
X4222267Y530594D01*
X-4199719Y-597595D02*
G01*
X-4222267Y-597595D01*
X-4207235Y-586858D02*
G01*
X-4217972Y-597595D01*
X-4213677Y-593301D02*
G01*
X-4222267Y-585785D01*
X-4207235Y-565814D02*
G01*
X-4222267Y-565814D01*
X-4210456Y-565814D02*
G01*
X-4208308Y-567961D01*
X-4207235Y-570108D01*
X-4207235Y-573330D01*
X-4208308Y-575477D01*
X-4210456Y-577624D01*
X-4213677Y-578697D01*
X-4215825Y-578697D01*
X-4219045Y-577624D01*
X-4221193Y-575477D01*
X-4222267Y-573330D01*
X-4222267Y-570108D01*
X-4221193Y-567961D01*
X-4219045Y-565814D01*
X-4199719Y-558726D02*
G01*
X-4200793Y-557653D01*
X-4199719Y-556579D01*
X-4198645Y-557653D01*
X-4199719Y-558726D01*
X-4207235Y-557653D02*
G01*
X-4222267Y-557653D01*
X-4199719Y-549492D02*
G01*
X-4222267Y-549492D01*
X-4199719Y-542406D02*
G01*
X-4222267Y-542406D01*
X-4211530Y-542406D02*
G01*
X-4208308Y-539184D01*
X-4207235Y-537037D01*
X-4207235Y-533816D01*
X-4208308Y-531669D01*
X-4211530Y-530594D01*
X-4222267Y-530594D01*
X-3451688Y-597595D02*
G01*
X-3474236Y-597595D01*
X-3459203Y-586858D02*
G01*
X-3469940Y-597595D01*
X-3465646Y-593301D02*
G01*
X-3474236Y-585785D01*
X-3459203Y-565814D02*
G01*
X-3474236Y-565814D01*
X-3462425Y-565814D02*
G01*
X-3460277Y-567961D01*
X-3459203Y-570108D01*
X-3459203Y-573330D01*
X-3460277Y-575477D01*
X-3462425Y-577624D01*
X-3465646Y-578697D01*
X-3467794Y-578697D01*
X-3471015Y-577624D01*
X-3473162Y-575477D01*
X-3474236Y-573330D01*
X-3474236Y-570108D01*
X-3473162Y-567961D01*
X-3471015Y-565814D01*
X-3451688Y-558726D02*
G01*
X-3452762Y-557653D01*
X-3451688Y-556579D01*
X-3450614Y-557653D01*
X-3451688Y-558726D01*
X-3459203Y-557653D02*
G01*
X-3474236Y-557653D01*
X-3451688Y-549492D02*
G01*
X-3474236Y-549492D01*
X-3451688Y-542406D02*
G01*
X-3474236Y-542406D01*
X-3463499Y-542406D02*
G01*
X-3460277Y-539184D01*
X-3459203Y-537037D01*
X-3459203Y-533816D01*
X-3460277Y-531669D01*
X-3463499Y-530594D01*
X-3474236Y-530594D01*
X-2703656Y-597595D02*
G01*
X-2726204Y-597595D01*
X-2711172Y-586858D02*
G01*
X-2721909Y-597595D01*
X-2717614Y-593301D02*
G01*
X-2726204Y-585785D01*
X-2711172Y-565814D02*
G01*
X-2726204Y-565814D01*
X-2714393Y-565814D02*
G01*
X-2712246Y-567961D01*
X-2711172Y-570108D01*
X-2711172Y-573330D01*
X-2712246Y-575477D01*
X-2714393Y-577624D01*
X-2717614Y-578697D01*
X-2719762Y-578697D01*
X-2722983Y-577624D01*
X-2725129Y-575477D01*
X-2726204Y-573330D01*
X-2726204Y-570108D01*
X-2725129Y-567961D01*
X-2722983Y-565814D01*
X-2703656Y-558726D02*
G01*
X-2704729Y-557653D01*
X-2703656Y-556579D01*
X-2702582Y-557653D01*
X-2703656Y-558726D01*
X-2711172Y-557653D02*
G01*
X-2726204Y-557653D01*
X-2703656Y-549492D02*
G01*
X-2726204Y-549492D01*
X-2703656Y-542406D02*
G01*
X-2726204Y-542406D01*
X-2715466Y-542406D02*
G01*
X-2712246Y-539184D01*
X-2711172Y-537037D01*
X-2711172Y-533816D01*
X-2712246Y-531669D01*
X-2715466Y-530594D01*
X-2726204Y-530594D01*
X-1955625Y-597595D02*
G01*
X-1978173Y-597595D01*
X-1963141Y-586858D02*
G01*
X-1973878Y-597595D01*
X-1969583Y-593301D02*
G01*
X-1978173Y-585785D01*
X-1963141Y-565814D02*
G01*
X-1978173Y-565814D01*
X-1966361Y-565814D02*
G01*
X-1964215Y-567961D01*
X-1963141Y-570108D01*
X-1963141Y-573330D01*
X-1964215Y-575477D01*
X-1966361Y-577624D01*
X-1969583Y-578697D01*
X-1971730Y-578697D01*
X-1974952Y-577624D01*
X-1977098Y-575477D01*
X-1978173Y-573330D01*
X-1978173Y-570108D01*
X-1977098Y-567961D01*
X-1974952Y-565814D01*
X-1955625Y-558726D02*
G01*
X-1956698Y-557653D01*
X-1955625Y-556579D01*
X-1954551Y-557653D01*
X-1955625Y-558726D01*
X-1963141Y-557653D02*
G01*
X-1978173Y-557653D01*
X-1955625Y-549492D02*
G01*
X-1978173Y-549492D01*
X-1955625Y-542406D02*
G01*
X-1978173Y-542406D01*
X-1967436Y-542406D02*
G01*
X-1964215Y-539184D01*
X-1963141Y-537037D01*
X-1963141Y-533816D01*
X-1964215Y-531669D01*
X-1967436Y-530594D01*
X-1978173Y-530594D01*
X-1207593Y-597595D02*
G01*
X-1230141Y-597595D01*
X-1215109Y-586858D02*
G01*
X-1225846Y-597595D01*
X-1221550Y-593301D02*
G01*
X-1230141Y-585785D01*
X-1215109Y-565814D02*
G01*
X-1230141Y-565814D01*
X-1218330Y-565814D02*
G01*
X-1216183Y-567961D01*
X-1215109Y-570108D01*
X-1215109Y-573330D01*
X-1216183Y-575477D01*
X-1218330Y-577624D01*
X-1221550Y-578697D01*
X-1223699Y-578697D01*
X-1226920Y-577624D01*
X-1229067Y-575477D01*
X-1230141Y-573330D01*
X-1230141Y-570108D01*
X-1229067Y-567961D01*
X-1226920Y-565814D01*
X-1207593Y-558726D02*
G01*
X-1208667Y-557653D01*
X-1207593Y-556579D01*
X-1206518Y-557653D01*
X-1207593Y-558726D01*
X-1215109Y-557653D02*
G01*
X-1230141Y-557653D01*
X-1207593Y-549492D02*
G01*
X-1230141Y-549492D01*
X-1207593Y-542406D02*
G01*
X-1230141Y-542406D01*
X-1219404Y-542406D02*
G01*
X-1216183Y-539184D01*
X-1215109Y-537037D01*
X-1215109Y-533816D01*
X-1216183Y-531669D01*
X-1219404Y-530594D01*
X-1230141Y-530594D01*
X1036500Y-597595D02*
G01*
X1013953Y-597595D01*
X1028984Y-586858D02*
G01*
X1018247Y-597595D01*
X1022542Y-593301D02*
G01*
X1013953Y-585785D01*
X1028984Y-565814D02*
G01*
X1013953Y-565814D01*
X1025763Y-565814D02*
G01*
X1027910Y-567961D01*
X1028984Y-570108D01*
X1028984Y-573330D01*
X1027910Y-575477D01*
X1025763Y-577624D01*
X1022542Y-578697D01*
X1020394Y-578697D01*
X1017173Y-577624D01*
X1015027Y-575477D01*
X1013953Y-573330D01*
X1013953Y-570108D01*
X1015027Y-567961D01*
X1017173Y-565814D01*
X1036500Y-558726D02*
G01*
X1035426Y-557653D01*
X1036500Y-556579D01*
X1037574Y-557653D01*
X1036500Y-558726D01*
X1028984Y-557653D02*
G01*
X1013953Y-557653D01*
X1036500Y-549492D02*
G01*
X1013953Y-549492D01*
X1036500Y-542406D02*
G01*
X1013953Y-542406D01*
X1024690Y-542406D02*
G01*
X1027910Y-539184D01*
X1028984Y-537037D01*
X1028984Y-533816D01*
X1027910Y-531669D01*
X1024690Y-530594D01*
X1013953Y-530594D01*
X1784533Y-597595D02*
G01*
X1761984Y-597595D01*
X1777016Y-586858D02*
G01*
X1766279Y-597595D01*
X1770574Y-593301D02*
G01*
X1761984Y-585785D01*
X1777016Y-565814D02*
G01*
X1761984Y-565814D01*
X1773795Y-565814D02*
G01*
X1775942Y-567961D01*
X1777016Y-570108D01*
X1777016Y-573330D01*
X1775942Y-575477D01*
X1773795Y-577624D01*
X1770574Y-578697D01*
X1768427Y-578697D01*
X1765205Y-577624D01*
X1763058Y-575477D01*
X1761984Y-573330D01*
X1761984Y-570108D01*
X1763058Y-567961D01*
X1765205Y-565814D01*
X1784533Y-558726D02*
G01*
X1783458Y-557653D01*
X1784533Y-556579D01*
X1785607Y-557653D01*
X1784533Y-558726D01*
X1777016Y-557653D02*
G01*
X1761984Y-557653D01*
X1784533Y-549492D02*
G01*
X1761984Y-549492D01*
X1784533Y-542406D02*
G01*
X1761984Y-542406D01*
X1772721Y-542406D02*
G01*
X1775942Y-539184D01*
X1777016Y-537037D01*
X1777016Y-533816D01*
X1775942Y-531669D01*
X1772721Y-530594D01*
X1761984Y-530594D01*
X2532563Y-597595D02*
G01*
X2510015Y-597595D01*
X2525047Y-586858D02*
G01*
X2514310Y-597595D01*
X2518606Y-593301D02*
G01*
X2510015Y-585785D01*
X2525047Y-565814D02*
G01*
X2510015Y-565814D01*
X2521826Y-565814D02*
G01*
X2523973Y-567961D01*
X2525047Y-570108D01*
X2525047Y-573330D01*
X2523973Y-575477D01*
X2521826Y-577624D01*
X2518606Y-578697D01*
X2516457Y-578697D01*
X2513236Y-577624D01*
X2511089Y-575477D01*
X2510015Y-573330D01*
X2510015Y-570108D01*
X2511089Y-567961D01*
X2513236Y-565814D01*
X2532563Y-558726D02*
G01*
X2531489Y-557653D01*
X2532563Y-556579D01*
X2533638Y-557653D01*
X2532563Y-558726D01*
X2525047Y-557653D02*
G01*
X2510015Y-557653D01*
X2532563Y-549492D02*
G01*
X2510015Y-549492D01*
X2532563Y-542406D02*
G01*
X2510015Y-542406D01*
X2520752Y-542406D02*
G01*
X2523973Y-539184D01*
X2525047Y-537037D01*
X2525047Y-533816D01*
X2523973Y-531669D01*
X2520752Y-530594D01*
X2510015Y-530594D01*
X3280595Y-597595D02*
G01*
X3258047Y-597595D01*
X3273080Y-586858D02*
G01*
X3262343Y-597595D01*
X3266637Y-593301D02*
G01*
X3258047Y-585785D01*
X3273080Y-565814D02*
G01*
X3258047Y-565814D01*
X3269858Y-565814D02*
G01*
X3272006Y-567961D01*
X3273080Y-570108D01*
X3273080Y-573330D01*
X3272006Y-575477D01*
X3269858Y-577624D01*
X3266637Y-578697D01*
X3264489Y-578697D01*
X3261268Y-577624D01*
X3259121Y-575477D01*
X3258047Y-573330D01*
X3258047Y-570108D01*
X3259121Y-567961D01*
X3261268Y-565814D01*
X3280595Y-558726D02*
G01*
X3279521Y-557653D01*
X3280595Y-556579D01*
X3281669Y-557653D01*
X3280595Y-558726D01*
X3273080Y-557653D02*
G01*
X3258047Y-557653D01*
X3280595Y-549492D02*
G01*
X3258047Y-549492D01*
X3280595Y-542406D02*
G01*
X3258047Y-542406D01*
X3268784Y-542406D02*
G01*
X3272006Y-539184D01*
X3273080Y-537037D01*
X3273080Y-533816D01*
X3272006Y-531669D01*
X3268784Y-530594D01*
X3258047Y-530594D01*
X4028626Y-597595D02*
G01*
X4006078Y-597595D01*
X4021111Y-586858D02*
G01*
X4010374Y-597595D01*
X4014668Y-593301D02*
G01*
X4006078Y-585785D01*
X4021111Y-565814D02*
G01*
X4006078Y-565814D01*
X4017889Y-565814D02*
G01*
X4020036Y-567961D01*
X4021111Y-570108D01*
X4021111Y-573330D01*
X4020036Y-575477D01*
X4017889Y-577624D01*
X4014668Y-578697D01*
X4012520Y-578697D01*
X4009299Y-577624D01*
X4007152Y-575477D01*
X4006078Y-573330D01*
X4006078Y-570108D01*
X4007152Y-567961D01*
X4009299Y-565814D01*
X4028626Y-558726D02*
G01*
X4027552Y-557653D01*
X4028626Y-556579D01*
X4029700Y-557653D01*
X4028626Y-558726D01*
X4021111Y-557653D02*
G01*
X4006078Y-557653D01*
X4028626Y-549492D02*
G01*
X4006078Y-549492D01*
X4028626Y-542406D02*
G01*
X4006078Y-542406D01*
X4016815Y-542406D02*
G01*
X4020036Y-539184D01*
X4021111Y-537037D01*
X4021111Y-533816D01*
X4020036Y-531669D01*
X4016815Y-530594D01*
X4006078Y-530594D01*
X-4199719Y-1345626D02*
G01*
X-4222267Y-1345626D01*
X-4207235Y-1334890D02*
G01*
X-4217972Y-1345626D01*
X-4213677Y-1341331D02*
G01*
X-4222267Y-1333816D01*
X-4207235Y-1313845D02*
G01*
X-4222267Y-1313845D01*
X-4210456Y-1313845D02*
G01*
X-4208308Y-1315992D01*
X-4207235Y-1318139D01*
X-4207235Y-1321361D01*
X-4208308Y-1323508D01*
X-4210456Y-1325655D01*
X-4213677Y-1326729D01*
X-4215825Y-1326729D01*
X-4219045Y-1325655D01*
X-4221193Y-1323508D01*
X-4222267Y-1321361D01*
X-4222267Y-1318139D01*
X-4221193Y-1315992D01*
X-4219045Y-1313845D01*
X-4199719Y-1306757D02*
G01*
X-4200793Y-1305684D01*
X-4199719Y-1304610D01*
X-4198645Y-1305684D01*
X-4199719Y-1306757D01*
X-4207235Y-1305684D02*
G01*
X-4222267Y-1305684D01*
X-4199719Y-1297523D02*
G01*
X-4222267Y-1297523D01*
X-4199719Y-1290437D02*
G01*
X-4222267Y-1290437D01*
X-4211530Y-1290437D02*
G01*
X-4208308Y-1287215D01*
X-4207235Y-1285068D01*
X-4207235Y-1281846D01*
X-4208308Y-1279699D01*
X-4211530Y-1278625D01*
X-4222267Y-1278625D01*
X-3451688Y-1345626D02*
G01*
X-3474236Y-1345626D01*
X-3459203Y-1334890D02*
G01*
X-3469940Y-1345626D01*
X-3465646Y-1341331D02*
G01*
X-3474236Y-1333816D01*
X-3459203Y-1313845D02*
G01*
X-3474236Y-1313845D01*
X-3462425Y-1313845D02*
G01*
X-3460277Y-1315992D01*
X-3459203Y-1318139D01*
X-3459203Y-1321361D01*
X-3460277Y-1323508D01*
X-3462425Y-1325655D01*
X-3465646Y-1326729D01*
X-3467794Y-1326729D01*
X-3471015Y-1325655D01*
X-3473162Y-1323508D01*
X-3474236Y-1321361D01*
X-3474236Y-1318139D01*
X-3473162Y-1315992D01*
X-3471015Y-1313845D01*
X-3451688Y-1306757D02*
G01*
X-3452762Y-1305684D01*
X-3451688Y-1304610D01*
X-3450614Y-1305684D01*
X-3451688Y-1306757D01*
X-3459203Y-1305684D02*
G01*
X-3474236Y-1305684D01*
X-3451688Y-1297523D02*
G01*
X-3474236Y-1297523D01*
X-3451688Y-1290437D02*
G01*
X-3474236Y-1290437D01*
X-3463499Y-1290437D02*
G01*
X-3460277Y-1287215D01*
X-3459203Y-1285068D01*
X-3459203Y-1281846D01*
X-3460277Y-1279699D01*
X-3463499Y-1278625D01*
X-3474236Y-1278625D01*
X-2703656Y-1345626D02*
G01*
X-2726204Y-1345626D01*
X-2711172Y-1334890D02*
G01*
X-2721909Y-1345626D01*
X-2717614Y-1341331D02*
G01*
X-2726204Y-1333816D01*
X-2711172Y-1313845D02*
G01*
X-2726204Y-1313845D01*
X-2714393Y-1313845D02*
G01*
X-2712246Y-1315992D01*
X-2711172Y-1318139D01*
X-2711172Y-1321361D01*
X-2712246Y-1323508D01*
X-2714393Y-1325655D01*
X-2717614Y-1326729D01*
X-2719762Y-1326729D01*
X-2722983Y-1325655D01*
X-2725129Y-1323508D01*
X-2726204Y-1321361D01*
X-2726204Y-1318139D01*
X-2725129Y-1315992D01*
X-2722983Y-1313845D01*
X-2703656Y-1306757D02*
G01*
X-2704729Y-1305684D01*
X-2703656Y-1304610D01*
X-2702582Y-1305684D01*
X-2703656Y-1306757D01*
X-2711172Y-1305684D02*
G01*
X-2726204Y-1305684D01*
X-2703656Y-1297523D02*
G01*
X-2726204Y-1297523D01*
X-2703656Y-1290437D02*
G01*
X-2726204Y-1290437D01*
X-2715466Y-1290437D02*
G01*
X-2712246Y-1287215D01*
X-2711172Y-1285068D01*
X-2711172Y-1281846D01*
X-2712246Y-1279699D01*
X-2715466Y-1278625D01*
X-2726204Y-1278625D01*
X-1955625Y-1345626D02*
G01*
X-1978173Y-1345626D01*
X-1963141Y-1334890D02*
G01*
X-1973878Y-1345626D01*
X-1969583Y-1341331D02*
G01*
X-1978173Y-1333816D01*
X-1963141Y-1313845D02*
G01*
X-1978173Y-1313845D01*
X-1966361Y-1313845D02*
G01*
X-1964215Y-1315992D01*
X-1963141Y-1318139D01*
X-1963141Y-1321361D01*
X-1964215Y-1323508D01*
X-1966361Y-1325655D01*
X-1969583Y-1326729D01*
X-1971730Y-1326729D01*
X-1974952Y-1325655D01*
X-1977098Y-1323508D01*
X-1978173Y-1321361D01*
X-1978173Y-1318139D01*
X-1977098Y-1315992D01*
X-1974952Y-1313845D01*
X-1955625Y-1306757D02*
G01*
X-1956698Y-1305684D01*
X-1955625Y-1304610D01*
X-1954551Y-1305684D01*
X-1955625Y-1306757D01*
X-1963141Y-1305684D02*
G01*
X-1978173Y-1305684D01*
X-1955625Y-1297523D02*
G01*
X-1978173Y-1297523D01*
X-1955625Y-1290437D02*
G01*
X-1978173Y-1290437D01*
X-1967436Y-1290437D02*
G01*
X-1964215Y-1287215D01*
X-1963141Y-1285068D01*
X-1963141Y-1281846D01*
X-1964215Y-1279699D01*
X-1967436Y-1278625D01*
X-1978173Y-1278625D01*
X-1207593Y-1345626D02*
G01*
X-1230141Y-1345626D01*
X-1215109Y-1334890D02*
G01*
X-1225846Y-1345626D01*
X-1221550Y-1341331D02*
G01*
X-1230141Y-1333816D01*
X-1215109Y-1313845D02*
G01*
X-1230141Y-1313845D01*
X-1218330Y-1313845D02*
G01*
X-1216183Y-1315992D01*
X-1215109Y-1318139D01*
X-1215109Y-1321361D01*
X-1216183Y-1323508D01*
X-1218330Y-1325655D01*
X-1221550Y-1326729D01*
X-1223699Y-1326729D01*
X-1226920Y-1325655D01*
X-1229067Y-1323508D01*
X-1230141Y-1321361D01*
X-1230141Y-1318139D01*
X-1229067Y-1315992D01*
X-1226920Y-1313845D01*
X-1207593Y-1306757D02*
G01*
X-1208667Y-1305684D01*
X-1207593Y-1304610D01*
X-1206518Y-1305684D01*
X-1207593Y-1306757D01*
X-1215109Y-1305684D02*
G01*
X-1230141Y-1305684D01*
X-1207593Y-1297523D02*
G01*
X-1230141Y-1297523D01*
X-1207593Y-1290437D02*
G01*
X-1230141Y-1290437D01*
X-1219404Y-1290437D02*
G01*
X-1216183Y-1287215D01*
X-1215109Y-1285068D01*
X-1215109Y-1281846D01*
X-1216183Y-1279699D01*
X-1219404Y-1278625D01*
X-1230141Y-1278625D01*
X-459562Y-1345626D02*
G01*
X-482110Y-1345626D01*
X-467078Y-1334890D02*
G01*
X-477815Y-1345626D01*
X-473519Y-1341331D02*
G01*
X-482110Y-1333816D01*
X-467078Y-1313845D02*
G01*
X-482110Y-1313845D01*
X-470299Y-1313845D02*
G01*
X-468152Y-1315992D01*
X-467078Y-1318139D01*
X-467078Y-1321361D01*
X-468152Y-1323508D01*
X-470299Y-1325655D01*
X-473519Y-1326729D01*
X-475668Y-1326729D01*
X-478888Y-1325655D01*
X-481036Y-1323508D01*
X-482110Y-1321361D01*
X-482110Y-1318139D01*
X-481036Y-1315992D01*
X-478888Y-1313845D01*
X-459562Y-1306757D02*
G01*
X-460636Y-1305684D01*
X-459562Y-1304610D01*
X-458488Y-1305684D01*
X-459562Y-1306757D01*
X-467078Y-1305684D02*
G01*
X-482110Y-1305684D01*
X-459562Y-1297523D02*
G01*
X-482110Y-1297523D01*
X-459562Y-1290437D02*
G01*
X-482110Y-1290437D01*
X-471373Y-1290437D02*
G01*
X-468152Y-1287215D01*
X-467078Y-1285068D01*
X-467078Y-1281846D01*
X-468152Y-1279699D01*
X-471373Y-1278625D01*
X-482110Y-1278625D01*
X288469Y-1345626D02*
G01*
X265922Y-1345626D01*
X280954Y-1334890D02*
G01*
X270216Y-1345626D01*
X274511Y-1341331D02*
G01*
X265922Y-1333816D01*
X280954Y-1313845D02*
G01*
X265922Y-1313845D01*
X277732Y-1313845D02*
G01*
X279879Y-1315992D01*
X280954Y-1318139D01*
X280954Y-1321361D01*
X279879Y-1323508D01*
X277732Y-1325655D01*
X274511Y-1326729D01*
X272363Y-1326729D01*
X269142Y-1325655D01*
X266995Y-1323508D01*
X265922Y-1321361D01*
X265922Y-1318139D01*
X266995Y-1315992D01*
X269142Y-1313845D01*
X288469Y-1306757D02*
G01*
X287395Y-1305684D01*
X288469Y-1304610D01*
X289543Y-1305684D01*
X288469Y-1306757D01*
X280954Y-1305684D02*
G01*
X265922Y-1305684D01*
X288469Y-1297523D02*
G01*
X265922Y-1297523D01*
X288469Y-1290437D02*
G01*
X265922Y-1290437D01*
X276658Y-1290437D02*
G01*
X279879Y-1287215D01*
X280954Y-1285068D01*
X280954Y-1281846D01*
X279879Y-1279699D01*
X276658Y-1278625D01*
X265922Y-1278625D01*
X1036500Y-1345626D02*
G01*
X1013953Y-1345626D01*
X1028984Y-1334890D02*
G01*
X1018247Y-1345626D01*
X1022542Y-1341331D02*
G01*
X1013953Y-1333816D01*
X1028984Y-1313845D02*
G01*
X1013953Y-1313845D01*
X1025763Y-1313845D02*
G01*
X1027910Y-1315992D01*
X1028984Y-1318139D01*
X1028984Y-1321361D01*
X1027910Y-1323508D01*
X1025763Y-1325655D01*
X1022542Y-1326729D01*
X1020394Y-1326729D01*
X1017173Y-1325655D01*
X1015027Y-1323508D01*
X1013953Y-1321361D01*
X1013953Y-1318139D01*
X1015027Y-1315992D01*
X1017173Y-1313845D01*
X1036500Y-1306757D02*
G01*
X1035426Y-1305684D01*
X1036500Y-1304610D01*
X1037574Y-1305684D01*
X1036500Y-1306757D01*
X1028984Y-1305684D02*
G01*
X1013953Y-1305684D01*
X1036500Y-1297523D02*
G01*
X1013953Y-1297523D01*
X1036500Y-1290437D02*
G01*
X1013953Y-1290437D01*
X1024690Y-1290437D02*
G01*
X1027910Y-1287215D01*
X1028984Y-1285068D01*
X1028984Y-1281846D01*
X1027910Y-1279699D01*
X1024690Y-1278625D01*
X1013953Y-1278625D01*
X1784533Y-1345626D02*
G01*
X1761984Y-1345626D01*
X1777016Y-1334890D02*
G01*
X1766279Y-1345626D01*
X1770574Y-1341331D02*
G01*
X1761984Y-1333816D01*
X1777016Y-1313845D02*
G01*
X1761984Y-1313845D01*
X1773795Y-1313845D02*
G01*
X1775942Y-1315992D01*
X1777016Y-1318139D01*
X1777016Y-1321361D01*
X1775942Y-1323508D01*
X1773795Y-1325655D01*
X1770574Y-1326729D01*
X1768427Y-1326729D01*
X1765205Y-1325655D01*
X1763058Y-1323508D01*
X1761984Y-1321361D01*
X1761984Y-1318139D01*
X1763058Y-1315992D01*
X1765205Y-1313845D01*
X1784533Y-1306757D02*
G01*
X1783458Y-1305684D01*
X1784533Y-1304610D01*
X1785607Y-1305684D01*
X1784533Y-1306757D01*
X1777016Y-1305684D02*
G01*
X1761984Y-1305684D01*
X1784533Y-1297523D02*
G01*
X1761984Y-1297523D01*
X1784533Y-1290437D02*
G01*
X1761984Y-1290437D01*
X1772721Y-1290437D02*
G01*
X1775942Y-1287215D01*
X1777016Y-1285068D01*
X1777016Y-1281846D01*
X1775942Y-1279699D01*
X1772721Y-1278625D01*
X1761984Y-1278625D01*
X2532563Y-1345626D02*
G01*
X2510015Y-1345626D01*
X2525047Y-1334890D02*
G01*
X2514310Y-1345626D01*
X2518606Y-1341331D02*
G01*
X2510015Y-1333816D01*
X2525047Y-1313845D02*
G01*
X2510015Y-1313845D01*
X2521826Y-1313845D02*
G01*
X2523973Y-1315992D01*
X2525047Y-1318139D01*
X2525047Y-1321361D01*
X2523973Y-1323508D01*
X2521826Y-1325655D01*
X2518606Y-1326729D01*
X2516457Y-1326729D01*
X2513236Y-1325655D01*
X2511089Y-1323508D01*
X2510015Y-1321361D01*
X2510015Y-1318139D01*
X2511089Y-1315992D01*
X2513236Y-1313845D01*
X2532563Y-1306757D02*
G01*
X2531489Y-1305684D01*
X2532563Y-1304610D01*
X2533638Y-1305684D01*
X2532563Y-1306757D01*
X2525047Y-1305684D02*
G01*
X2510015Y-1305684D01*
X2532563Y-1297523D02*
G01*
X2510015Y-1297523D01*
X2532563Y-1290437D02*
G01*
X2510015Y-1290437D01*
X2520752Y-1290437D02*
G01*
X2523973Y-1287215D01*
X2525047Y-1285068D01*
X2525047Y-1281846D01*
X2523973Y-1279699D01*
X2520752Y-1278625D01*
X2510015Y-1278625D01*
X3280595Y-1345626D02*
G01*
X3258047Y-1345626D01*
X3273080Y-1334890D02*
G01*
X3262343Y-1345626D01*
X3266637Y-1341331D02*
G01*
X3258047Y-1333816D01*
X3273080Y-1313845D02*
G01*
X3258047Y-1313845D01*
X3269858Y-1313845D02*
G01*
X3272006Y-1315992D01*
X3273080Y-1318139D01*
X3273080Y-1321361D01*
X3272006Y-1323508D01*
X3269858Y-1325655D01*
X3266637Y-1326729D01*
X3264489Y-1326729D01*
X3261268Y-1325655D01*
X3259121Y-1323508D01*
X3258047Y-1321361D01*
X3258047Y-1318139D01*
X3259121Y-1315992D01*
X3261268Y-1313845D01*
X3280595Y-1306757D02*
G01*
X3279521Y-1305684D01*
X3280595Y-1304610D01*
X3281669Y-1305684D01*
X3280595Y-1306757D01*
X3273080Y-1305684D02*
G01*
X3258047Y-1305684D01*
X3280595Y-1297523D02*
G01*
X3258047Y-1297523D01*
X3280595Y-1290437D02*
G01*
X3258047Y-1290437D01*
X3268784Y-1290437D02*
G01*
X3272006Y-1287215D01*
X3273080Y-1285068D01*
X3273080Y-1281846D01*
X3272006Y-1279699D01*
X3268784Y-1278625D01*
X3258047Y-1278625D01*
X4028626Y-1345626D02*
G01*
X4006078Y-1345626D01*
X4021111Y-1334890D02*
G01*
X4010374Y-1345626D01*
X4014668Y-1341331D02*
G01*
X4006078Y-1333816D01*
X4021111Y-1313845D02*
G01*
X4006078Y-1313845D01*
X4017889Y-1313845D02*
G01*
X4020036Y-1315992D01*
X4021111Y-1318139D01*
X4021111Y-1321361D01*
X4020036Y-1323508D01*
X4017889Y-1325655D01*
X4014668Y-1326729D01*
X4012520Y-1326729D01*
X4009299Y-1325655D01*
X4007152Y-1323508D01*
X4006078Y-1321361D01*
X4006078Y-1318139D01*
X4007152Y-1315992D01*
X4009299Y-1313845D01*
X4028626Y-1306757D02*
G01*
X4027552Y-1305684D01*
X4028626Y-1304610D01*
X4029700Y-1305684D01*
X4028626Y-1306757D01*
X4021111Y-1305684D02*
G01*
X4006078Y-1305684D01*
X4028626Y-1297523D02*
G01*
X4006078Y-1297523D01*
X4028626Y-1290437D02*
G01*
X4006078Y-1290437D01*
X4016815Y-1290437D02*
G01*
X4020036Y-1287215D01*
X4021111Y-1285068D01*
X4021111Y-1281846D01*
X4020036Y-1279699D01*
X4016815Y-1278625D01*
X4006078Y-1278625D01*
D10*
X-1161067Y-226377D02*
G01*
X-1209999Y-226377D01*
X-1209999Y-125000D01*
X-990550Y-226377D02*
G01*
X-1024756Y-226377D01*
X-990550Y-226377D02*
G01*
X-990550Y226377D01*
X-1161067Y226377D02*
G01*
X-1209999Y226377D01*
X-990550Y226377D02*
G01*
X-1024756Y226377D01*
X-1209999Y117368D02*
G01*
X-1209999Y225394D01*
X-1209999Y68155D02*
G01*
X-1209999Y79481D01*
X-1209999Y18942D02*
G01*
X-1209999Y30268D01*
X-1209999Y-30270D02*
G01*
X-1209999Y-18942D01*
X-1209999Y-79481D02*
G01*
X-1209999Y-68155D01*
X-1209999Y-128694D02*
G01*
X-1209999Y-117368D01*
D36*
X-1385740Y191500D02*
G01*
X-1429050Y191500D01*
X-1429050Y128499D01*
X-1385740Y128499D01*
X-1354250Y191500D02*
G01*
X-1310940Y191500D01*
X-1310940Y152130D01*
X-1310940Y128499D01*
X-1354250Y128499D01*
X-1385740Y116500D02*
G01*
X-1429050Y116500D01*
X-1429050Y53499D01*
X-1385740Y53499D01*
X-1354250Y116500D02*
G01*
X-1310940Y116500D01*
X-1310940Y77130D01*
X-1310940Y53499D01*
X-1354250Y53499D01*
D37*
X-1392400Y-46300D02*
G01*
X-1392400Y-13699D01*
X-1347600Y-14800D02*
G01*
X-1347600Y-46300D01*
X-1337500Y-13699D02*
G01*
X-1402500Y-13699D01*
X-1402500Y-13699D02*
G01*
X-1402500Y-46300D01*
X-1402500Y-46300D02*
G01*
X-1337500Y-46300D01*
X-1337500Y-46300D02*
G01*
X-1337500Y-13699D01*
X-1347600Y41300D02*
G01*
X-1347600Y8699D01*
X-1392400Y9800D02*
G01*
X-1392400Y41300D01*
X-1402500Y8699D02*
G01*
X-1337500Y8699D01*
X-1337500Y8699D02*
G01*
X-1337500Y41300D01*
X-1337500Y41300D02*
G01*
X-1402500Y41300D01*
X-1402500Y41300D02*
G01*
X-1402500Y8699D01*
D36*
X-1385740Y-58499D02*
G01*
X-1429050Y-58499D01*
X-1429050Y-121500D01*
X-1385740Y-121500D01*
X-1354250Y-58499D02*
G01*
X-1310940Y-58499D01*
X-1310940Y-97869D01*
X-1310940Y-121500D01*
X-1354250Y-121500D01*
D37*
X-1347600Y-133699D02*
G01*
X-1347600Y-166300D01*
X-1392400Y-165199D02*
G01*
X-1392400Y-133699D01*
X-1402500Y-166300D02*
G01*
X-1337500Y-166300D01*
X-1337500Y-166300D02*
G01*
X-1337500Y-133699D01*
X-1337500Y-133699D02*
G01*
X-1402500Y-133699D01*
X-1402500Y-133699D02*
G01*
X-1402500Y-166300D01*
D36*
X-8500Y-1024259D02*
G01*
X-8500Y-980949D01*
X-71500Y-980949D01*
X-71500Y-1024259D01*
X-8500Y-1055749D02*
G01*
X-8500Y-1099059D01*
X-47870Y-1099059D01*
X-71500Y-1099059D01*
X-71500Y-1055749D01*
X71499Y-1024259D02*
G01*
X71499Y-980949D01*
X8499Y-980949D01*
X8499Y-1024259D01*
X71499Y-1055749D02*
G01*
X71499Y-1099059D01*
X32129Y-1099059D01*
X8499Y-1099059D01*
X8499Y-1055749D01*
X-808500Y-494259D02*
G01*
X-808500Y-450949D01*
X-871500Y-450949D01*
X-871500Y-494259D01*
X-808500Y-525749D02*
G01*
X-808500Y-569059D01*
X-847870Y-569059D01*
X-871500Y-569059D01*
X-871500Y-525749D01*
X-733500Y-494259D02*
G01*
X-733500Y-450949D01*
X-796500Y-450949D01*
X-796500Y-494259D01*
X-733500Y-525749D02*
G01*
X-733500Y-569059D01*
X-772870Y-569059D01*
X-796500Y-569059D01*
X-796500Y-525749D01*
X408452Y384243D02*
G01*
X408452Y340934D01*
X471453Y340934D01*
X471453Y384243D01*
X408452Y415734D02*
G01*
X408452Y459043D01*
X447822Y459043D01*
X471453Y459043D01*
X471453Y415734D01*
D37*
X-351300Y507400D02*
G01*
X-318699Y507400D01*
X-319800Y462600D02*
G01*
X-351300Y462600D01*
X-318699Y452500D02*
G01*
X-318699Y517500D01*
X-318699Y517500D02*
G01*
X-351300Y517500D01*
X-351300Y517500D02*
G01*
X-351300Y452500D01*
X-351300Y452500D02*
G01*
X-318699Y452500D01*
X283699Y422400D02*
G01*
X316300Y422400D01*
X315199Y377600D02*
G01*
X283699Y377600D01*
X316300Y367500D02*
G01*
X316300Y432500D01*
X316300Y432500D02*
G01*
X283699Y432500D01*
X283699Y432500D02*
G01*
X283699Y367500D01*
X283699Y367500D02*
G01*
X316300Y367500D01*
X-263699Y462600D02*
G01*
X-296300Y462600D01*
X-295200Y507400D02*
G01*
X-263699Y507400D01*
X-296300Y517500D02*
G01*
X-296300Y452500D01*
X-296300Y452500D02*
G01*
X-263699Y452500D01*
X-263699Y452500D02*
G01*
X-263699Y517500D01*
X-263699Y517500D02*
G01*
X-296300Y517500D01*
D10*
X1355738Y254724D02*
G01*
X1324241Y254724D01*
X1367937Y211033D02*
G01*
X1367937Y242528D01*
X1312046Y211033D02*
G01*
X1312046Y242528D01*
X1368166Y188360D02*
G01*
X1368166Y156865D01*
X1355968Y144666D02*
G01*
X1324474Y144666D01*
X1312276Y188360D02*
G01*
X1312276Y156865D01*
X1324260Y275D02*
G01*
X1355757Y275D01*
X1312061Y43966D02*
G01*
X1312061Y12471D01*
X1367953Y43966D02*
G01*
X1367953Y12471D01*
X1311832Y66639D02*
G01*
X1311832Y98135D01*
X1324030Y110333D02*
G01*
X1355525Y110333D01*
X1367722Y66639D02*
G01*
X1367722Y98135D01*
D36*
X905511Y-247766D02*
G01*
X1153278Y0D01*
X905511Y247766D01*
X657745Y0D01*
X905511Y-247766D01*
D10*
X49090Y451392D02*
G01*
X49090Y500605D01*
X117988Y500605D01*
X117988Y451392D01*
X-118110Y451476D02*
G01*
X-118110Y500689D01*
X-49212Y500689D01*
X-49212Y451476D01*
X170077Y744783D02*
G01*
X-170078Y744783D01*
X-170078Y744783D02*
G01*
X-170078Y451476D01*
X170077Y451476D02*
G01*
X170077Y744783D01*
X-170078Y451476D02*
G01*
X170077Y451476D01*
X1545000Y60000D02*
G01*
X1545000Y200000D01*
X1536187Y200000D01*
X1470742Y200000D02*
G01*
X1469255Y200000D01*
X1403811Y200000D02*
G01*
X1395000Y200000D01*
X1395000Y60000D01*
X1403813Y60000D01*
X1469257Y60000D02*
G01*
X1470742Y60000D01*
X1536187Y60000D02*
G01*
X1545000Y60000D01*
D37*
X558699Y422400D02*
G01*
X591300Y422400D01*
X590199Y377600D02*
G01*
X558699Y377600D01*
X591300Y367500D02*
G01*
X591300Y432500D01*
X591300Y432500D02*
G01*
X558699Y432500D01*
X558699Y432500D02*
G01*
X558699Y367500D01*
X558699Y367500D02*
G01*
X591300Y367500D01*
X498699Y422400D02*
G01*
X531300Y422400D01*
X530199Y377600D02*
G01*
X498699Y377600D01*
X531300Y367500D02*
G01*
X531300Y432500D01*
X531300Y432500D02*
G01*
X498699Y432500D01*
X498699Y432500D02*
G01*
X498699Y367500D01*
X498699Y367500D02*
G01*
X531300Y367500D01*
D36*
X333499Y384259D02*
G01*
X333499Y340950D01*
X396499Y340950D01*
X396499Y384259D01*
X333499Y415749D02*
G01*
X333499Y459059D01*
X372869Y459059D01*
X396499Y459059D01*
X396499Y415749D01*
X623499Y384259D02*
G01*
X623499Y340950D01*
X686499Y340950D01*
X686499Y384259D01*
X623499Y415749D02*
G01*
X623499Y459059D01*
X662869Y459059D01*
X686499Y459059D01*
X686499Y415749D01*
X596499Y-214259D02*
G01*
X596499Y-170949D01*
X533499Y-170949D01*
X533499Y-214259D01*
X596499Y-245749D02*
G01*
X596499Y-289059D01*
X557129Y-289059D01*
X533499Y-289059D01*
X533499Y-245749D01*
D37*
X803699Y-357599D02*
G01*
X836300Y-357599D01*
X835199Y-402399D02*
G01*
X803699Y-402399D01*
X836300Y-412500D02*
G01*
X836300Y-347500D01*
X836300Y-347500D02*
G01*
X803699Y-347500D01*
X803699Y-347500D02*
G01*
X803699Y-412500D01*
X803699Y-412500D02*
G01*
X836300Y-412500D01*
D36*
X791499Y-364259D02*
G01*
X791499Y-320949D01*
X728499Y-320949D01*
X728499Y-364259D01*
X791499Y-395749D02*
G01*
X791499Y-439059D01*
X752129Y-439059D01*
X728499Y-439059D01*
X728499Y-395749D01*
X698499Y384259D02*
G01*
X698499Y340950D01*
X761499Y340950D01*
X761499Y384259D01*
X698499Y415749D02*
G01*
X698499Y459059D01*
X737869Y459059D01*
X761499Y459059D01*
X761499Y415749D01*
D10*
X-502017Y59039D02*
G01*
X-265797Y295259D01*
X-2154Y295259D01*
X501922Y59039D02*
G01*
X265702Y295259D01*
X-2154Y295259D01*
X-305167Y-452771D02*
G01*
X-305167Y-295290D01*
X216489Y-374031D02*
G01*
X-216583Y-374031D01*
X-502017Y-452771D02*
G01*
X-305167Y-452771D01*
X501922Y-452771D02*
G01*
X305072Y-452771D01*
X-502017Y59039D02*
G01*
X-502017Y-452771D01*
X501922Y59039D02*
G01*
X501922Y-452771D01*
X305072Y-295290D02*
G01*
X305072Y-452771D01*
X-216583Y-374031D02*
G01*
X-216583Y-295016D01*
X-305047Y-295016D01*
X216489Y-374031D02*
G01*
X216489Y-295016D01*
X305072Y-295016D01*
X-3831572Y572615D02*
G01*
X-3877973Y619016D01*
X-3968173Y619016D01*
X-3831570Y467195D02*
G01*
X-3871170Y427595D01*
X-3971570Y427595D01*
X-4011170Y467195D01*
X-4011570Y467195D01*
X-3916334Y703816D02*
G01*
X-3916334Y654216D01*
X-3836013Y652015D02*
G01*
X-3916333Y652015D01*
X-3896174Y654216D02*
G01*
X-3896174Y703816D01*
X-4199564Y552968D02*
G01*
X-4199564Y658569D01*
X-4160963Y514367D02*
G01*
X-4058741Y514367D01*
X-4160735Y697395D02*
G01*
X-4160691Y697438D01*
X-4054678Y697438D01*
X-3831570Y572595D02*
G01*
X-3831570Y467195D01*
X-3836174Y654016D02*
G01*
X-3836174Y703816D01*
X-3916334Y707015D02*
G01*
X-3836013Y707015D01*
X-3083542Y572615D02*
G01*
X-3129942Y619016D01*
X-3220142Y619016D01*
X-3083539Y467195D02*
G01*
X-3123139Y427595D01*
X-3223539Y427595D01*
X-3263139Y467195D01*
X-3263539Y467195D01*
X-3168303Y703816D02*
G01*
X-3168303Y654216D01*
X-3087982Y652015D02*
G01*
X-3168302Y652015D01*
X-3148143Y654216D02*
G01*
X-3148143Y703816D01*
X-3451532Y552968D02*
G01*
X-3451532Y658569D01*
X-3412932Y514367D02*
G01*
X-3310709Y514367D01*
X-3412704Y697395D02*
G01*
X-3412660Y697438D01*
X-3306647Y697438D01*
X-3083539Y572595D02*
G01*
X-3083539Y467195D01*
X-3088143Y654016D02*
G01*
X-3088143Y703816D01*
X-3168303Y707015D02*
G01*
X-3087982Y707015D01*
X-2335510Y572615D02*
G01*
X-2381910Y619016D01*
X-2472110Y619016D01*
X-2335507Y467195D02*
G01*
X-2375106Y427595D01*
X-2475507Y427595D01*
X-2515106Y467195D01*
X-2515507Y467195D01*
X-2420272Y703816D02*
G01*
X-2420272Y654216D01*
X-2339949Y652015D02*
G01*
X-2420270Y652015D01*
X-2400111Y654216D02*
G01*
X-2400111Y703816D01*
X-2703501Y552968D02*
G01*
X-2703501Y658569D01*
X-2664900Y514367D02*
G01*
X-2562678Y514367D01*
X-2664672Y697395D02*
G01*
X-2664629Y697438D01*
X-2558615Y697438D01*
X-2335507Y572595D02*
G01*
X-2335507Y467195D01*
X-2340111Y654016D02*
G01*
X-2340111Y703816D01*
X-2420272Y707015D02*
G01*
X-2339949Y707015D01*
X-1587479Y572615D02*
G01*
X-1633879Y619016D01*
X-1724079Y619016D01*
X-1587476Y467195D02*
G01*
X-1627076Y427595D01*
X-1727476Y427595D01*
X-1767076Y467195D01*
X-1767476Y467195D01*
X-1672241Y703816D02*
G01*
X-1672241Y654216D01*
X-1591919Y652015D02*
G01*
X-1672238Y652015D01*
X-1652080Y654216D02*
G01*
X-1652080Y703816D01*
X-1955470Y552968D02*
G01*
X-1955470Y658569D01*
X-1916869Y514367D02*
G01*
X-1814647Y514367D01*
X-1916640Y697395D02*
G01*
X-1916598Y697438D01*
X-1810583Y697438D01*
X-1587476Y572595D02*
G01*
X-1587476Y467195D01*
X-1592080Y654016D02*
G01*
X-1592080Y703816D01*
X-1672241Y707015D02*
G01*
X-1591919Y707015D01*
X-839447Y572615D02*
G01*
X-885847Y619016D01*
X-976046Y619016D01*
X-839444Y467195D02*
G01*
X-879044Y427595D01*
X-979444Y427595D01*
X-1019044Y467195D01*
X-1019444Y467195D01*
X-924209Y703816D02*
G01*
X-924209Y654216D01*
X-843887Y652015D02*
G01*
X-924207Y652015D01*
X-904048Y654216D02*
G01*
X-904048Y703816D01*
X-1207438Y552968D02*
G01*
X-1207438Y658569D01*
X-1168837Y514367D02*
G01*
X-1066615Y514367D01*
X-1168609Y697395D02*
G01*
X-1168566Y697438D01*
X-1062552Y697438D01*
X-839444Y572595D02*
G01*
X-839444Y467195D01*
X-844048Y654016D02*
G01*
X-844048Y703816D01*
X-924209Y707015D02*
G01*
X-843887Y707015D01*
X1404646Y572615D02*
G01*
X1358247Y619016D01*
X1268046Y619016D01*
X1404650Y467195D02*
G01*
X1365050Y427595D01*
X1264650Y427595D01*
X1225050Y467195D01*
X1224650Y467195D01*
X1319884Y703816D02*
G01*
X1319884Y654216D01*
X1400207Y652015D02*
G01*
X1319886Y652015D01*
X1340045Y654216D02*
G01*
X1340045Y703816D01*
X1036655Y552968D02*
G01*
X1036655Y658569D01*
X1075257Y514367D02*
G01*
X1177478Y514367D01*
X1075484Y697395D02*
G01*
X1075527Y697438D01*
X1181541Y697438D01*
X1404650Y572595D02*
G01*
X1404650Y467195D01*
X1400045Y654016D02*
G01*
X1400045Y703816D01*
X1319884Y707015D02*
G01*
X1400207Y707015D01*
X2152678Y572615D02*
G01*
X2106278Y619016D01*
X2016078Y619016D01*
X2152681Y467195D02*
G01*
X2113081Y427595D01*
X2012681Y427595D01*
X1973081Y467195D01*
X1972681Y467195D01*
X2067916Y703816D02*
G01*
X2067916Y654216D01*
X2148238Y652015D02*
G01*
X2067919Y652015D01*
X2088077Y654216D02*
G01*
X2088077Y703816D01*
X1784687Y552968D02*
G01*
X1784687Y658569D01*
X1823288Y514367D02*
G01*
X1925510Y514367D01*
X1823517Y697395D02*
G01*
X1823559Y697438D01*
X1929573Y697438D01*
X2152681Y572595D02*
G01*
X2152681Y467195D01*
X2148077Y654016D02*
G01*
X2148077Y703816D01*
X2067916Y707015D02*
G01*
X2148238Y707015D01*
X2900709Y572615D02*
G01*
X2854309Y619016D01*
X2764110Y619016D01*
X2900712Y467195D02*
G01*
X2861112Y427595D01*
X2760712Y427595D01*
X2721112Y467195D01*
X2720712Y467195D01*
X2815947Y703816D02*
G01*
X2815947Y654216D01*
X2896269Y652015D02*
G01*
X2815949Y652015D01*
X2836108Y654216D02*
G01*
X2836108Y703816D01*
X2532718Y552968D02*
G01*
X2532718Y658569D01*
X2571319Y514367D02*
G01*
X2673541Y514367D01*
X2571547Y697395D02*
G01*
X2571590Y697438D01*
X2677604Y697438D01*
X2900712Y572595D02*
G01*
X2900712Y467195D01*
X2896108Y654016D02*
G01*
X2896108Y703816D01*
X2815947Y707015D02*
G01*
X2896269Y707015D01*
X3648741Y572615D02*
G01*
X3602341Y619016D01*
X3512141Y619016D01*
X3648744Y467195D02*
G01*
X3609144Y427595D01*
X3508744Y427595D01*
X3469144Y467195D01*
X3468744Y467195D01*
X3563980Y703816D02*
G01*
X3563980Y654216D01*
X3644301Y652015D02*
G01*
X3563981Y652015D01*
X3584140Y654216D02*
G01*
X3584140Y703816D01*
X3280751Y552968D02*
G01*
X3280751Y658569D01*
X3319351Y514367D02*
G01*
X3421574Y514367D01*
X3319579Y697395D02*
G01*
X3319623Y697438D01*
X3425636Y697438D01*
X3648744Y572595D02*
G01*
X3648744Y467195D01*
X3644140Y654016D02*
G01*
X3644140Y703816D01*
X3563980Y707015D02*
G01*
X3644301Y707015D01*
X4396772Y572615D02*
G01*
X4350373Y619016D01*
X4260172Y619016D01*
X4396776Y467195D02*
G01*
X4357175Y427595D01*
X4256776Y427595D01*
X4217175Y467195D01*
X4216776Y467195D01*
X4312010Y703816D02*
G01*
X4312010Y654216D01*
X4392332Y652015D02*
G01*
X4312012Y652015D01*
X4332172Y654216D02*
G01*
X4332172Y703816D01*
X4028782Y552968D02*
G01*
X4028782Y658569D01*
X4067383Y514367D02*
G01*
X4169605Y514367D01*
X4067610Y697395D02*
G01*
X4067653Y697438D01*
X4173667Y697438D01*
X4396776Y572595D02*
G01*
X4396776Y467195D01*
X4392172Y654016D02*
G01*
X4392172Y703816D01*
X4312010Y707015D02*
G01*
X4392332Y707015D01*
X-4396773Y-572615D02*
G01*
X-4350373Y-619016D01*
X-4260173Y-619016D01*
X-4396776Y-467195D02*
G01*
X-4357175Y-427595D01*
X-4256776Y-427595D01*
X-4217175Y-467195D01*
X-4216776Y-467195D01*
X-4312011Y-703816D02*
G01*
X-4312011Y-654216D01*
X-4392332Y-652015D02*
G01*
X-4312013Y-652015D01*
X-4332172Y-654216D02*
G01*
X-4332172Y-703816D01*
X-4028782Y-552968D02*
G01*
X-4028782Y-658569D01*
X-4067383Y-514367D02*
G01*
X-4169605Y-514367D01*
X-4067611Y-697395D02*
G01*
X-4067654Y-697438D01*
X-4173668Y-697438D01*
X-4396776Y-572595D02*
G01*
X-4396776Y-467195D01*
X-4392172Y-654016D02*
G01*
X-4392172Y-703816D01*
X-4312011Y-707015D02*
G01*
X-4392332Y-707015D01*
X-3648742Y-572615D02*
G01*
X-3602341Y-619016D01*
X-3512142Y-619016D01*
X-3648744Y-467195D02*
G01*
X-3609144Y-427595D01*
X-3508744Y-427595D01*
X-3469144Y-467195D01*
X-3468744Y-467195D01*
X-3563980Y-703816D02*
G01*
X-3563980Y-654216D01*
X-3644302Y-652015D02*
G01*
X-3563982Y-652015D01*
X-3584140Y-654216D02*
G01*
X-3584140Y-703816D01*
X-3280751Y-552968D02*
G01*
X-3280751Y-658569D01*
X-3319351Y-514367D02*
G01*
X-3421574Y-514367D01*
X-3319580Y-697395D02*
G01*
X-3319623Y-697438D01*
X-3425637Y-697438D01*
X-3648744Y-572595D02*
G01*
X-3648744Y-467195D01*
X-3644140Y-654016D02*
G01*
X-3644140Y-703816D01*
X-3563980Y-707015D02*
G01*
X-3644302Y-707015D01*
X-2900709Y-572615D02*
G01*
X-2854310Y-619016D01*
X-2764110Y-619016D01*
X-2900713Y-467195D02*
G01*
X-2861113Y-427595D01*
X-2760713Y-427595D01*
X-2721113Y-467195D01*
X-2720713Y-467195D01*
X-2815947Y-703816D02*
G01*
X-2815947Y-654216D01*
X-2896270Y-652015D02*
G01*
X-2815950Y-652015D01*
X-2836109Y-654216D02*
G01*
X-2836109Y-703816D01*
X-2532719Y-552968D02*
G01*
X-2532719Y-658569D01*
X-2571320Y-514367D02*
G01*
X-2673542Y-514367D01*
X-2571548Y-697395D02*
G01*
X-2571590Y-697438D01*
X-2677605Y-697438D01*
X-2900713Y-572595D02*
G01*
X-2900713Y-467195D01*
X-2896109Y-654016D02*
G01*
X-2896109Y-703816D01*
X-2815947Y-707015D02*
G01*
X-2896270Y-707015D01*
X-2152678Y-572615D02*
G01*
X-2106279Y-619016D01*
X-2016078Y-619016D01*
X-2152682Y-467195D02*
G01*
X-2113082Y-427595D01*
X-2012682Y-427595D01*
X-1973082Y-467195D01*
X-1972682Y-467195D01*
X-2067917Y-703816D02*
G01*
X-2067917Y-654216D01*
X-2148239Y-652015D02*
G01*
X-2067919Y-652015D01*
X-2088078Y-654216D02*
G01*
X-2088078Y-703816D01*
X-1784688Y-552968D02*
G01*
X-1784688Y-658569D01*
X-1823289Y-514367D02*
G01*
X-1925511Y-514367D01*
X-1823517Y-697395D02*
G01*
X-1823560Y-697438D01*
X-1929574Y-697438D01*
X-2152682Y-572595D02*
G01*
X-2152682Y-467195D01*
X-2148078Y-654016D02*
G01*
X-2148078Y-703816D01*
X-2067917Y-707015D02*
G01*
X-2148239Y-707015D01*
X-1404647Y-572615D02*
G01*
X-1358247Y-619016D01*
X-1268047Y-619016D01*
X-1404650Y-467195D02*
G01*
X-1365050Y-427595D01*
X-1264650Y-427595D01*
X-1225050Y-467195D01*
X-1224650Y-467195D01*
X-1319885Y-703816D02*
G01*
X-1319885Y-654216D01*
X-1400207Y-652015D02*
G01*
X-1319886Y-652015D01*
X-1340046Y-654216D02*
G01*
X-1340046Y-703816D01*
X-1036656Y-552968D02*
G01*
X-1036656Y-658569D01*
X-1075257Y-514367D02*
G01*
X-1177479Y-514367D01*
X-1075484Y-697395D02*
G01*
X-1075528Y-697438D01*
X-1181541Y-697438D01*
X-1404650Y-572595D02*
G01*
X-1404650Y-467195D01*
X-1400046Y-654016D02*
G01*
X-1400046Y-703816D01*
X-1319885Y-707015D02*
G01*
X-1400207Y-707015D01*
X839447Y-572615D02*
G01*
X885846Y-619016D01*
X976046Y-619016D01*
X839443Y-467195D02*
G01*
X879043Y-427595D01*
X979443Y-427595D01*
X1019043Y-467195D01*
X1019443Y-467195D01*
X924209Y-703816D02*
G01*
X924209Y-654216D01*
X843886Y-652015D02*
G01*
X924206Y-652015D01*
X904047Y-654216D02*
G01*
X904047Y-703816D01*
X1207437Y-552968D02*
G01*
X1207437Y-658569D01*
X1168836Y-514367D02*
G01*
X1066615Y-514367D01*
X1168608Y-697395D02*
G01*
X1168566Y-697438D01*
X1062551Y-697438D01*
X839443Y-572595D02*
G01*
X839443Y-467195D01*
X844047Y-654016D02*
G01*
X844047Y-703816D01*
X924209Y-707015D02*
G01*
X843886Y-707015D01*
X1587478Y-572615D02*
G01*
X1633878Y-619016D01*
X1724079Y-619016D01*
X1587475Y-467195D02*
G01*
X1627075Y-427595D01*
X1727475Y-427595D01*
X1767075Y-467195D01*
X1767475Y-467195D01*
X1672240Y-703816D02*
G01*
X1672240Y-654216D01*
X1591918Y-652015D02*
G01*
X1672238Y-652015D01*
X1652079Y-654216D02*
G01*
X1652079Y-703816D01*
X1955469Y-552968D02*
G01*
X1955469Y-658569D01*
X1916868Y-514367D02*
G01*
X1814646Y-514367D01*
X1916640Y-697395D02*
G01*
X1916597Y-697438D01*
X1810583Y-697438D01*
X1587475Y-572595D02*
G01*
X1587475Y-467195D01*
X1592079Y-654016D02*
G01*
X1592079Y-703816D01*
X1672240Y-707015D02*
G01*
X1591918Y-707015D01*
X2335509Y-572615D02*
G01*
X2381909Y-619016D01*
X2472109Y-619016D01*
X2335506Y-467195D02*
G01*
X2375106Y-427595D01*
X2475506Y-427595D01*
X2515106Y-467195D01*
X2515506Y-467195D01*
X2420271Y-703816D02*
G01*
X2420271Y-654216D01*
X2339949Y-652015D02*
G01*
X2420270Y-652015D01*
X2400110Y-654216D02*
G01*
X2400110Y-703816D01*
X2703500Y-552968D02*
G01*
X2703500Y-658569D01*
X2664899Y-514367D02*
G01*
X2562677Y-514367D01*
X2664672Y-697395D02*
G01*
X2664628Y-697438D01*
X2558615Y-697438D01*
X2335506Y-572595D02*
G01*
X2335506Y-467195D01*
X2340110Y-654016D02*
G01*
X2340110Y-703816D01*
X2420271Y-707015D02*
G01*
X2339949Y-707015D01*
X3083541Y-572615D02*
G01*
X3129942Y-619016D01*
X3220141Y-619016D01*
X3083539Y-467195D02*
G01*
X3123139Y-427595D01*
X3223539Y-427595D01*
X3263139Y-467195D01*
X3263539Y-467195D01*
X3168303Y-703816D02*
G01*
X3168303Y-654216D01*
X3087982Y-652015D02*
G01*
X3168301Y-652015D01*
X3148143Y-654216D02*
G01*
X3148143Y-703816D01*
X3451532Y-552968D02*
G01*
X3451532Y-658569D01*
X3412932Y-514367D02*
G01*
X3310709Y-514367D01*
X3412703Y-697395D02*
G01*
X3412660Y-697438D01*
X3306646Y-697438D01*
X3083539Y-572595D02*
G01*
X3083539Y-467195D01*
X3088143Y-654016D02*
G01*
X3088143Y-703816D01*
X3168303Y-707015D02*
G01*
X3087982Y-707015D01*
X3831572Y-572615D02*
G01*
X3877973Y-619016D01*
X3968172Y-619016D01*
X3831570Y-467195D02*
G01*
X3871169Y-427595D01*
X3971570Y-427595D01*
X4011169Y-467195D01*
X4011570Y-467195D01*
X3916334Y-703816D02*
G01*
X3916334Y-654216D01*
X3836012Y-652015D02*
G01*
X3916332Y-652015D01*
X3896174Y-654216D02*
G01*
X3896174Y-703816D01*
X4199564Y-552968D02*
G01*
X4199564Y-658569D01*
X4160963Y-514367D02*
G01*
X4058741Y-514367D01*
X4160734Y-697395D02*
G01*
X4160691Y-697438D01*
X4054677Y-697438D01*
X3831570Y-572595D02*
G01*
X3831570Y-467195D01*
X3836174Y-654016D02*
G01*
X3836174Y-703816D01*
X3916334Y-707015D02*
G01*
X3836012Y-707015D01*
X-4396773Y-1320646D02*
G01*
X-4350373Y-1367046D01*
X-4260173Y-1367046D01*
X-4396776Y-1215225D02*
G01*
X-4357175Y-1175625D01*
X-4256776Y-1175625D01*
X-4217175Y-1215225D01*
X-4216776Y-1215225D01*
X-4312011Y-1451846D02*
G01*
X-4312011Y-1402246D01*
X-4392332Y-1400046D02*
G01*
X-4312013Y-1400046D01*
X-4332172Y-1402246D02*
G01*
X-4332172Y-1451846D01*
X-4028782Y-1300999D02*
G01*
X-4028782Y-1406601D01*
X-4067383Y-1262399D02*
G01*
X-4169605Y-1262399D01*
X-4067611Y-1445425D02*
G01*
X-4067654Y-1445470D01*
X-4173668Y-1445470D01*
X-4396776Y-1320625D02*
G01*
X-4396776Y-1215225D01*
X-4392172Y-1402046D02*
G01*
X-4392172Y-1451846D01*
X-4312011Y-1455046D02*
G01*
X-4392332Y-1455046D01*
X-3648742Y-1320646D02*
G01*
X-3602341Y-1367046D01*
X-3512142Y-1367046D01*
X-3648744Y-1215225D02*
G01*
X-3609144Y-1175625D01*
X-3508744Y-1175625D01*
X-3469144Y-1215225D01*
X-3468744Y-1215225D01*
X-3563980Y-1451846D02*
G01*
X-3563980Y-1402246D01*
X-3644302Y-1400046D02*
G01*
X-3563982Y-1400046D01*
X-3584140Y-1402246D02*
G01*
X-3584140Y-1451846D01*
X-3280751Y-1300999D02*
G01*
X-3280751Y-1406601D01*
X-3319351Y-1262399D02*
G01*
X-3421574Y-1262399D01*
X-3319580Y-1445425D02*
G01*
X-3319623Y-1445470D01*
X-3425637Y-1445470D01*
X-3648744Y-1320625D02*
G01*
X-3648744Y-1215225D01*
X-3644140Y-1402046D02*
G01*
X-3644140Y-1451846D01*
X-3563980Y-1455046D02*
G01*
X-3644302Y-1455046D01*
X-2900709Y-1320646D02*
G01*
X-2854310Y-1367046D01*
X-2764110Y-1367046D01*
X-2900713Y-1215225D02*
G01*
X-2861113Y-1175625D01*
X-2760713Y-1175625D01*
X-2721113Y-1215225D01*
X-2720713Y-1215225D01*
X-2815947Y-1451846D02*
G01*
X-2815947Y-1402246D01*
X-2896270Y-1400046D02*
G01*
X-2815950Y-1400046D01*
X-2836109Y-1402246D02*
G01*
X-2836109Y-1451846D01*
X-2532719Y-1300999D02*
G01*
X-2532719Y-1406601D01*
X-2571320Y-1262399D02*
G01*
X-2673542Y-1262399D01*
X-2571548Y-1445425D02*
G01*
X-2571590Y-1445470D01*
X-2677605Y-1445470D01*
X-2900713Y-1320625D02*
G01*
X-2900713Y-1215225D01*
X-2896109Y-1402046D02*
G01*
X-2896109Y-1451846D01*
X-2815947Y-1455046D02*
G01*
X-2896270Y-1455046D01*
X-2152678Y-1320646D02*
G01*
X-2106279Y-1367046D01*
X-2016078Y-1367046D01*
X-2152682Y-1215225D02*
G01*
X-2113082Y-1175625D01*
X-2012682Y-1175625D01*
X-1973082Y-1215225D01*
X-1972682Y-1215225D01*
X-2067917Y-1451846D02*
G01*
X-2067917Y-1402246D01*
X-2148239Y-1400046D02*
G01*
X-2067919Y-1400046D01*
X-2088078Y-1402246D02*
G01*
X-2088078Y-1451846D01*
X-1784688Y-1300999D02*
G01*
X-1784688Y-1406601D01*
X-1823289Y-1262399D02*
G01*
X-1925511Y-1262399D01*
X-1823517Y-1445425D02*
G01*
X-1823560Y-1445470D01*
X-1929574Y-1445470D01*
X-2152682Y-1320625D02*
G01*
X-2152682Y-1215225D01*
X-2148078Y-1402046D02*
G01*
X-2148078Y-1451846D01*
X-2067917Y-1455046D02*
G01*
X-2148239Y-1455046D01*
X-1404647Y-1320646D02*
G01*
X-1358247Y-1367046D01*
X-1268047Y-1367046D01*
X-1404650Y-1215225D02*
G01*
X-1365050Y-1175625D01*
X-1264650Y-1175625D01*
X-1225050Y-1215225D01*
X-1224650Y-1215225D01*
X-1319885Y-1451846D02*
G01*
X-1319885Y-1402246D01*
X-1400207Y-1400046D02*
G01*
X-1319886Y-1400046D01*
X-1340046Y-1402246D02*
G01*
X-1340046Y-1451846D01*
X-1036656Y-1300999D02*
G01*
X-1036656Y-1406601D01*
X-1075257Y-1262399D02*
G01*
X-1177479Y-1262399D01*
X-1075484Y-1445425D02*
G01*
X-1075528Y-1445470D01*
X-1181541Y-1445470D01*
X-1404650Y-1320625D02*
G01*
X-1404650Y-1215225D01*
X-1400046Y-1402046D02*
G01*
X-1400046Y-1451846D01*
X-1319885Y-1455046D02*
G01*
X-1400207Y-1455046D01*
X-656616Y-1320646D02*
G01*
X-610216Y-1367046D01*
X-520016Y-1367046D01*
X-656619Y-1215225D02*
G01*
X-617019Y-1175625D01*
X-516619Y-1175625D01*
X-477019Y-1215225D01*
X-476619Y-1215225D01*
X-571854Y-1451846D02*
G01*
X-571854Y-1402246D01*
X-652175Y-1400046D02*
G01*
X-571856Y-1400046D01*
X-592015Y-1402246D02*
G01*
X-592015Y-1451846D01*
X-288625Y-1300999D02*
G01*
X-288625Y-1406601D01*
X-327226Y-1262399D02*
G01*
X-429448Y-1262399D01*
X-327454Y-1445425D02*
G01*
X-327497Y-1445470D01*
X-433510Y-1445470D01*
X-656619Y-1320625D02*
G01*
X-656619Y-1215225D01*
X-652015Y-1402046D02*
G01*
X-652015Y-1451846D01*
X-571854Y-1455046D02*
G01*
X-652175Y-1455046D01*
X91415Y-1320646D02*
G01*
X137815Y-1367046D01*
X228015Y-1367046D01*
X91412Y-1215225D02*
G01*
X131012Y-1175625D01*
X231412Y-1175625D01*
X271012Y-1215225D01*
X271412Y-1215225D01*
X176177Y-1451846D02*
G01*
X176177Y-1402246D01*
X95855Y-1400046D02*
G01*
X176175Y-1400046D01*
X156017Y-1402246D02*
G01*
X156017Y-1451846D01*
X459407Y-1300999D02*
G01*
X459407Y-1406601D01*
X420805Y-1262399D02*
G01*
X318584Y-1262399D01*
X420577Y-1445425D02*
G01*
X420534Y-1445470D01*
X314520Y-1445470D01*
X91412Y-1320625D02*
G01*
X91412Y-1215225D01*
X96017Y-1402046D02*
G01*
X96017Y-1451846D01*
X176177Y-1455046D02*
G01*
X95855Y-1455046D01*
X839447Y-1320646D02*
G01*
X885846Y-1367046D01*
X976046Y-1367046D01*
X839443Y-1215225D02*
G01*
X879043Y-1175625D01*
X979443Y-1175625D01*
X1019043Y-1215225D01*
X1019443Y-1215225D01*
X924209Y-1451846D02*
G01*
X924209Y-1402246D01*
X843886Y-1400046D02*
G01*
X924206Y-1400046D01*
X904047Y-1402246D02*
G01*
X904047Y-1451846D01*
X1207437Y-1300999D02*
G01*
X1207437Y-1406601D01*
X1168836Y-1262399D02*
G01*
X1066615Y-1262399D01*
X1168608Y-1445425D02*
G01*
X1168566Y-1445470D01*
X1062551Y-1445470D01*
X839443Y-1320625D02*
G01*
X839443Y-1215225D01*
X844047Y-1402046D02*
G01*
X844047Y-1451846D01*
X924209Y-1455046D02*
G01*
X843886Y-1455046D01*
X1587478Y-1320646D02*
G01*
X1633878Y-1367046D01*
X1724079Y-1367046D01*
X1587475Y-1215225D02*
G01*
X1627075Y-1175625D01*
X1727475Y-1175625D01*
X1767075Y-1215225D01*
X1767475Y-1215225D01*
X1672240Y-1451846D02*
G01*
X1672240Y-1402246D01*
X1591918Y-1400046D02*
G01*
X1672238Y-1400046D01*
X1652079Y-1402246D02*
G01*
X1652079Y-1451846D01*
X1955469Y-1300999D02*
G01*
X1955469Y-1406601D01*
X1916868Y-1262399D02*
G01*
X1814646Y-1262399D01*
X1916640Y-1445425D02*
G01*
X1916597Y-1445470D01*
X1810583Y-1445470D01*
X1587475Y-1320625D02*
G01*
X1587475Y-1215225D01*
X1592079Y-1402046D02*
G01*
X1592079Y-1451846D01*
X1672240Y-1455046D02*
G01*
X1591918Y-1455046D01*
X2335509Y-1320646D02*
G01*
X2381909Y-1367046D01*
X2472109Y-1367046D01*
X2335506Y-1215225D02*
G01*
X2375106Y-1175625D01*
X2475506Y-1175625D01*
X2515106Y-1215225D01*
X2515506Y-1215225D01*
X2420271Y-1451846D02*
G01*
X2420271Y-1402246D01*
X2339949Y-1400046D02*
G01*
X2420270Y-1400046D01*
X2400110Y-1402246D02*
G01*
X2400110Y-1451846D01*
X2703500Y-1300999D02*
G01*
X2703500Y-1406601D01*
X2664899Y-1262399D02*
G01*
X2562677Y-1262399D01*
X2664672Y-1445425D02*
G01*
X2664628Y-1445470D01*
X2558615Y-1445470D01*
X2335506Y-1320625D02*
G01*
X2335506Y-1215225D01*
X2340110Y-1402046D02*
G01*
X2340110Y-1451846D01*
X2420271Y-1455046D02*
G01*
X2339949Y-1455046D01*
X3083541Y-1320646D02*
G01*
X3129942Y-1367046D01*
X3220141Y-1367046D01*
X3083539Y-1215225D02*
G01*
X3123139Y-1175625D01*
X3223539Y-1175625D01*
X3263139Y-1215225D01*
X3263539Y-1215225D01*
X3168303Y-1451846D02*
G01*
X3168303Y-1402246D01*
X3087982Y-1400046D02*
G01*
X3168301Y-1400046D01*
X3148143Y-1402246D02*
G01*
X3148143Y-1451846D01*
X3451532Y-1300999D02*
G01*
X3451532Y-1406601D01*
X3412932Y-1262399D02*
G01*
X3310709Y-1262399D01*
X3412703Y-1445425D02*
G01*
X3412660Y-1445470D01*
X3306646Y-1445470D01*
X3083539Y-1320625D02*
G01*
X3083539Y-1215225D01*
X3088143Y-1402046D02*
G01*
X3088143Y-1451846D01*
X3168303Y-1455046D02*
G01*
X3087982Y-1455046D01*
X3831572Y-1320646D02*
G01*
X3877973Y-1367046D01*
X3968172Y-1367046D01*
X3831570Y-1215225D02*
G01*
X3871169Y-1175625D01*
X3971570Y-1175625D01*
X4011169Y-1215225D01*
X4011570Y-1215225D01*
X3916334Y-1451846D02*
G01*
X3916334Y-1402246D01*
X3836012Y-1400046D02*
G01*
X3916332Y-1400046D01*
X3896174Y-1402246D02*
G01*
X3896174Y-1451846D01*
X4199564Y-1300999D02*
G01*
X4199564Y-1406601D01*
X4160963Y-1262399D02*
G01*
X4058741Y-1262399D01*
X4160734Y-1445425D02*
G01*
X4160691Y-1445470D01*
X4054677Y-1445470D01*
X3831570Y-1320625D02*
G01*
X3831570Y-1215225D01*
X3836174Y-1402046D02*
G01*
X3836174Y-1451846D01*
X3916334Y-1455046D02*
G01*
X3836012Y-1455046D01*
G75*
G01*
X1355969Y144665D02*
G03*
X1368167Y156863I0J12198D01*
G75*
G01*
X1312275Y156863D02*
G03*
X1324474Y144665I12198J0D01*
G75*
G01*
X1367938Y242527D02*
G03*
X1355739Y254725I-12198J0D01*
G75*
G01*
X1324244Y254725D02*
G03*
X1312046Y242527I0J-12198D01*
G75*
G01*
X1324031Y110335D02*
G03*
X1311833Y98137I0J-12198D01*
G75*
G01*
X1367725Y98137D02*
G03*
X1355526Y110335I-12198J0D01*
G75*
G01*
X1312062Y12473D02*
G03*
X1324261Y275I12198J0D01*
G75*
G01*
X1355756Y275D02*
G03*
X1367954Y12473I0J12198D01*
D24*
G75*
G01*
X721806Y-8344D02*
G02*
X721947Y-8202I-8310J8393D01*
D25*
G75*
G01*
X613194Y29274D02*
G02*
X613265Y29345I-4141J4212D01*
D10*
G75*
G01*
X-4199562Y552969D02*
G03*
X-4160989Y514396I38573J0D01*
G75*
G01*
X-4011569Y467196D02*
G03*
X-4058741Y514368I-47172J0D01*
G75*
G01*
X-4199562Y658569D02*
G02*
X-4160735Y697396I38827J0D01*
G75*
G01*
X-4011569Y654331D02*
G03*
X-4054678Y697440I-43109J0D01*
G75*
G01*
X-3969173Y619016D02*
G02*
X-4012590Y662433I0J43417D01*
G75*
G01*
X-3451531Y552969D02*
G03*
X-3412958Y514396I38573J0D01*
G75*
G01*
X-3263538Y467196D02*
G03*
X-3310710Y514368I-47172J0D01*
G75*
G01*
X-3451531Y658569D02*
G02*
X-3412704Y697396I38827J0D01*
G75*
G01*
X-3263538Y654331D02*
G03*
X-3306647Y697440I-43109J0D01*
G75*
G01*
X-3221142Y619016D02*
G02*
X-3264559Y662433I0J43417D01*
G75*
G01*
X-2703499Y552969D02*
G03*
X-2664926Y514396I38573J0D01*
G75*
G01*
X-2515506Y467196D02*
G03*
X-2562678Y514368I-47172J0D01*
G75*
G01*
X-2703499Y658569D02*
G02*
X-2664672Y697396I38827J0D01*
G75*
G01*
X-2515506Y654331D02*
G03*
X-2558615Y697440I-43109J0D01*
G75*
G01*
X-2473110Y619016D02*
G02*
X-2516527Y662433I0J43417D01*
G75*
G01*
X-1955468Y552969D02*
G03*
X-1916895Y514396I38573J0D01*
G75*
G01*
X-1767475Y467196D02*
G03*
X-1814647Y514368I-47172J0D01*
G75*
G01*
X-1955468Y658569D02*
G02*
X-1916641Y697396I38827J0D01*
G75*
G01*
X-1767475Y654331D02*
G03*
X-1810584Y697440I-43109J0D01*
G75*
G01*
X-1725079Y619016D02*
G02*
X-1768496Y662433I0J43417D01*
G75*
G01*
X-1207436Y552969D02*
G03*
X-1168863Y514396I38573J0D01*
G75*
G01*
X-1019443Y467196D02*
G03*
X-1066615Y514368I-47172J0D01*
G75*
G01*
X-1207436Y658569D02*
G02*
X-1168609Y697396I38827J0D01*
G75*
G01*
X-1019443Y654331D02*
G03*
X-1062552Y697440I-43109J0D01*
G75*
G01*
X-977047Y619016D02*
G02*
X-1020464Y662433I0J43417D01*
G75*
G01*
X1036658Y552969D02*
G03*
X1075231Y514396I38573J0D01*
G75*
G01*
X1224651Y467196D02*
G03*
X1177479Y514368I-47172J0D01*
G75*
G01*
X1036658Y658569D02*
G02*
X1075485Y697396I38827J0D01*
G75*
G01*
X1224651Y654331D02*
G03*
X1181542Y697440I-43109J0D01*
G75*
G01*
X1267047Y619016D02*
G02*
X1223630Y662433I0J43417D01*
G75*
G01*
X1784690Y552969D02*
G03*
X1823263Y514396I38573J0D01*
G75*
G01*
X1972683Y467196D02*
G03*
X1925511Y514368I-47172J0D01*
G75*
G01*
X1784690Y658569D02*
G02*
X1823517Y697396I38827J0D01*
G75*
G01*
X1972683Y654331D02*
G03*
X1929574Y697440I-43109J0D01*
G75*
G01*
X2015079Y619016D02*
G02*
X1971662Y662433I0J43417D01*
G75*
G01*
X2532721Y552969D02*
G03*
X2571294Y514396I38573J0D01*
G75*
G01*
X2720714Y467196D02*
G03*
X2673542Y514368I-47172J0D01*
G75*
G01*
X2532721Y658569D02*
G02*
X2571548Y697396I38827J0D01*
G75*
G01*
X2720714Y654331D02*
G03*
X2677605Y697440I-43109J0D01*
G75*
G01*
X2763110Y619016D02*
G02*
X2719693Y662433I0J43417D01*
G75*
G01*
X3280753Y552969D02*
G03*
X3319326Y514396I38573J0D01*
G75*
G01*
X3468746Y467196D02*
G03*
X3421574Y514368I-47172J0D01*
G75*
G01*
X3280753Y658569D02*
G02*
X3319580Y697396I38827J0D01*
G75*
G01*
X3468746Y654331D02*
G03*
X3425637Y697440I-43109J0D01*
G75*
G01*
X3511142Y619016D02*
G02*
X3467725Y662433I0J43417D01*
G75*
G01*
X4028784Y552969D02*
G03*
X4067357Y514396I38573J0D01*
G75*
G01*
X4216777Y467196D02*
G03*
X4169605Y514368I-47172J0D01*
G75*
G01*
X4028784Y658569D02*
G02*
X4067611Y697396I38827J0D01*
G75*
G01*
X4216777Y654331D02*
G03*
X4173668Y697440I-43109J0D01*
G75*
G01*
X4259173Y619016D02*
G02*
X4215756Y662433I0J43417D01*
G75*
G01*
X-4028784Y-552969D02*
G03*
X-4067357Y-514396I-38573J0D01*
G75*
G01*
X-4216777Y-467196D02*
G03*
X-4169605Y-514368I47172J0D01*
G75*
G01*
X-4028784Y-658569D02*
G02*
X-4067611Y-697396I-38827J0D01*
G75*
G01*
X-4216777Y-654331D02*
G03*
X-4173668Y-697440I43109J0D01*
G75*
G01*
X-4259173Y-619016D02*
G02*
X-4215756Y-662433I0J-43417D01*
G75*
G01*
X-3280753Y-552969D02*
G03*
X-3319326Y-514396I-38573J0D01*
G75*
G01*
X-3468746Y-467196D02*
G03*
X-3421574Y-514368I47172J0D01*
G75*
G01*
X-3280753Y-658569D02*
G02*
X-3319580Y-697396I-38827J0D01*
G75*
G01*
X-3468746Y-654331D02*
G03*
X-3425637Y-697440I43109J0D01*
G75*
G01*
X-3511142Y-619016D02*
G02*
X-3467725Y-662433I0J-43417D01*
G75*
G01*
X-2532721Y-552969D02*
G03*
X-2571294Y-514396I-38573J0D01*
G75*
G01*
X-2720714Y-467196D02*
G03*
X-2673542Y-514368I47172J0D01*
G75*
G01*
X-2532721Y-658569D02*
G02*
X-2571548Y-697396I-38827J0D01*
G75*
G01*
X-2720714Y-654331D02*
G03*
X-2677605Y-697440I43109J0D01*
G75*
G01*
X-2763110Y-619016D02*
G02*
X-2719693Y-662433I0J-43417D01*
G75*
G01*
X-1784690Y-552969D02*
G03*
X-1823263Y-514396I-38573J0D01*
G75*
G01*
X-1972683Y-467196D02*
G03*
X-1925511Y-514368I47172J0D01*
G75*
G01*
X-1784690Y-658569D02*
G02*
X-1823517Y-697396I-38827J0D01*
G75*
G01*
X-1972683Y-654331D02*
G03*
X-1929574Y-697440I43109J0D01*
G75*
G01*
X-2015079Y-619016D02*
G02*
X-1971662Y-662433I0J-43417D01*
G75*
G01*
X-1036658Y-552969D02*
G03*
X-1075231Y-514396I-38573J0D01*
G75*
G01*
X-1224651Y-467196D02*
G03*
X-1177479Y-514368I47172J0D01*
G75*
G01*
X-1036658Y-658569D02*
G02*
X-1075485Y-697396I-38827J0D01*
G75*
G01*
X-1224651Y-654331D02*
G03*
X-1181542Y-697440I43109J0D01*
G75*
G01*
X-1267047Y-619016D02*
G02*
X-1223630Y-662433I0J-43417D01*
G75*
G01*
X1207436Y-552969D02*
G03*
X1168863Y-514396I-38573J0D01*
G75*
G01*
X1019443Y-467196D02*
G03*
X1066615Y-514368I47172J0D01*
G75*
G01*
X1207436Y-658569D02*
G02*
X1168609Y-697396I-38827J0D01*
G75*
G01*
X1019443Y-654331D02*
G03*
X1062552Y-697440I43109J0D01*
G75*
G01*
X977047Y-619016D02*
G02*
X1020464Y-662433I0J-43417D01*
G75*
G01*
X1955468Y-552969D02*
G03*
X1916895Y-514396I-38573J0D01*
G75*
G01*
X1767475Y-467196D02*
G03*
X1814647Y-514368I47172J0D01*
G75*
G01*
X1955468Y-658569D02*
G02*
X1916641Y-697396I-38827J0D01*
G75*
G01*
X1767475Y-654331D02*
G03*
X1810584Y-697440I43109J0D01*
G75*
G01*
X1725079Y-619016D02*
G02*
X1768496Y-662433I0J-43417D01*
G75*
G01*
X2703499Y-552969D02*
G03*
X2664926Y-514396I-38573J0D01*
G75*
G01*
X2515506Y-467196D02*
G03*
X2562678Y-514368I47172J0D01*
G75*
G01*
X2703499Y-658569D02*
G02*
X2664672Y-697396I-38827J0D01*
G75*
G01*
X2515506Y-654331D02*
G03*
X2558615Y-697440I43109J0D01*
G75*
G01*
X2473110Y-619016D02*
G02*
X2516527Y-662433I0J-43417D01*
G75*
G01*
X3451531Y-552969D02*
G03*
X3412958Y-514396I-38573J0D01*
G75*
G01*
X3263538Y-467196D02*
G03*
X3310710Y-514368I47172J0D01*
G75*
G01*
X3451531Y-658569D02*
G02*
X3412704Y-697396I-38827J0D01*
G75*
G01*
X3263538Y-654331D02*
G03*
X3306647Y-697440I43109J0D01*
G75*
G01*
X3221142Y-619016D02*
G02*
X3264559Y-662433I0J-43417D01*
G75*
G01*
X4199562Y-552969D02*
G03*
X4160989Y-514396I-38573J0D01*
G75*
G01*
X4011569Y-467196D02*
G03*
X4058741Y-514368I47172J0D01*
G75*
G01*
X4199562Y-658569D02*
G02*
X4160735Y-697396I-38827J0D01*
G75*
G01*
X4011569Y-654331D02*
G03*
X4054678Y-697440I43109J0D01*
G75*
G01*
X3969173Y-619016D02*
G02*
X4012590Y-662433I0J-43417D01*
G75*
G01*
X-4028784Y-1301000D02*
G03*
X-4067357Y-1262427I-38573J0D01*
G75*
G01*
X-4216777Y-1215227D02*
G03*
X-4169605Y-1262399I47172J0D01*
G75*
G01*
X-4028784Y-1406600D02*
G02*
X-4067611Y-1445427I-38827J0D01*
G75*
G01*
X-4216777Y-1402362D02*
G03*
X-4173668Y-1445471I43109J0D01*
G75*
G01*
X-4259173Y-1367047D02*
G02*
X-4215756Y-1410464I0J-43417D01*
G75*
G01*
X-3280753Y-1301000D02*
G03*
X-3319326Y-1262427I-38573J0D01*
G75*
G01*
X-3468746Y-1215227D02*
G03*
X-3421574Y-1262399I47172J0D01*
G75*
G01*
X-3280753Y-1406600D02*
G02*
X-3319580Y-1445427I-38827J0D01*
G75*
G01*
X-3468746Y-1402362D02*
G03*
X-3425637Y-1445471I43109J0D01*
G75*
G01*
X-3511142Y-1367047D02*
G02*
X-3467725Y-1410464I0J-43417D01*
G75*
G01*
X-2532721Y-1301000D02*
G03*
X-2571294Y-1262427I-38573J0D01*
G75*
G01*
X-2720714Y-1215227D02*
G03*
X-2673542Y-1262399I47172J0D01*
G75*
G01*
X-2532721Y-1406600D02*
G02*
X-2571548Y-1445427I-38827J0D01*
G75*
G01*
X-2720714Y-1402362D02*
G03*
X-2677605Y-1445471I43109J0D01*
G75*
G01*
X-2763110Y-1367047D02*
G02*
X-2719693Y-1410464I0J-43417D01*
G75*
G01*
X-1784690Y-1301000D02*
G03*
X-1823263Y-1262427I-38573J0D01*
G75*
G01*
X-1972683Y-1215227D02*
G03*
X-1925511Y-1262399I47172J0D01*
G75*
G01*
X-1784690Y-1406600D02*
G02*
X-1823517Y-1445427I-38827J0D01*
G75*
G01*
X-1972683Y-1402362D02*
G03*
X-1929574Y-1445471I43109J0D01*
G75*
G01*
X-2015079Y-1367047D02*
G02*
X-1971662Y-1410464I0J-43417D01*
G75*
G01*
X-1036658Y-1301000D02*
G03*
X-1075231Y-1262427I-38573J0D01*
G75*
G01*
X-1224651Y-1215227D02*
G03*
X-1177479Y-1262399I47172J0D01*
G75*
G01*
X-1036658Y-1406600D02*
G02*
X-1075485Y-1445427I-38827J0D01*
G75*
G01*
X-1224651Y-1402362D02*
G03*
X-1181542Y-1445471I43109J0D01*
G75*
G01*
X-1267047Y-1367047D02*
G02*
X-1223630Y-1410464I0J-43417D01*
G75*
G01*
X-288627Y-1301000D02*
G03*
X-327200Y-1262427I-38573J0D01*
G75*
G01*
X-476620Y-1215227D02*
G03*
X-429448Y-1262399I47172J0D01*
G75*
G01*
X-288627Y-1406600D02*
G02*
X-327454Y-1445427I-38827J0D01*
G75*
G01*
X-476620Y-1402362D02*
G03*
X-433511Y-1445471I43109J0D01*
G75*
G01*
X-519016Y-1367047D02*
G02*
X-475599Y-1410464I0J-43417D01*
G75*
G01*
X459405Y-1301000D02*
G03*
X420832Y-1262427I-38573J0D01*
G75*
G01*
X271412Y-1215227D02*
G03*
X318584Y-1262399I47172J0D01*
G75*
G01*
X459405Y-1406600D02*
G02*
X420578Y-1445427I-38827J0D01*
G75*
G01*
X271412Y-1402362D02*
G03*
X314521Y-1445471I43109J0D01*
G75*
G01*
X229016Y-1367047D02*
G02*
X272433Y-1410464I0J-43417D01*
G75*
G01*
X1207436Y-1301000D02*
G03*
X1168863Y-1262427I-38573J0D01*
G75*
G01*
X1019443Y-1215227D02*
G03*
X1066615Y-1262399I47172J0D01*
G75*
G01*
X1207436Y-1406600D02*
G02*
X1168609Y-1445427I-38827J0D01*
G75*
G01*
X1019443Y-1402362D02*
G03*
X1062552Y-1445471I43109J0D01*
G75*
G01*
X977047Y-1367047D02*
G02*
X1020464Y-1410464I0J-43417D01*
G75*
G01*
X1955468Y-1301000D02*
G03*
X1916895Y-1262427I-38573J0D01*
G75*
G01*
X1767475Y-1215227D02*
G03*
X1814647Y-1262399I47172J0D01*
G75*
G01*
X1955468Y-1406600D02*
G02*
X1916641Y-1445427I-38827J0D01*
G75*
G01*
X1767475Y-1402362D02*
G03*
X1810584Y-1445471I43109J0D01*
G75*
G01*
X1725079Y-1367047D02*
G02*
X1768496Y-1410464I0J-43417D01*
G75*
G01*
X2703499Y-1301000D02*
G03*
X2664926Y-1262427I-38573J0D01*
G75*
G01*
X2515506Y-1215227D02*
G03*
X2562678Y-1262399I47172J0D01*
G75*
G01*
X2703499Y-1406600D02*
G02*
X2664672Y-1445427I-38827J0D01*
G75*
G01*
X2515506Y-1402362D02*
G03*
X2558615Y-1445471I43109J0D01*
G75*
G01*
X2473110Y-1367047D02*
G02*
X2516527Y-1410464I0J-43417D01*
G75*
G01*
X3451531Y-1301000D02*
G03*
X3412958Y-1262427I-38573J0D01*
G75*
G01*
X3263538Y-1215227D02*
G03*
X3310710Y-1262399I47172J0D01*
G75*
G01*
X3451531Y-1406600D02*
G02*
X3412704Y-1445427I-38827J0D01*
G75*
G01*
X3263538Y-1402362D02*
G03*
X3306647Y-1445471I43109J0D01*
G75*
G01*
X3221142Y-1367047D02*
G02*
X3264559Y-1410464I0J-43417D01*
G75*
G01*
X4199562Y-1301000D02*
G03*
X4160989Y-1262427I-38573J0D01*
G75*
G01*
X4011569Y-1215227D02*
G03*
X4058741Y-1262399I47172J0D01*
G75*
G01*
X4199562Y-1406600D02*
G02*
X4160735Y-1445427I-38827J0D01*
G75*
G01*
X4011569Y-1402362D02*
G03*
X4054678Y-1445471I43109J0D01*
G75*
G01*
X3969173Y-1367047D02*
G02*
X4012590Y-1410464I0J-43417D01*
G75*
G01
X-1182927Y205394D02*
G03X-1182927Y205394I-7070J0D01*
G75*
G01
X216493Y-16D02*
G03X216493Y-16I-216540J0D01*
M02*
