G04 Layer: BottomSolderMaskLayer*
G04 EasyEDA v6.4.25, 2022-01-27T13:57:17+08:00*
G04 c860a57ab6e24c20a85ed983e1d1ab15,3b57db4a37c74da5bb1b5bc11455ab19,10*
G04 Gerber Generator version 0.2*
G04 Scale: 100 percent, Rotated: No, Reflected: No *
G04 Dimensions in inches *
G04 leading zeros omitted , absolute positions ,3 integer and 6 decimal *
%FSLAX36Y36*%
%MOIN*%

%ADD39C,0.0552*%
%ADD40C,0.0946*%
%ADD46C,0.0660*%
%ADD48C,0.0245*%
%ADD49C,0.0316*%
%ADD50C,0.0198*%

%LPD*%
D48*
X620447Y62359D02*
G01*
X653297Y29508D01*
X642717Y84628D02*
G01*
X675567Y51779D01*
X664987Y106898D02*
G01*
X697838Y74048D01*
X687258Y129169D02*
G01*
X720108Y96318D01*
X709528Y151439D02*
G01*
X742377Y118589D01*
X731797Y173708D02*
G01*
X764647Y140859D01*
X754067Y195988D02*
G01*
X786917Y163139D01*
X776337Y218249D02*
G01*
X809187Y185399D01*
X798617Y240529D02*
G01*
X831467Y207678D01*
X820877Y262799D02*
G01*
X853728Y229949D01*
X843157Y285068D02*
G01*
X876008Y252219D01*
X935018Y252219D02*
G01*
X967867Y285068D01*
X957298Y229949D02*
G01*
X990147Y262799D01*
X979557Y207678D02*
G01*
X1012407Y240529D01*
X1001837Y185399D02*
G01*
X1034687Y218249D01*
X1024097Y163139D02*
G01*
X1056947Y195988D01*
X1046377Y140859D02*
G01*
X1079227Y173708D01*
X1068647Y118589D02*
G01*
X1101498Y151439D01*
X1090918Y96318D02*
G01*
X1123768Y129169D01*
X1113188Y74048D02*
G01*
X1146037Y106898D01*
X1135457Y51779D02*
G01*
X1168307Y84628D01*
X1157727Y29508D02*
G01*
X1190577Y62359D01*
X1157727Y-29510D02*
G01*
X1190577Y-62361D01*
X1135457Y-51781D02*
G01*
X1168307Y-84630D01*
X1113188Y-74050D02*
G01*
X1146037Y-106900D01*
X1090918Y-96320D02*
G01*
X1123768Y-129171D01*
X1068647Y-118591D02*
G01*
X1101498Y-151440D01*
X1046377Y-140860D02*
G01*
X1079227Y-173710D01*
X1024097Y-163141D02*
G01*
X1056947Y-195990D01*
X1001837Y-185401D02*
G01*
X1034687Y-218251D01*
X979557Y-207680D02*
G01*
X1012407Y-240531D01*
X957298Y-229940D02*
G01*
X990147Y-262790D01*
X935018Y-252220D02*
G01*
X967867Y-285070D01*
X843157Y-285070D02*
G01*
X876008Y-252220D01*
X820877Y-262790D02*
G01*
X853728Y-229940D01*
X798617Y-240531D02*
G01*
X831467Y-207680D01*
X776337Y-218251D02*
G01*
X809187Y-185401D01*
X754067Y-195990D02*
G01*
X786917Y-163141D01*
X731797Y-173710D02*
G01*
X764647Y-140860D01*
X709528Y-151440D02*
G01*
X742377Y-118591D01*
X687258Y-129171D02*
G01*
X720108Y-96320D01*
X664987Y-106900D02*
G01*
X697838Y-74050D01*
X642717Y-84630D02*
G01*
X675567Y-51781D01*
X620447Y-62361D02*
G01*
X653297Y-29510D01*
D49*
X-125977Y415347D02*
G01*
X-125977Y450779D01*
X-94486Y415347D02*
G01*
X-94486Y450779D01*
D50*
X-68897Y409441D02*
G01*
X-68897Y456685D01*
X-49207Y409441D02*
G01*
X-49207Y456685D01*
X-29526Y409441D02*
G01*
X-29526Y456685D01*
X-9837Y409441D02*
G01*
X-9837Y456685D01*
X9843Y409441D02*
G01*
X9843Y456685D01*
X29533Y409441D02*
G01*
X29533Y456685D01*
X49202Y409441D02*
G01*
X49202Y456685D01*
X68903Y409441D02*
G01*
X68903Y456685D01*
D49*
X94492Y415347D02*
G01*
X94492Y450779D01*
X125982Y415347D02*
G01*
X125982Y450779D01*
D39*
X-170077Y640253D02*
G01*
X-170077Y663874D01*
X170082Y640253D02*
G01*
X170082Y663874D01*
X170082Y471745D02*
G01*
X170082Y503242D01*
X-170077Y471745D02*
G01*
X-170077Y503242D01*
D40*
X-4433069Y3D02*
G01*
X-4543305Y3D01*
X-4433069Y-779526D02*
G01*
X-4543305Y-779526D01*
X4543310Y3D02*
G01*
X4433074Y3D01*
X4543310Y-779526D02*
G01*
X4433074Y-779526D01*
X-3771657Y-1440947D02*
G01*
X-3771657Y-1551183D01*
X-3708657Y803152D02*
G01*
X-3708657Y692916D01*
X-1527557Y-1440947D02*
G01*
X-1527557Y-1551183D01*
X-1464567Y803152D02*
G01*
X-1464567Y692916D01*
X1464562Y-1440947D02*
G01*
X1464562Y-1551183D01*
X1527563Y803152D02*
G01*
X1527563Y692916D01*
X3708662Y-1440947D02*
G01*
X3708662Y-1551183D01*
X3771652Y803152D02*
G01*
X3771652Y692916D01*
G36*
X-1153946Y155484D02*
G01*
X-1153946Y242184D01*
X-1031847Y242184D01*
X-1031847Y155484D01*
G37*
G36*
X-1153946Y-242116D02*
G01*
X-1153946Y-155515D01*
X-1031847Y-155515D01*
X-1031847Y-242116D01*
G37*
G36*
X-1240547Y-110315D02*
G01*
X-1240547Y-86615D01*
X-1173546Y-86615D01*
X-1173546Y-110315D01*
G37*
G36*
X-1240547Y-61015D02*
G01*
X-1240547Y-37415D01*
X-1173546Y-37415D01*
X-1173546Y-61015D01*
G37*
G36*
X-1240547Y-11815D02*
G01*
X-1240547Y11884D01*
X-1173546Y11884D01*
X-1173546Y-11815D01*
G37*
G36*
X-1240547Y37384D02*
G01*
X-1240547Y61084D01*
X-1173546Y61084D01*
X-1173546Y37384D01*
G37*
G36*
X-1240547Y86584D02*
G01*
X-1240547Y110284D01*
X-1173546Y110284D01*
X-1173546Y86584D01*
G37*
G36*
X-1366147Y134384D02*
G01*
X-1366147Y185684D01*
X-1318747Y185684D01*
X-1318747Y134384D01*
G37*
G36*
X-1421247Y134384D02*
G01*
X-1421247Y185684D01*
X-1373847Y185684D01*
X-1373847Y134384D01*
G37*
G36*
X-1366147Y59384D02*
G01*
X-1366147Y110684D01*
X-1318747Y110684D01*
X-1318747Y59384D01*
G37*
G36*
X-1421247Y59384D02*
G01*
X-1421247Y110684D01*
X-1373847Y110684D01*
X-1373847Y59384D01*
G37*
G36*
X-1422147Y-54016D02*
G01*
X-1422147Y-6015D01*
X-1378146Y-6015D01*
X-1378146Y-54016D01*
G37*
G36*
X-1361947Y-54016D02*
G01*
X-1361947Y-6015D01*
X-1317947Y-6015D01*
X-1317947Y-54016D01*
G37*
G36*
X-1361947Y983D02*
G01*
X-1361947Y48984D01*
X-1317947Y48984D01*
X-1317947Y983D01*
G37*
G36*
X-1422147Y983D02*
G01*
X-1422147Y48984D01*
X-1378146Y48984D01*
X-1378146Y983D01*
G37*
G36*
X-1366147Y-115615D02*
G01*
X-1366147Y-64315D01*
X-1318747Y-64315D01*
X-1318747Y-115615D01*
G37*
G36*
X-1421247Y-115615D02*
G01*
X-1421247Y-64315D01*
X-1373847Y-64315D01*
X-1373847Y-115615D01*
G37*
G36*
X-1361947Y-174016D02*
G01*
X-1361947Y-126015D01*
X-1317947Y-126015D01*
X-1317947Y-174016D01*
G37*
G36*
X-1422147Y-174016D02*
G01*
X-1422147Y-126015D01*
X-1378146Y-126015D01*
X-1378146Y-174016D01*
G37*
G36*
X-65646Y-1091215D02*
G01*
X-65646Y-1043915D01*
X-14347Y-1043915D01*
X-14347Y-1091215D01*
G37*
G36*
X-65646Y-1036116D02*
G01*
X-65646Y-988715D01*
X-14347Y-988715D01*
X-14347Y-1036116D01*
G37*
G36*
X14353Y-1091215D02*
G01*
X14353Y-1043915D01*
X65652Y-1043915D01*
X65652Y-1091215D01*
G37*
G36*
X14353Y-1036116D02*
G01*
X14353Y-988715D01*
X65652Y-988715D01*
X65652Y-1036116D01*
G37*
G36*
X-865646Y-561215D02*
G01*
X-865646Y-513915D01*
X-814347Y-513915D01*
X-814347Y-561215D01*
G37*
G36*
X-865646Y-506116D02*
G01*
X-865646Y-458715D01*
X-814347Y-458715D01*
X-814347Y-506116D01*
G37*
G36*
X-790646Y-561215D02*
G01*
X-790646Y-513915D01*
X-739347Y-513915D01*
X-739347Y-561215D01*
G37*
G36*
X-790646Y-506116D02*
G01*
X-790646Y-458715D01*
X-739347Y-458715D01*
X-739347Y-506116D01*
G37*
G36*
X414252Y403883D02*
G01*
X414252Y451183D01*
X465652Y451183D01*
X465652Y403883D01*
G37*
G36*
X414252Y348784D02*
G01*
X414252Y396084D01*
X465652Y396084D01*
X465652Y348784D01*
G37*
G36*
X-359047Y493083D02*
G01*
X-359047Y537083D01*
X-311046Y537083D01*
X-311046Y493083D01*
G37*
G36*
X-359047Y432883D02*
G01*
X-359047Y476884D01*
X-311046Y476884D01*
X-311046Y432883D01*
G37*
G36*
X275952Y408083D02*
G01*
X275952Y452083D01*
X323953Y452083D01*
X323953Y408083D01*
G37*
G36*
X275952Y347883D02*
G01*
X275952Y391884D01*
X323953Y391884D01*
X323953Y347883D01*
G37*
G36*
X-304047Y432883D02*
G01*
X-304047Y476884D01*
X-256046Y476884D01*
X-256046Y432883D01*
G37*
G36*
X-304047Y493083D02*
G01*
X-304047Y537083D01*
X-256046Y537083D01*
X-256046Y493083D01*
G37*
G36*
X1320252Y209783D02*
G01*
X1320252Y245284D01*
X1359753Y245284D01*
X1359753Y209783D01*
G37*
G36*
X1320252Y154684D02*
G01*
X1320252Y190183D01*
X1359753Y190183D01*
X1359753Y154684D01*
G37*
G36*
X1320252Y9684D02*
G01*
X1320252Y45183D01*
X1359753Y45183D01*
X1359753Y9684D01*
G37*
G36*
X1320252Y64783D02*
G01*
X1320252Y100284D01*
X1359753Y100284D01*
X1359753Y64783D01*
G37*
G36*
X1408953Y136784D02*
G01*
X1408953Y223483D01*
X1464152Y223483D01*
X1464152Y136784D01*
G37*
G36*
X1475852Y136784D02*
G01*
X1475852Y223483D01*
X1531053Y223483D01*
X1531053Y136784D01*
G37*
G36*
X1475852Y26484D02*
G01*
X1475852Y113283D01*
X1531053Y113283D01*
X1531053Y26484D01*
G37*
G36*
X1408953Y26484D02*
G01*
X1408953Y113283D01*
X1446053Y113283D01*
X1464152Y95183D01*
X1464152Y26484D01*
G37*
G36*
X550952Y408083D02*
G01*
X550952Y452083D01*
X598953Y452083D01*
X598953Y408083D01*
G37*
G36*
X550952Y347883D02*
G01*
X550952Y391884D01*
X598953Y391884D01*
X598953Y347883D01*
G37*
G36*
X490952Y408083D02*
G01*
X490952Y452083D01*
X538953Y452083D01*
X538953Y408083D01*
G37*
G36*
X490952Y347883D02*
G01*
X490952Y391884D01*
X538953Y391884D01*
X538953Y347883D01*
G37*
G36*
X339353Y403883D02*
G01*
X339353Y451284D01*
X390652Y451284D01*
X390652Y403883D01*
G37*
G36*
X339353Y348784D02*
G01*
X339353Y396084D01*
X390652Y396084D01*
X390652Y348784D01*
G37*
G36*
X629353Y403883D02*
G01*
X629353Y451284D01*
X680652Y451284D01*
X680652Y403883D01*
G37*
G36*
X629353Y348784D02*
G01*
X629353Y396084D01*
X680652Y396084D01*
X680652Y348784D01*
G37*
G36*
X539353Y-281215D02*
G01*
X539353Y-233915D01*
X590652Y-233915D01*
X590652Y-281215D01*
G37*
G36*
X539353Y-226116D02*
G01*
X539353Y-178715D01*
X590652Y-178715D01*
X590652Y-226116D01*
G37*
G36*
X795952Y-371916D02*
G01*
X795952Y-327916D01*
X843953Y-327916D01*
X843953Y-371916D01*
G37*
G36*
X795952Y-432116D02*
G01*
X795952Y-388116D01*
X843953Y-388116D01*
X843953Y-432116D01*
G37*
G36*
X734353Y-431215D02*
G01*
X734353Y-383915D01*
X785652Y-383915D01*
X785652Y-431215D01*
G37*
G36*
X734353Y-376116D02*
G01*
X734353Y-328715D01*
X785652Y-328715D01*
X785652Y-376116D01*
G37*
G36*
X704353Y403883D02*
G01*
X704353Y451284D01*
X755652Y451284D01*
X755652Y403883D01*
G37*
G36*
X704353Y348784D02*
G01*
X704353Y396084D01*
X755652Y396084D01*
X755652Y348784D01*
G37*
G36*
X-3831747Y468483D02*
G01*
X-3831747Y578784D01*
X-3721347Y578784D01*
X-3721347Y468483D01*
G37*
G36*
X-4310147Y551084D02*
G01*
X-4310147Y661484D01*
X-4199747Y661484D01*
X-4199747Y551084D01*
G37*
G36*
X-3976147Y641484D02*
G01*
X-3976147Y716484D01*
X-3924147Y716484D01*
X-3924147Y641484D01*
G37*
G36*
X-3830147Y641484D02*
G01*
X-3830147Y716484D01*
X-3778146Y716484D01*
X-3778146Y641484D01*
G37*
G36*
X-3083747Y468483D02*
G01*
X-3083747Y578784D01*
X-2973347Y578784D01*
X-2973347Y468483D01*
G37*
G36*
X-3562047Y551084D02*
G01*
X-3562047Y661484D01*
X-3451747Y661484D01*
X-3451747Y551084D01*
G37*
G36*
X-3228146Y641484D02*
G01*
X-3228146Y716484D01*
X-3176147Y716484D01*
X-3176147Y641484D01*
G37*
G36*
X-3082147Y641484D02*
G01*
X-3082147Y716484D01*
X-3030147Y716484D01*
X-3030147Y641484D01*
G37*
G36*
X-2335646Y468483D02*
G01*
X-2335646Y578784D01*
X-2225347Y578784D01*
X-2225347Y468483D01*
G37*
G36*
X-2814047Y551084D02*
G01*
X-2814047Y661484D01*
X-2703647Y661484D01*
X-2703647Y551084D01*
G37*
G36*
X-2480147Y641484D02*
G01*
X-2480147Y716484D01*
X-2428146Y716484D01*
X-2428146Y641484D01*
G37*
G36*
X-2334147Y641484D02*
G01*
X-2334147Y716484D01*
X-2282147Y716484D01*
X-2282147Y641484D01*
G37*
G36*
X-1587647Y468483D02*
G01*
X-1587647Y578784D01*
X-1477346Y578784D01*
X-1477346Y468483D01*
G37*
G36*
X-2066046Y551084D02*
G01*
X-2066046Y661484D01*
X-1955646Y661484D01*
X-1955646Y551084D01*
G37*
G36*
X-1732047Y641484D02*
G01*
X-1732047Y716484D01*
X-1680047Y716484D01*
X-1680047Y641484D01*
G37*
G36*
X-1586046Y641484D02*
G01*
X-1586046Y716484D01*
X-1534047Y716484D01*
X-1534047Y641484D01*
G37*
G36*
X-839647Y468483D02*
G01*
X-839647Y578784D01*
X-729247Y578784D01*
X-729247Y468483D01*
G37*
G36*
X-1317947Y551084D02*
G01*
X-1317947Y661484D01*
X-1207647Y661484D01*
X-1207647Y551084D01*
G37*
G36*
X-984047Y641484D02*
G01*
X-984047Y716484D01*
X-932047Y716484D01*
X-932047Y641484D01*
G37*
G36*
X-838047Y641484D02*
G01*
X-838047Y716484D01*
X-786046Y716484D01*
X-786046Y641484D01*
G37*
G36*
X1404452Y468483D02*
G01*
X1404452Y578784D01*
X1514852Y578784D01*
X1514852Y468483D01*
G37*
G36*
X926152Y551084D02*
G01*
X926152Y661484D01*
X1036453Y661484D01*
X1036453Y551084D01*
G37*
G36*
X1260052Y641484D02*
G01*
X1260052Y716484D01*
X1312052Y716484D01*
X1312052Y641484D01*
G37*
G36*
X1406053Y641484D02*
G01*
X1406053Y716484D01*
X1458053Y716484D01*
X1458053Y641484D01*
G37*
G36*
X2152452Y468483D02*
G01*
X2152452Y578784D01*
X2262852Y578784D01*
X2262852Y468483D01*
G37*
G36*
X1674152Y551084D02*
G01*
X1674152Y661484D01*
X1784552Y661484D01*
X1784552Y551084D01*
G37*
G36*
X2008053Y641484D02*
G01*
X2008053Y716484D01*
X2060052Y716484D01*
X2060052Y641484D01*
G37*
G36*
X2154052Y641484D02*
G01*
X2154052Y716484D01*
X2206053Y716484D01*
X2206053Y641484D01*
G37*
G36*
X2900553Y468483D02*
G01*
X2900553Y578784D01*
X3010852Y578784D01*
X3010852Y468483D01*
G37*
G36*
X2422152Y551084D02*
G01*
X2422152Y661484D01*
X2532552Y661484D01*
X2532552Y551084D01*
G37*
G36*
X2756152Y641484D02*
G01*
X2756152Y716484D01*
X2808152Y716484D01*
X2808152Y641484D01*
G37*
G36*
X2902152Y641484D02*
G01*
X2902152Y716484D01*
X2954152Y716484D01*
X2954152Y641484D01*
G37*
G36*
X3648553Y468483D02*
G01*
X3648553Y578784D01*
X3758953Y578784D01*
X3758953Y468483D01*
G37*
G36*
X3170252Y551084D02*
G01*
X3170252Y661484D01*
X3280553Y661484D01*
X3280553Y551084D01*
G37*
G36*
X3504152Y641484D02*
G01*
X3504152Y716484D01*
X3556152Y716484D01*
X3556152Y641484D01*
G37*
G36*
X3650153Y641484D02*
G01*
X3650153Y716484D01*
X3702152Y716484D01*
X3702152Y641484D01*
G37*
G36*
X4396552Y468483D02*
G01*
X4396552Y578784D01*
X4506952Y578784D01*
X4506952Y468483D01*
G37*
G36*
X3918252Y551084D02*
G01*
X3918252Y661484D01*
X4028652Y661484D01*
X4028652Y551084D01*
G37*
G36*
X4252152Y641484D02*
G01*
X4252152Y716484D01*
X4304152Y716484D01*
X4304152Y641484D01*
G37*
G36*
X4398152Y641484D02*
G01*
X4398152Y716484D01*
X4450153Y716484D01*
X4450153Y641484D01*
G37*
G36*
X-4506947Y-578816D02*
G01*
X-4506947Y-468415D01*
X-4396547Y-468415D01*
X-4396547Y-578816D01*
G37*
G36*
X-4028647Y-661516D02*
G01*
X-4028647Y-551116D01*
X-3918247Y-551116D01*
X-3918247Y-661516D01*
G37*
G36*
X-4304147Y-716516D02*
G01*
X-4304147Y-641516D01*
X-4252147Y-641516D01*
X-4252147Y-716516D01*
G37*
G36*
X-4450147Y-716516D02*
G01*
X-4450147Y-641516D01*
X-4398146Y-641516D01*
X-4398146Y-716516D01*
G37*
G36*
X-3758946Y-578816D02*
G01*
X-3758946Y-468415D01*
X-3648546Y-468415D01*
X-3648546Y-578816D01*
G37*
G36*
X-3280547Y-661516D02*
G01*
X-3280547Y-551116D01*
X-3170246Y-551116D01*
X-3170246Y-661516D01*
G37*
G36*
X-3556147Y-716516D02*
G01*
X-3556147Y-641516D01*
X-3504147Y-641516D01*
X-3504147Y-716516D01*
G37*
G36*
X-3702147Y-716516D02*
G01*
X-3702147Y-641516D01*
X-3650147Y-641516D01*
X-3650147Y-716516D01*
G37*
G36*
X-3010847Y-578816D02*
G01*
X-3010847Y-468415D01*
X-2900547Y-468415D01*
X-2900547Y-578816D01*
G37*
G36*
X-2532547Y-661516D02*
G01*
X-2532547Y-551116D01*
X-2422147Y-551116D01*
X-2422147Y-661516D01*
G37*
G36*
X-2808146Y-716516D02*
G01*
X-2808146Y-641516D01*
X-2756147Y-641516D01*
X-2756147Y-716516D01*
G37*
G36*
X-2954147Y-716516D02*
G01*
X-2954147Y-641516D01*
X-2902147Y-641516D01*
X-2902147Y-716516D01*
G37*
G36*
X-2262847Y-578816D02*
G01*
X-2262847Y-468415D01*
X-2152547Y-468415D01*
X-2152547Y-578816D01*
G37*
G36*
X-1784547Y-661516D02*
G01*
X-1784547Y-551116D01*
X-1674147Y-551116D01*
X-1674147Y-661516D01*
G37*
G36*
X-2060047Y-716516D02*
G01*
X-2060047Y-641516D01*
X-2008047Y-641516D01*
X-2008047Y-716516D01*
G37*
G36*
X-2206046Y-716516D02*
G01*
X-2206046Y-641516D01*
X-2154047Y-641516D01*
X-2154047Y-716516D01*
G37*
G36*
X-1514846Y-578816D02*
G01*
X-1514846Y-468415D01*
X-1404447Y-468415D01*
X-1404447Y-578816D01*
G37*
G36*
X-1036446Y-661516D02*
G01*
X-1036446Y-551116D01*
X-926147Y-551116D01*
X-926147Y-661516D01*
G37*
G36*
X-1312047Y-716516D02*
G01*
X-1312047Y-641516D01*
X-1260047Y-641516D01*
X-1260047Y-716516D01*
G37*
G36*
X-1458047Y-716516D02*
G01*
X-1458047Y-641516D01*
X-1406046Y-641516D01*
X-1406046Y-716516D01*
G37*
G36*
X729252Y-578816D02*
G01*
X729252Y-468415D01*
X839652Y-468415D01*
X839652Y-578816D01*
G37*
G36*
X1207653Y-661516D02*
G01*
X1207653Y-551116D01*
X1317952Y-551116D01*
X1317952Y-661516D01*
G37*
G36*
X932052Y-716516D02*
G01*
X932052Y-641516D01*
X984052Y-641516D01*
X984052Y-716516D01*
G37*
G36*
X786053Y-716516D02*
G01*
X786053Y-641516D01*
X838052Y-641516D01*
X838052Y-716516D01*
G37*
G36*
X1477253Y-578816D02*
G01*
X1477253Y-468415D01*
X1587653Y-468415D01*
X1587653Y-578816D01*
G37*
G36*
X1955652Y-661516D02*
G01*
X1955652Y-551116D01*
X2066053Y-551116D01*
X2066053Y-661516D01*
G37*
G36*
X1680052Y-716516D02*
G01*
X1680052Y-641516D01*
X1732052Y-641516D01*
X1732052Y-716516D01*
G37*
G36*
X1534052Y-716516D02*
G01*
X1534052Y-641516D01*
X1586053Y-641516D01*
X1586053Y-716516D01*
G37*
G36*
X2225352Y-578816D02*
G01*
X2225352Y-468415D01*
X2335652Y-468415D01*
X2335652Y-578816D01*
G37*
G36*
X2703652Y-661516D02*
G01*
X2703652Y-551116D01*
X2814052Y-551116D01*
X2814052Y-661516D01*
G37*
G36*
X2428152Y-716516D02*
G01*
X2428152Y-641516D01*
X2480153Y-641516D01*
X2480153Y-716516D01*
G37*
G36*
X2282152Y-716516D02*
G01*
X2282152Y-641516D01*
X2334152Y-641516D01*
X2334152Y-716516D01*
G37*
G36*
X2973352Y-578816D02*
G01*
X2973352Y-468415D01*
X3083752Y-468415D01*
X3083752Y-578816D01*
G37*
G36*
X3451752Y-661516D02*
G01*
X3451752Y-551116D01*
X3562052Y-551116D01*
X3562052Y-661516D01*
G37*
G36*
X3176152Y-716516D02*
G01*
X3176152Y-641516D01*
X3228152Y-641516D01*
X3228152Y-716516D01*
G37*
G36*
X3030153Y-716516D02*
G01*
X3030153Y-641516D01*
X3082152Y-641516D01*
X3082152Y-716516D01*
G37*
G36*
X3721352Y-578816D02*
G01*
X3721352Y-468415D01*
X3831752Y-468415D01*
X3831752Y-578816D01*
G37*
G36*
X4199753Y-661516D02*
G01*
X4199753Y-551116D01*
X4310052Y-551116D01*
X4310052Y-661516D01*
G37*
G36*
X3924152Y-716516D02*
G01*
X3924152Y-641516D01*
X3976152Y-641516D01*
X3976152Y-716516D01*
G37*
G36*
X3778152Y-716516D02*
G01*
X3778152Y-641516D01*
X3830153Y-641516D01*
X3830153Y-716516D01*
G37*
G36*
X-4506947Y-1326815D02*
G01*
X-4506947Y-1216516D01*
X-4396547Y-1216516D01*
X-4396547Y-1326815D01*
G37*
G36*
X-4028647Y-1409515D02*
G01*
X-4028647Y-1299115D01*
X-3918247Y-1299115D01*
X-3918247Y-1409515D01*
G37*
G36*
X-4304147Y-1464515D02*
G01*
X-4304147Y-1389515D01*
X-4252147Y-1389515D01*
X-4252147Y-1464515D01*
G37*
G36*
X-4450147Y-1464515D02*
G01*
X-4450147Y-1389515D01*
X-4398146Y-1389515D01*
X-4398146Y-1464515D01*
G37*
G36*
X-3758946Y-1326815D02*
G01*
X-3758946Y-1216516D01*
X-3648546Y-1216516D01*
X-3648546Y-1326815D01*
G37*
G36*
X-3280547Y-1409515D02*
G01*
X-3280547Y-1299115D01*
X-3170246Y-1299115D01*
X-3170246Y-1409515D01*
G37*
G36*
X-3556147Y-1464515D02*
G01*
X-3556147Y-1389515D01*
X-3504147Y-1389515D01*
X-3504147Y-1464515D01*
G37*
G36*
X-3702147Y-1464515D02*
G01*
X-3702147Y-1389515D01*
X-3650147Y-1389515D01*
X-3650147Y-1464515D01*
G37*
G36*
X-3010847Y-1326815D02*
G01*
X-3010847Y-1216516D01*
X-2900547Y-1216516D01*
X-2900547Y-1326815D01*
G37*
G36*
X-2532547Y-1409515D02*
G01*
X-2532547Y-1299115D01*
X-2422147Y-1299115D01*
X-2422147Y-1409515D01*
G37*
G36*
X-2808146Y-1464515D02*
G01*
X-2808146Y-1389515D01*
X-2756147Y-1389515D01*
X-2756147Y-1464515D01*
G37*
G36*
X-2954147Y-1464515D02*
G01*
X-2954147Y-1389515D01*
X-2902147Y-1389515D01*
X-2902147Y-1464515D01*
G37*
G36*
X-2262847Y-1326815D02*
G01*
X-2262847Y-1216516D01*
X-2152547Y-1216516D01*
X-2152547Y-1326815D01*
G37*
G36*
X-1784547Y-1409515D02*
G01*
X-1784547Y-1299115D01*
X-1674147Y-1299115D01*
X-1674147Y-1409515D01*
G37*
G36*
X-2060047Y-1464515D02*
G01*
X-2060047Y-1389515D01*
X-2008047Y-1389515D01*
X-2008047Y-1464515D01*
G37*
G36*
X-2206046Y-1464515D02*
G01*
X-2206046Y-1389515D01*
X-2154047Y-1389515D01*
X-2154047Y-1464515D01*
G37*
G36*
X-1514846Y-1326815D02*
G01*
X-1514846Y-1216516D01*
X-1404447Y-1216516D01*
X-1404447Y-1326815D01*
G37*
G36*
X-1036446Y-1409515D02*
G01*
X-1036446Y-1299115D01*
X-926147Y-1299115D01*
X-926147Y-1409515D01*
G37*
G36*
X-1312047Y-1464515D02*
G01*
X-1312047Y-1389515D01*
X-1260047Y-1389515D01*
X-1260047Y-1464515D01*
G37*
G36*
X-1458047Y-1464515D02*
G01*
X-1458047Y-1389515D01*
X-1406046Y-1389515D01*
X-1406046Y-1464515D01*
G37*
G36*
X-766747Y-1326815D02*
G01*
X-766747Y-1216516D01*
X-656446Y-1216516D01*
X-656446Y-1326815D01*
G37*
G36*
X-288447Y-1409515D02*
G01*
X-288447Y-1299115D01*
X-178047Y-1299115D01*
X-178047Y-1409515D01*
G37*
G36*
X-564047Y-1464515D02*
G01*
X-564047Y-1389515D01*
X-512047Y-1389515D01*
X-512047Y-1464515D01*
G37*
G36*
X-710047Y-1464515D02*
G01*
X-710047Y-1389515D01*
X-658047Y-1389515D01*
X-658047Y-1464515D01*
G37*
G36*
X-18747Y-1326815D02*
G01*
X-18747Y-1216516D01*
X91552Y-1216516D01*
X91552Y-1326815D01*
G37*
G36*
X459552Y-1409515D02*
G01*
X459552Y-1299115D01*
X569952Y-1299115D01*
X569952Y-1409515D01*
G37*
G36*
X184052Y-1464515D02*
G01*
X184052Y-1389515D01*
X236053Y-1389515D01*
X236053Y-1464515D01*
G37*
G36*
X38052Y-1464515D02*
G01*
X38052Y-1389515D01*
X90052Y-1389515D01*
X90052Y-1464515D01*
G37*
G36*
X729252Y-1326815D02*
G01*
X729252Y-1216516D01*
X839652Y-1216516D01*
X839652Y-1326815D01*
G37*
G36*
X1207653Y-1409515D02*
G01*
X1207653Y-1299115D01*
X1317952Y-1299115D01*
X1317952Y-1409515D01*
G37*
G36*
X932052Y-1464515D02*
G01*
X932052Y-1389515D01*
X984052Y-1389515D01*
X984052Y-1464515D01*
G37*
G36*
X786053Y-1464515D02*
G01*
X786053Y-1389515D01*
X838052Y-1389515D01*
X838052Y-1464515D01*
G37*
G36*
X1477253Y-1326815D02*
G01*
X1477253Y-1216516D01*
X1587653Y-1216516D01*
X1587653Y-1326815D01*
G37*
G36*
X1955652Y-1409515D02*
G01*
X1955652Y-1299115D01*
X2066053Y-1299115D01*
X2066053Y-1409515D01*
G37*
G36*
X1680052Y-1464515D02*
G01*
X1680052Y-1389515D01*
X1732052Y-1389515D01*
X1732052Y-1464515D01*
G37*
G36*
X1534052Y-1464515D02*
G01*
X1534052Y-1389515D01*
X1586053Y-1389515D01*
X1586053Y-1464515D01*
G37*
G36*
X2225352Y-1326815D02*
G01*
X2225352Y-1216516D01*
X2335652Y-1216516D01*
X2335652Y-1326815D01*
G37*
G36*
X2703652Y-1409515D02*
G01*
X2703652Y-1299115D01*
X2814052Y-1299115D01*
X2814052Y-1409515D01*
G37*
G36*
X2428152Y-1464515D02*
G01*
X2428152Y-1389515D01*
X2480153Y-1389515D01*
X2480153Y-1464515D01*
G37*
G36*
X2282152Y-1464515D02*
G01*
X2282152Y-1389515D01*
X2334152Y-1389515D01*
X2334152Y-1464515D01*
G37*
G36*
X2973352Y-1326815D02*
G01*
X2973352Y-1216516D01*
X3083752Y-1216516D01*
X3083752Y-1326815D01*
G37*
G36*
X3451752Y-1409515D02*
G01*
X3451752Y-1299115D01*
X3562052Y-1299115D01*
X3562052Y-1409515D01*
G37*
G36*
X3176152Y-1464515D02*
G01*
X3176152Y-1389515D01*
X3228152Y-1389515D01*
X3228152Y-1464515D01*
G37*
G36*
X3030153Y-1464515D02*
G01*
X3030153Y-1389515D01*
X3082152Y-1389515D01*
X3082152Y-1464515D01*
G37*
G36*
X3721352Y-1326815D02*
G01*
X3721352Y-1216516D01*
X3831752Y-1216516D01*
X3831752Y-1326815D01*
G37*
G36*
X4199753Y-1409515D02*
G01*
X4199753Y-1299115D01*
X4310052Y-1299115D01*
X4310052Y-1409515D01*
G37*
G36*
X3924152Y-1464515D02*
G01*
X3924152Y-1389515D01*
X3976152Y-1389515D01*
X3976152Y-1464515D01*
G37*
G36*
X3778152Y-1464515D02*
G01*
X3778152Y-1389515D01*
X3830153Y-1389515D01*
X3830153Y-1464515D01*
G37*
G36*
X-397746Y684983D02*
G01*
X-397746Y811084D01*
X-310947Y811084D01*
X-310947Y684983D01*
G37*
G36*
X-515847Y684983D02*
G01*
X-515847Y811084D01*
X-429047Y811084D01*
X-429047Y684983D01*
G37*
D46*
G01*
X4438193Y-274016D03*
G01*
X4438193Y-374016D03*
G01*
X4438193Y-474016D03*
G01*
X-3225397Y-787406D03*
G01*
X-3325397Y-787406D03*
G01*
X-3125397Y-787406D03*
G01*
X-3025397Y-787406D03*
G01*
X-2925397Y-787406D03*
G01*
X2758863Y-787406D03*
G01*
X2658863Y-787406D03*
G01*
X2558863Y-787406D03*
G01*
X2458863Y-787406D03*
G01*
X2858863Y-787406D03*
G01*
X2958863Y-787406D03*
G01*
X4438193Y-1122046D03*
G01*
X4438193Y-1222046D03*
G36*
X4405153Y-1055016D02*
G01*
X4405153Y-989016D01*
X4471152Y-989016D01*
X4471152Y-1055016D01*
G37*
G36*
X1821952Y-33015D02*
G01*
X1821952Y32984D01*
X1887952Y32984D01*
X1887952Y-33015D01*
G37*
G01*
X1955002Y3D03*
G01*
X2055002Y3D03*
G01*
X2155002Y3D03*
G01*
X2255002Y3D03*
G01*
X2355002Y3D03*
G01*
X-2825397Y-787406D03*
G01*
X-4438187Y374014D03*
G01*
X-4438187Y274014D03*
G36*
X-4471147Y440983D02*
G01*
X-4471147Y506984D01*
X-4405147Y506984D01*
X-4405147Y440983D01*
G37*
M02*
