M48
INCH,LZ
;FILE_FORMAT=2:4
;TYPE=NON_PLATED
;Layer: Drill NPTH
;EasyEDA v6.4.25, 2022-01-27T13:57:17+08:00
;c860a57ab6e24c20a85ed983e1d1ab15,3b57db4a37c74da5bb1b5bc11455ab19,10
;Gerber Generator version 0.2
;Holesize 1 = 0.0300 inch
T01C0.0300
;Holesize 2 = 0.0590 inch
T02C0.0590
;Holesize 3 = 0.0830 inch
T03C0.0830
;Holesize 4 = 0.0870 inch
T04C0.0870
;Holesize 5 = 0.0910 inch
T05C0.0910
;Holesize 6 = 0.0990 inch
T06C0.0990
;Holesize 7 = 0.1220 inch
T07C0.1220
;Holesize 8 = 0.1380 inch
T08C0.1380
;Holesize 9 = 0.3540 inch
T09C0.3540
%
G05
G90
T01
X001138Y005084
X-001138Y005084
T02
X003740Y-002756
X-003741Y-002756
T03
X-043307Y003740
X-038976Y003740
X-035827Y003740
X-031496Y003740
X-028346Y003740
X-024016Y003740
X-020866Y003740
X-016535Y003740
X-013386Y003740
X-009055Y003740
X009055Y003740
X013386Y003740
X016536Y003740
X020866Y003740
X024016Y003740
X028347Y003740
X031496Y003740
X035827Y003740
X038976Y003740
X043307Y003740
X-038976Y-003740
X-043307Y-003740
X-031496Y-003740
X-035827Y-003740
X-024016Y-003740
X-028346Y-003740
X-016535Y-003740
X-020866Y-003740
X-009055Y-003740
X-013386Y-003740
X013386Y-003740
X009055Y-003740
X020866Y-003740
X016535Y-003740
X028346Y-003740
X024016Y-003740
X035827Y-003740
X031496Y-003740
X043307Y-003740
X038976Y-003740
X-038976Y-011220
X-043307Y-011220
X-031496Y-011220
X-035827Y-011220
X-024016Y-011220
X-028346Y-011220
X-016535Y-011220
X-020866Y-011220
X-009055Y-011220
X-013386Y-011220
X-001575Y-011220
X-005906Y-011220
X005905Y-011220
X001575Y-011220
X013386Y-011220
X009055Y-011220
X020866Y-011220
X016535Y-011220
X028346Y-011220
X024016Y-011220
X035827Y-011220
X031496Y-011220
X043307Y-011220
X038976Y-011220
T04
X-044331Y000000G85X-045433Y000000
X-044331Y-007795G85X-045433Y-007795
X045433Y000000G85X044331Y000000
X045433Y-007795G85X044331Y-007795
X-037717Y-014409G85X-037717Y-015512
X-037087Y008032G85X-037087Y006929
X-015276Y-014409G85X-015276Y-015512
X-014646Y008032G85X-014646Y006929
X014646Y-014409G85X014646Y-015512
X015276Y008032G85X015276Y006929
X037087Y-014409G85X037087Y-015512
X037717Y008032G85X037717Y006929
X-029921Y000000
X-022441Y-007480
X022244Y-007480
X029921Y000000
T05
X006299Y006299
X-006299Y006299
X-006299Y-001575
X006299Y-006299
X-006299Y-006299
X000000Y-006299
T06
X003740Y-000000
X-003741Y-000000
X004133Y-003937
X-004134Y-003937
X-004134Y-001575
X004133Y-001575
T07
X-039173Y005236
X-041142Y006063
X-031693Y005236
X-033661Y006063
X-024213Y005236
X-026181Y006063
X-016732Y005236
X-018701Y006063
X-009252Y005236
X-011220Y006063
X013189Y005236
X011220Y006063
X020669Y005236
X018701Y006063
X028150Y005236
X026181Y006063
X035630Y005236
X033661Y006063
X043110Y005236
X041142Y006063
X-043110Y-005236
X-041142Y-006063
X-035630Y-005236
X-033661Y-006063
X-028150Y-005236
X-026181Y-006063
X-020669Y-005236
X-018701Y-006063
X-013189Y-005236
X-011220Y-006063
X009252Y-005236
X011220Y-006063
X016732Y-005236
X018701Y-006063
X024213Y-005236
X026181Y-006063
X031693Y-005236
X033661Y-006063
X039173Y-005236
X041142Y-006063
X-041142Y-013543
X-043110Y-012717
X-033661Y-013543
X-035630Y-012717
X-026181Y-013543
X-028150Y-012717
X-018701Y-013543
X-020669Y-012717
X-011220Y-013543
X-013189Y-012717
X-003740Y-013543
X-005709Y-012717
X003740Y-013543
X001772Y-012717
X011220Y-013543
X009252Y-012717
X018701Y-013543
X016732Y-012717
X026181Y-013543
X024213Y-012717
X033661Y-013543
X031693Y-012717
X041142Y-013543
X039173Y-012717
T08
X-041142Y003740
X-033661Y003740
X-026181Y003740
X-018701Y003740
X-011220Y003740
X011220Y003740
X018701Y003740
X026181Y003740
X033661Y003740
X041142Y003740
X-041142Y-003740
X-033661Y-003740
X-026181Y-003740
X-018701Y-003740
X-011220Y-003740
X011220Y-003740
X018701Y-003740
X026181Y-003740
X033661Y-003740
X041142Y-003740
X-041142Y-011220
X-033661Y-011220
X-026181Y-011220
X-018701Y-011220
X-011220Y-011220
X-003740Y-011220
X003740Y-011220
X011220Y-011220
X018701Y-011220
X026181Y-011220
X033661Y-011220
X041142Y-011220
T09
X-000000Y-000000
M30
