M48
INCH,LZ
;FILE_FORMAT=2:4
;TYPE=PLATED
;Layer: Drill PTH
;EasyEDA v6.4.25, 2022-01-27T13:57:17+08:00
;c860a57ab6e24c20a85ed983e1d1ab15,3b57db4a37c74da5bb1b5bc11455ab19,10
;Gerber Generator version 0.2
;Holesize 1 = 0.0120 inch
T01C0.0120
;Holesize 2 = 0.0320 inch
T02C0.0320
;Holesize 3 = 0.0350 inch
T03C0.0350
;Holesize 4 = 0.0590 inch
T04C0.0590
%
G05
G90
T01
X000000Y005550
X000400Y004900
X007300Y003724
X002650Y-010500
X002650Y-004250
X-039502Y006790
X-032021Y006790
X-024541Y006790
X-017061Y006790
X-009580Y006790
X012861Y006790
X020341Y006790
X027821Y006790
X035302Y006790
X042782Y006790
X039502Y-006790
X032022Y-006790
X024541Y-006790
X017061Y-006790
X009581Y-006790
X-012860Y-006790
X-020341Y-006790
X-027821Y-006790
X-035301Y-006790
X-042782Y-006790
X-042782Y-014270
X-035301Y-014270
X-027821Y-014270
X-020341Y-014270
X-012860Y-014270
X-005380Y-014270
X002100Y-014270
X009581Y-014270
X017061Y-014270
X024541Y-014270
X032022Y-014270
X039502Y-014270
X-000400Y-010050
X000400Y-010050
X-006950Y-002800
X-002049Y-004250
X-003563Y-005906
X002061Y-004250
X002050Y-005700
X-003400Y005950
X-011300Y000650
X-010850Y000650
X012000Y000200
X010850Y000500
X007650Y002750
X009813Y006063
X007900Y002950
X017294Y006063
X008150Y003200
X024774Y006063
X008400Y003450
X032254Y006063
X009950Y003150
X039734Y000755
X012800Y000750
X014405Y-002000
X010201Y-014600
X-042549Y000870
X010250Y000150
X-035069Y000584
X009850Y000100
X-027589Y000377
X009750Y-000250
X-020108Y000100
X009400Y-000350
X-015650Y-000560
X009400Y-000750
X-002506Y003144
X003563Y-005906
X006600Y-002000
X005900Y-004300
X007550Y-000600
X-016950Y-008750
X-014700Y-008100
X043000Y-009121
X043000Y-008200
X012628Y-007766
X042550Y-007050
X015400Y-000100
X000007Y006521
X-001000Y006000
X-002600Y006000
X-002280Y004549
X-004000Y005000
X-006000Y005000
X-007000Y004000
X-010000Y003000
X-013000Y003000
X-013000Y005000
X-015000Y003000
X-017000Y003000
X-019000Y002700
X-021000Y003000
X-023000Y003000
X-022000Y004000
X-021000Y005000
X-022000Y006000
X-025000Y003000
X-027000Y003000
X-029000Y003000
X-029000Y005000
X-030000Y004000
X-031000Y003000
X-033000Y003000
X-034000Y002700
X-037000Y003000
X-039000Y003000
X-038000Y004000
X-036000Y006000
X-041000Y002700
X-040000Y004000
X-041000Y005000
X-033000Y005000
X-043000Y003000
X-044000Y006000
X-043000Y007000
X-041000Y007000
X-043000Y-001000
X-044000Y-002000
X-043000Y-003000
X-044000Y-004000
X-042000Y-004000
X-041000Y-002650
X-039000Y-003000
X-040000Y-004000
X-041000Y-005000
X-042000Y-006000
X-042000Y-008000
X-043000Y-009000
X-044000Y-010000
X-040000Y-008000
X-042000Y-012000
X-040000Y-012000
X-038000Y-012000
X-037000Y-011000
X-037000Y-009000
X-038000Y-008000
X-036000Y-008150
X-034449Y-009121
X-030000Y-009000
X-031000Y-009600
X-030000Y-011000
X-031000Y-012000
X-031000Y-014000
X003000Y006150
X005000Y006150
X006000Y005000
X004000Y005000
X003000Y005000
X005000Y005000
X004000Y006150
X007000Y005000
X006000Y003000
X006500Y002000
X005600Y-001400
X008600Y-001600
X009450Y-001600
X008600Y-000700
X012350Y-000450
X014000Y000000
X015000Y000000
X015000Y-000700
X017000Y002000
X017000Y003000
X013000Y-003000
X012000Y-003000
X013000Y-002000
X005000Y-002000
X005000Y-003000
X005000Y-001000
X007000Y-005000
X006000Y-005500
X008650Y-004450
X004450Y-006650
X003400Y-006800
X004000Y-008000
X003000Y-008000
X006000Y-008000
X008000Y-008000
X009750Y-008000
X012000Y-008000
X014000Y-008150
X016000Y-008150
X018000Y-008150
X019800Y-008150
X020550Y-008150
X020550Y-008800
X023000Y-009000
X024000Y-009000
X027000Y-008500
X025394Y-009121
X029000Y-008700
X031000Y-009000
X032000Y-009000
X032874Y-009121
X033000Y-008150
X031000Y-008200
X032000Y-007450
X034000Y-007450
X036000Y-008500
X038000Y-008500
X040000Y-008450
X036000Y-007450
X038000Y-007450
X040000Y-007450
X038000Y-011000
X040000Y-011000
X044000Y-013000
X044000Y-014000
X043000Y-014550
X043000Y-012000
X040150Y-013000
X041000Y-012350
X037000Y-012000
X036000Y-013000
X034000Y-012350
X032500Y-011500
X030000Y-011000
X029000Y-012000
X029000Y-014000
X027000Y-012450
X025400Y-012450
X025000Y-011000
X023000Y-011000
X022000Y-012000
X021000Y-013000
X022000Y-014000
X019650Y-012000
X017750Y-013000
X017750Y-011000
X015700Y-011000
X014500Y-012000
X013600Y-013000
X012000Y-012450
X009850Y-011450
X008000Y-011000
X007000Y-012000
X006000Y-013000
X007000Y-014000
X003000Y-012450
X002450Y-011000
X000000Y-011450
X-001000Y-013000
X000000Y-014000
X-002000Y-012000
X-004000Y-012500
X-005000Y-011000
X-007000Y-011000
X-008000Y-012000
X-009000Y-013000
X-008000Y-014000
X-010250Y-012000
X-012000Y-012450
X-012450Y-011000
X-014300Y-011000
X-015500Y-012000
X-016350Y-013000
X-018000Y-012250
X-019650Y-012550
X-020000Y-011000
X-022000Y-011000
X-023000Y-012000
X-024000Y-013000
X-023000Y-014000
X-025200Y-012000
X-027000Y-012550
X-027450Y-011000
X-031800Y-012600
X-034000Y-012600
X-035000Y-011000
X-038850Y-013000
X-042500Y-010500
X-028000Y-009000
X-026000Y-008000
X-024000Y-008000
X-022000Y-009000
X-024000Y-009600
X-021000Y-009000
X-021000Y-008000
X-019000Y-008000
X-015000Y-009000
X-016000Y-008000
X-014000Y-008000
X-013000Y-009150
X-012000Y-008000
X-010300Y-008000
X-008000Y-008000
X-007000Y-009000
X-006000Y-008000
X-004000Y-008000
X-002000Y-008000
X-001000Y-008750
X000000Y-008000
X001000Y-009000
X002000Y-008000
X043700Y-010000
X042000Y-008650
X043000Y-008650
X043000Y-010500
X044000Y-007000
X044000Y-005550
X043000Y-004550
X043000Y-007000
X042000Y-005000
X040150Y-005000
X040000Y-003000
X043000Y-002000
X044000Y-001000
X044000Y001000
X042650Y000000
X041000Y000000
X042000Y-001000
X042000Y001000
X039000Y000000
X040000Y-000750
X038000Y-000750
X037000Y000000
X036000Y-000750
X035000Y000000
X034000Y-000750
X033000Y000000
X032000Y-000750
X031000Y000000
X030000Y-000750
X029000Y000000
X028000Y-000750
X027000Y000000
X026000Y-000750
X025150Y000000
X024000Y-000750
X021000Y-000750
X019400Y-000750
X018450Y-000650
X017000Y-000750
X015000Y-003050
X017000Y-003000
X017450Y-004000
X018000Y-005000
X019700Y-005000
X021000Y-005000
X022000Y-004050
X021000Y-003000
X023000Y-003000
X022000Y-006000
X021050Y-006950
X026000Y-005000
X025000Y-003000
X027000Y-003000
X028000Y-005000
X029000Y-004000
X030000Y-003000
X029000Y-006000
X032000Y-003000
X034000Y-005000
X036000Y-003000
X038000Y-003000
X037000Y-004000
X036000Y-005000
X037000Y-006000
X044000Y003000
X042000Y003000
X040000Y003000
X041000Y002550
X040000Y005000
X039000Y002000
X038000Y003000
X038000Y005000
X037000Y004000
X036000Y003000
X034000Y002750
X033000Y002750
X032000Y003000
X035000Y004000
X034000Y005000
X032000Y005000
X030850Y004000
X030000Y003000
X031000Y002000
X029000Y004000
X031000Y006000
X027150Y004000
X028000Y003000
X025050Y004000
X024000Y003000
X024000Y002200
X025394Y002151
X022000Y002400
X017913Y002151
X022000Y003000
X020000Y003000
X018000Y003000
X009050Y002950
X012100Y003000
X012900Y001850
X012550Y-004450
X012550Y-005200
X014000Y-006000
X000000Y-003000
X001000Y-002000
X002000Y-001000
X002000Y-003000
X-002000Y-003000
X-001000Y-002000
X-003000Y-002000
X-003000Y000000
X-002000Y-001000
X002000Y001000
X-002000Y001000
X-005000Y-002000
X-005000Y-004000
X-006000Y-003000
X-007000Y-002000
X-010000Y-003000
X-010000Y-005000
X-009000Y-005000
X-008000Y-006000
X-009000Y-006800
X-007200Y-006750
X-007000Y-005000
X-005000Y-006000
X001000Y-006750
X-001000Y-006750
X-003000Y-006750
X-012000Y-003000
X-014000Y-003000
X-015000Y-004000
X-015000Y-006050
X-016000Y-005000
X-016000Y-003000
X-017000Y-002000
X-018650Y-002700
X-020000Y-002700
X-022000Y-003000
X-023000Y-004000
X-024000Y-005000
X-023000Y-006000
X-024000Y-003000
X-023000Y-002000
X-024000Y-002200
X-026200Y-002600
X-028000Y-003000
X-030000Y-003000
X-031550Y-002200
X-031000Y-005000
X-030000Y-004000
X-031000Y-006000
X-030000Y-006650
X-033000Y-005000
X-034700Y-005000
X-035000Y-004000
X-036000Y-003000
X-038000Y-003000
X-037000Y-004000
X-038000Y-005000
X-037550Y-006400
X-039000Y-005000
X-039000Y-006800
X-042000Y000000
X-042800Y000600
X-044000Y001000
X-040000Y000000
X-038000Y000000
X-036000Y000000
X-034000Y000000
X-032000Y000000
X-028000Y000000
X-026000Y000000
X-024000Y000000
X-022000Y000000
X-020000Y-000550
X-018000Y-000500
X-014950Y-000250
X-016350Y001650
X023000Y004000
X024000Y005000
X016000Y005450
X015000Y004000
X015000Y-009000
X017000Y-009000
X009000Y-009000
X005148Y-007403
X-002333Y-007450
X004800Y-007750
X005000Y-003700
X-012750Y000700
X-012750Y001200
X-014592Y-001200
X-014600Y001200
X-008000Y003000
X005050Y003150
X-042200Y004300
X-039000Y001200
T02
X-001701Y006639G85X-001701Y006403
X001701Y006639G85X001701Y006403
X001701Y005032G85X001701Y004717
X-001701Y005032G85X-001701Y004717
T03
X044382Y-002740
X044382Y-003740
X044382Y-004740
X-032254Y-007874
X-033254Y-007874
X-031254Y-007874
X-030254Y-007874
X-029254Y-007874
X027589Y-007874
X026589Y-007874
X025589Y-007874
X024589Y-007874
X028589Y-007874
X029589Y-007874
X044382Y-011220
X044382Y-012220
X044382Y-010220
X018550Y000000
X019550Y000000
X020550Y000000
X021550Y000000
X022550Y000000
X023550Y000000
X-028254Y-007874
X-044382Y003740
X-044382Y002740
X-044382Y004740
T04
X-003543Y007480
X-004724Y007480
M30
